<?xml version="1.0" standalone="no"?>
<!DOCTYPE svg PUBLIC "-//W3C//DTD SVG 1.1//EN" "http://www.w3.org/Graphics/SVG/1.1/DTD/svg11.dtd" >
<svg xmlns="http://www.w3.org/2000/svg" xmlns:xlink="http://www.w3.org/1999/xlink" version="1.1">
<metadata></metadata>
<defs>
<font id="1952_rheinmetallregular" horiz-adv-x="1216" >
<font-face units-per-em="2048" ascent="1638" descent="-410" />
<missing-glyph horiz-adv-x="800" />
<glyph horiz-adv-x="0" />
<glyph unicode="&#xd;" horiz-adv-x="995" />
<glyph unicode=" "  horiz-adv-x="800" />
<glyph unicode="&#x09;" horiz-adv-x="800" />
<glyph unicode="&#xa0;" horiz-adv-x="800" />
<glyph unicode="!" horiz-adv-x="556" d="M200 1416q23 0 92 -24h32q6 0 24 -52q6 0 24 -24v-36q8 -28 8 -32q0 -52 -32 -76v-4q24 -2 24 -12v-40q-12 -15 -12 -56v-16q-44 -30 -44 -72q-4 0 -4 -24v-12q0 -13 12 -28v-8q-32 -40 -32 -60q-16 -88 -16 -152q0 -23 4 -132q-20 -68 -28 -68h-36q-72 13 -72 84 q0 14 -16 64v4q16 69 16 116q-16 22 -16 56v24q-36 27 -36 32q20 11 20 16v20q0 40 4 96q-36 68 -36 80q0 18 4 88q-1 7 -20 32v44q1 61 40 120zM196 264q30 -20 52 -20h24q64 -45 64 -116q6 0 12 -12v-8q-14 -29 -56 -48q-68 -60 -120 -60h-8q-83 60 -104 92q6 108 32 108 q29 44 104 64z" />
<glyph unicode="&#x22;" horiz-adv-x="836" d="M509 1451q21 -11 92 -24q29 -55 56 -132v-16l-24 -28l12 -20l-4 -36l12 -60q-29 -9 -40 -36v-68q-16 -20 -16 -28q16 -28 16 -40v-16q0 -3 -28 -16q28 -49 28 -60q-5 0 -20 -20l8 -28q-3 -84 -40 -84v-8q8 -13 8 -24q-27 -24 -64 -24q-32 3 -32 12v20q0 5 24 20 q-12 60 -12 64l-20 -4h-20v4q32 42 32 56q-5 0 -20 24v12q0 10 12 48v8q0 7 -16 40q4 22 4 32q-24 17 -24 56q5 0 20 24q-44 38 -44 68v4q12 15 12 28q-6 16 -12 16q4 40 4 60v56q0 4 8 32v32q0 22 88 56zM77 1447q72 0 88 -40v-32l-12 -16q0 -7 24 -16l32 8q12 0 20 -120 q-5 0 -16 -20v-44q0 -7 -36 -68q5 0 20 -20v-4q-24 -29 -24 -60l4 -40q-29 0 -32 -132v-4l20 -24q-8 -28 -8 -32v-48q-8 -64 -48 -64q-87 38 -88 44q13 25 44 52l-24 32v4q0 32 4 76q-16 28 -16 40q16 31 20 36v4l-16 24q13 12 20 12v8q-48 12 -48 68l12 60q-24 14 -24 20 v32q0 4 8 32v8q-12 75 -12 80v36q28 35 28 68q46 22 60 40z" />
<glyph unicode="#" horiz-adv-x="1359" d="M627 1526q22 9 38 9q24 0 37 -20l5 -18q-4 -50 -17 -77v-53q-23 -16 -46 -40l-12 -42q-20 -48 -44 -98q0 -79 -37 -114q0 -22 -17 -87l30 -30l72 11l56 -17q10 0 83 9q39 17 39 41q0 7 -3 14l1 22q0 10 35 20q40 27 40 102q35 28 35 42l-6 25v14l48 58l-7 31l18 31 q0 8 32 39v14l-13 21l49 50l19 25h9l29 7h8q45 -10 45 -46l-13 -46h4l-41 -71v-45l-17 -48l-16 -17l-21 -39q-2 -56 -36 -87q-5 -46 -31 -76q-21 -24 -21 -57q0 -9 1 -18l64 -5l63 7l98 -31l22 -33q-22 -62 -120 -62l-65 -17l-101 8q-44 -20 -44 -52l9 -28q-31 -47 -36 -70 q-3 -12 -3 -21q0 -28 30 -28q17 0 45 10l72 -18l49 7q45 -14 74 -39q-10 -54 -51 -64.5t-162 -13.5l-84 1q-60 -22 -68 -96q-42 -45 -48 -132q-20 -24 -41 -70l-31 -42l4 -67l-33 -80v-7q0 -45 -35 -74l-51 -37l-28 12l-12 9l-33 29q17 22 17 49q0 13 -4 28q12 18 48 68 l-2 54q41 63 41 117v9q30 41 59 102v14q1 29 1 47q18 16 18 34q0 11 -6 23q-80 5 -109 5l-54 -10h-4q-24 9 -40 9q-17 0 -25 -11h-37q-46 -13 -64 -64l-21 -28v-44l-33 -36l-10 -68q-31 -42 -35 -50q-8 -36 -24 -69l-21 -15q7 -11 7 -22q0 -13 -11 -28q-25 -18 -25 -35 q0 -8 6 -16l-7 -39l-22 -30q-9 -21 -59 -37l-35 25q-17 20 -17 58q0 9 1 19l29 39q-3 15 -3 27q0 31 19 47l17 31l18 33v32l40 43l-9 21l36 42q-8 17 -8 30q0 20 15 33l23 33l-10 43l29 27l-27 18l-72 -10h-51q-52 0 -89 56v3q0 39 107 73l47 -20q42 18 106 18h19 q5 -2 11 -2q23 0 51 45l-4 13q26 28 26 39l-13 21q0 12 31 43v6q0 43 -58 43l-13 4h-5l-95 -18q-35 17 -94 29q-13 18 -13 35v24q18 39 58 39q19 0 42 -9l46 20l65 -18h8q75 0 99 17q58 54 58 86q22 0 27 70q9 0 9 18l-4 35q35 31 35 88q0 9 -1 18q29 45 50 92q9 0 18 25 l-4 34v8q22 34 46 69q19 13 36 13zM620 829h-8l-63 12h-6q-88 0 -88 -29q-28 -54 -28 -103v-3q-25 -11 -25 -34q0 -6 2 -13q-10 -16 -10 -26q0 -15 21 -19q58 14 76 14q24 -21 45 -21h4q24 19 52 19q15 0 30 -5q81 1 81 19v3q-2 5 -2 10q0 18 21 39l13 32l-4 35l31 37 q5 11 5 19q0 9 -5 15q-10 11 -88 13z" />
<glyph unicode="$" horiz-adv-x="1131" d="M525 651q-3 -6 -3 -12q0 -7 5 -15q-18 -80 -18 -121q0 -26 7 -37q-23 -29 -27 -94l2 -3q3 -4 27 -25q-14 -24 -14 -61q0 -34 12 -80q8 -13 8 -29q0 -24 -19 -57q0 -59 11 -63.5t13 -4.5q0 5 32 16q40 36 84 36q140 49 140 180q7 0 32 36q0 8 -36 100q-4 48 -4 72 q-36 17 -36 44q0 42 -52 88h-4q-6 0 -48 -4q-3 18 -58 36q-21 16 -32 16q-3 0 -4 -1q-12 -4 -18 -17zM581 771h4q35 14 52 14q96 -15 96 -64h44q5 0 76 -84q24 0 56 -84q24 -117 24 -148q12 0 12 -44v-12q-16 -42 -16 -52v-116q-56 -40 -56 -68q-78 -87 -160 -124 q-9 -12 -28 -12q-15 12 -28 12q-28 -42 -70 -42q-13 1 -24 1q-54 0 -54 -32q-5 -41 -14 -87q-22 -32 -60 -36q-5 -1 -10 -1q-31 0 -44 27q-6 13 -6 25q0 18 13 36q-19 16 -19 47q0 13 3 27q0 15 -31 23q-6 -4 -24 -4q-12 72 -68 72q-56 8 -56 28q0 48 -60 48q-44 0 -44 -28 q0 -17 -28 -56q12 -20 12 -32v-4q0 -10 -48 -24h-32q-8 0 -16 44v64q18 24 32 24v4q-24 14 -24 116q8 29 32 44q-16 6 -16 12q0 4 8 32q-20 58 -20 88v4q24 28 24 72q31 16 40 16q40 -40 40 -88v-40q20 -56 80 -56v-4q0 -14 -16 -32q56 -32 56 -60q-8 -13 -8 -24 q18 -40 60 -40q0 -48 40 -48q32 0 53 -14q3 -2 6 -2q16 0 21 71q-15 23 -15 39q0 17 18 25l27 17l-38 60q-1 2 -1 5q0 14 25 51q-3 10 -3 25q0 16 4 39q-19 29 -19 132q-12 19 -12 35q0 21 20 37q-2 28 -2 45q0 5 1 9q0 18 -20 25q-20 6 -29 6h-1q-10 -1 -23 -17h-4 q-20 0 -72 40q-6 4 -24 4q-13 -8 -24 -8h-4q-32 20 -48 52q0 32 -56 44q-32 13 -32 20q4 35 4 44l-42 8q0 9 10 32v4q0 38 -16 56v12q16 32 24 32h4q4 0 48 -16q13 8 24 8q7 0 20 -96q17 -45 56 -56q27 -4 72 -48q17 0 84 -16h4q24 7 34.5 8.5t12.5 14.5v2q0 14 -26 61 q27 15 27 34q0 10 -7 20q5 36 32 69l-7 10q-4 7 -30 32q14 12 14 33q0 26 -24 67q23 73 23 100q0 9 -3 13q-1 21 -25 21q-9 0 -22 -3h-5q-53 0 -66 -22q-21 -48 -64 -48q-56 0 -56 -32q-13 -45 -52 -72q-10 -72 -48 -72q-7 -4 -16 -4h-4q-5 0 -40 40v12q14 11 20 76 q18 21 80 120q17 19 88 36q0 9 28 12l20 -4q0 36 52 36h8q8 -10 8 -16h4q0 27 48 36q33 0 33 15q0 2 -1 5q0 54 20 90l-9 44q14 33 48 33q6 0 13 -1q36 -21 57 -40l-11 -47l23 -47q1 -6 1 -13q0 -17 -5 -37l5 -14q31 -28 94 -32q69 -52 112 -52q36 -14 36 -40q20 4 40 88 q41 52 44 52q12 -15 12 -28h40q8 -1 8 -8v-116q-20 -22 -20 -48q0 -17 8 -36l-20 -36q17 -33 26 -44v-24q-22 -39 -22 -68q32 -61 32 -68q0 -4 -32 -20h-48q-27 48 -56 80l-48 120q0 10 16 28q-84 0 -100 68q-6 0 -28 28l-28 -4h-12q-8 0 -12 48q-18 12 -30 12 q-16 0 -20 -23q1 -11 1 -23q0 -41 -15 -89q-6 -3 -6 -11q0 -13 14 -36q-5 -2 -16 -43l18 -28q13 -20 13 -36q0 -17 -15 -29q9 -14 9 -38q0 -26 -10 -62l11 -18l4 -18q2 -31 58 -52z" />
<glyph unicode="%" horiz-adv-x="1422" d="M1033 1739h8q50 0 91 -17q37 -19 37 -59q4 0 4 -16v-4q0 -14 -20 -40v-4l-12 -48q-44 0 -44 -68q-28 -26 -48 -88q-32 -38 -32 -84q-75 -89 -98 -106l-10 -10q12 -15 12 -24q-28 -49 -28 -60v-48q-18 -20 -32 -20v-24l-15 -39l-28 -16l2 -29q-35 -10 -63 -44v-32 q0 -19 -28 -52q0 -38 -24 -60q-13 8 -24 8q-6 -22 -19 -56q0 -32 -41 -40v-68q-24 -27 -24 -68q-34 -26 -60 -92q-15 -15 -44 -24l-8 -28q4 -28 4 -32q-36 -32 -44 -32l12 -40q-32 -29 -32 -54v-10q-6 -24 -40 -53h-28l-8 -59q0 -24 -36 -72q0 -24 -36 -44q0 -35 -33 -98 q-41 -37 -41 -54v-6q0 -15 -10 -42q-44 0 -44 -56q0 -23 -44 -36q-33 0 -44 28v8l40 56v20l-4 40q13 8 20 8q-4 35 -4 44q34 56 76 56v36q1 10 13 79l47 21v56l46 44q11 93 42.5 123.5t31.5 56.5q44 27 60 84q14 24 40 52v12q16 15 36 116q19 0 32 68q46 49 46 76q0 9 -6 16 q29 24 48.5 37t19.5 23v16q36 20 36 40q0 32 40 76q0 58 40 100q0 32 56 80q24 62 24 76l15 36l15 30l38 30l8 36l-24 12q-64 -10 -64 -32q-15 -26 -52 -44q-8 -28 -16 -28q-22 0 -44 16q-28 0 -28 -44q-15 -24 -72 -24q-21 -4 -40 -4l-20 4v-24q0 -4 -24 -20q0 -11 -28 -28 q-12 15 -12 28q-3 17 -3 31q0 40 23 61q8 9 64 24q49 22 60 48q50 9 88 56q0 12 56 52v4l-4 20q52 29 52 36q38 96 52 96q7 0 76 76q9 0 60 48q7 4 16 4zM457 1254q4 -31 4 -55v-44q16 -18 16 -20q-8 -28 -8 -32q16 -20 28 -52q26 0 28 -12q0 -30 -32 -40q8 -39 8 -44v-16 q0 -23 -24 -44q12 -20 12 -32q-12 -36 -44 -36q0 -43 -48 -84q0 -44 -24 -44q-19 -40 -52 -40q0 6 -16 16q-64 -48 -108 -48q-25 0 -80 -8q-40 0 -40 40q-13 0 -64 44q-16 0 -16 8v20q-20 131 -20 144v12q0 9 16 40l-4 36q6 0 20 24q-4 55 -4 68q16 17 61 32q11 23 27 37 l13 46q45 32 110 32h4q8 -22 8 -40q0 -47 -54 -65l-37 -51q-56 -22 -56 -52q0 -10 7 -22q-39 -41 -39 -133q10 0 16 -32l-20 -24l13 -20q5 -24 27 -40q32 0 44 5q2 1 4 1q8 0 8 -20l28 -4q44 24 72 24q21 -4 24 -4q32 14 42 50l5 26q0 17 40 20l37 24v24q16 37 16 71 q0 9 -1 17l-13 42l19 59l-31 40q12 10 12 19q0 11 -20 21l-36 17q-19 -6 -35 -6q-25 0 -42 15q2 72 38 72h3l66 -9q10 0 46 21q20 12 33 12q8 0 13 -6zM989 731h20q38 0 72 -24q19 8 36 8q43 0 72 -64q0 -8 48 -60v-8q0 -4 -8 -32v-32l16 -20q-21 -37 -48 -56q24 -25 24 -64 v-4q0 -10 -48 -16v-8q20 -16 20 -20v-60q-38 -38 -92 -128q-26 0 -92 -56q-28 -16 -40 -16q0 20 -24 20l-68 -32q-6 0 -64 36l-28 -8q-64 26 -64 44q0 29 -28 52q-16 18 -16 28q6 0 16 20v16q0 17 4 44q-20 40 -44 40v8q1 9 44 48v28q32 65 32 116q0 9 20 52q0 24 36 52 q0 10 48 20q24 24 36 56q4 0 32 4q36 -8 52 -8h8zM805 451q-21 -12 -21 -42v-5l-21 -25q4 -21 4 -24q-14 -35 -14 -40q16 -39 16 -48v-12l-4 -8l12 4q16 -56 36 -72h24l28 28h4q36 -6 36 -36q36 0 64 88l16 16q28 -8 52 -32h4v8q35 120 72 120q32 0 32 84q-36 15 -36 72 q-18 96 -52 96q-32 9 -84 20q-34 -5 -88 -64q-25 0 -32 -44q-29 0 -36.5 -26.5t-11.5 -57.5z" />
<glyph unicode="&#x26;" horiz-adv-x="1355" d="M523 1427q33 -36 56 -36l28 8q36 0 88 -68q84 -53 84 -96q0 -5 -16 -56q12 -50 12 -64q-6 0 -12 -12q8 -28 8 -32q-16 -31 -32 -96q-24 -24 -24 -60q-68 -10 -68 -32q-40 0 -40 -36q0 -37 -44 -40q-12 0 -32 8q-18 0 -60 -24q12 -30 16 -100q9 0 12 -36v-28q9 0 24 -12h4 l28 8l20 -80q5 0 20 -20v-24l4 -40q-22 -12 -32 -12q-76 0 -76 52q-11 52 -28 52q-64 8 -64 36q8 13 8 24l-29 66q-5 9 -8 9q-5 0 -7 -23q-6 0 -44 12q-68 -33 -68 -96q-54 0 -96 -20q-36 -88 -56 -88l-18 -65l-22 -31q28 -18 28 -48l-8 -32v-20q0 -30 68 -108q0 -28 52 -28 q26 -16 40 -24v-28h16q17 0 44 4q22 -6 49 -22l23 14q19 29 31 34l21 -10h28q39 98 91 98q6 0 11 -1q-7 4 -7 9q0 9 21 22v24q10 17 28 24q4 28 4 32q-6 50 -9 55t-25 33q4 12 54 28q12 16 12 24l-4 36q12 32 36 32v24l-24 24q0 28 56 28q0 8 16 8q-20 55 -20 60 q48 62 60 116q29 0 36 40q46 0 84 48l64 16q145 0 180 -96q11 -4 36 -48v-20q-36 -20 -36 -32q0 -67 -40 -84q-49 -16 -60 -16q-30 0 -96 40q-51 0 -60 56q-3 0 -24 4q-22 -84 -52 -84q0 -28 -16 -68q8 -35 8 -48q-55 -48 -68 -48v-32q-16 -44 -16 -48v-80l20 4h16 q8 0 12 -40q6 0 16 -16v-20q0 -8 -8 -8q-20 0 -60 24q-27 -92 -52 -96l4 -28q-48 0 -120 -68q0 -16 -21 -20q-11 -2 -22 -2q-10 0 -21 2q-44 -32 -60 -32l-24 12q-65 -20 -100 -20q-40 12 -40 40l-20 -4q-54 0 -108 72q-44 0 -44 28q-48 40 -48 64v8l4 48q-32 0 -32 52v20 l-20 32l20 32v24q-20 27 -20 36q46 50 48 76q-12 15 -12 28q20 4 72 124q11 16 20 16l28 -4q37 0 60 72q22 28 56 28q13 -8 24 -8q7 0 40 20q0 4 -16 48q0 22 4 56q-5 24 -44 48q0 28 32 28v4q-2 8 -44 36l-8 87q-28 7 -28 23v2l12 58v32q28 10 28 22q-8 13 -8 24v28 q15 23 64 40q0 18 44 56q0 19 68 32q26 -12 36 -12q24 36 84 36zM495 1291q-10 0 -36 12q-46 -40 -68 -48l-28 4q-6 -21 -56 -64q-4 -22 -4 -36v-8q24 -95 24 -108q24 -4 24 -12q0 -11 -8 -24q4 -28 4 -48q-8 -13 -8 -24q42 -68 80 -68q26 0 40 24q24 -3 24 -8q27 4 84 112 q6 36 20 36l28 -4q12 25 16 60q40 21 40 100q4 0 4 4q-11 33 -100 88l-28 44q-23 -32 -52 -32zM1081 307q78 -15 78 -44q0 -12 24 -40l-20 -24v-52q-24 -50 -24 -64q0 -43 -92 -64q-46 -52 -84 -52q-86 32 -96 32q-16 -4 -28 -4q0 44 -76 60q-28 0 -28 16q-4 25 -4 56v12 l-28 -4q-8 15 -8 32q14 28 20 28h16q46 0 64 -32q0 -37 116 -52q0 -8 20 -8h24v28q8 16 20 16q18 -12 46 -16q16 36 16 48l-8 52q0 23 52 76z" />
<glyph unicode="'" horiz-adv-x="453" d="M108 1447q111 0 166 -76q0 -11 6 -33.5t7 -83.5q-23 -53 -23 -105q0 -21 4 -42l-23 -72l4 -56l-33 -60l4 -68q0 -19 -25 -72q-37 -32 -55 -32q-7 0 -11 6q-14 20 -14 26l-29 52q0 54 -22 70q-13 10 -13 29q0 14 6 32q-11 33 -50 89v4q0 14 18 40v4q-29 45 -29 64v4 q0 2 28 68l-6 36q-22 30 -22 44q72 114 87 120q21 12 25 12z" />
<glyph unicode="(" horiz-adv-x="722" d="M469 1747q68 -21 84 -56v-24q-13 -28 -68 -52q-12 -12 -32 -56q-46 -66 -68 -88q-12 0 -12 -8l-18 -49l-38 -11q-7 -46 -72 -128q-12 -20 -12 -40v-20q12 -15 12 -28q-19 -15 -60 -36q-9 -78 -20 -120q-16 -25 -16 -48v-20q12 -15 12 -28q-6 0 -28 -28l20 -60 q-36 -9 -36 -48v-12q0 -10 20 -44q-16 -24 -16 -36q8 -13 8 -24l-16 -24q16 -24 16 -36v-48l32 -32v-28q-8 -28 -8 -32q0 -34 44 -68l4 -20v-4q-4 -30 -4 -60q28 0 40 -112q36 -15 36 -68q12 -35 88 -80v-44q0 -50 60 -76q104 -114 104 -172q4 -16 4 -28q-8 -18 -16 -20h-28 q-51 48 -64 48h-4q-13 -8 -20 -8q-9 25 -40 52q0 72 -80 88q0 43 -60 72v4q12 16 12 24q-48 54 -48 60q-9 58 -40 100q-9 4 -32 52q-11 0 -24 88q0 11 -32 104q0 7 -32 32v24q8 16 20 16q-28 63 -28 124q4 35 4 44q-28 52 -28 124q5 0 20 24v20l-16 24v20q0 14 20 40 q0 8 -12 32q32 45 32 64v32q0 6 20 16l-4 48v52q32 21 32 64q14 22 28 68q36 39 36 68q36 59 36 64l-4 36q23 8 48 84q20 16 60 32q0 76 140 172q39 8 44 8z" />
<glyph unicode=")" horiz-adv-x="704" d="M49 1730q75 0 164 -64q44 -77 56 -112q48 -37 48 -72q8 -13 44 -40q0 -32 12 -32t12 -8q-4 -22 -4 -32q48 -68 48 -100q6 -6 16 -84q12 0 20 -56q16 -6 32 -80q6 0 20 -28q-8 -25 -8 -32q5 0 20 -20v-16q-20 -69 -20 -84l8 -28v-36q16 -21 16 -36v-16q0 -2 -24 -24 q14 -40 20 -76q-20 -134 -28 -164q-8 0 -20 -136q-18 -17 -40 -76q-12 0 -24 -84q-52 -13 -52 -84q-21 -40 -52 -84q-13 -60 -56 -60q-68 -60 -68 -104q-12 0 -48 -44q-26 -24 -76 -24v-4l8 -12v-4q-17 -24 -56 -24l-4 8v52q0 19 56 76q0 40 80 92q0 13 52 44q0 4 20 28v28 q0 9 28 72q0 26 28 36q15 1 52 76v8q-1 10 -36 28q68 30 68 84q12 53 12 60q-4 50 -4 52q32 60 32 172q9 0 12 68q-15 25 -32 132q12 20 12 32v4q-8 101 -28 116l4 40q-5 23 -36 44q-8 13 -8 24q12 31 12 44v12l-36 56v28q0 44 -20 44q-84 46 -84 120q-112 83 -112 132 q-52 76 -92 76l-4 8v24q0 40 60 60z" />
<glyph unicode="*" horiz-adv-x="1135" d="M669 1459q35 0 52 -52q8 -22 8 -40q0 -46 -49 -74q-10 -32 -10 -56l-22 -14l-30 -21l-33 -51q13 -20 56 -20q30 5 49 5q28 0 35 -10q6 -10 22 -10q15 0 39 8l61 13q118 -31 120 -88q-57 -77 -68 -77l-40 -17l-33 -18l-40 33l-57 -17l-86 29l-36 -3h-8l-16 -12 q9 -22 72 -95q75 -57 82 -67q1 -3 1 -6q0 -11 -21 -36q45 -27 60 -48v-8q-26 -30 -44 -80q-25 -12 -44 -12q-69 0 -128 88q-39 144 -76 144q-22 48 -46 48q-21 0 -42 -40q-18 0 -32 -60q-35 -20 -35 -44l1 -79q-46 -50 -95 -50q-7 0 -15 1l-40 -12q-46 0 -46 50q0 10 2 22 l-6 73l36 29q9 73 82 106q40 39 54 78q0 19 -28 19q-22 0 -64 -13h-38q-36 -24 -68 -24q-23 0 -43 13l-21 3q-59 0 -92 84v4q0 19 40 70l42 -3l36 25l61 -6q44 -2 102 -18l45 10q16 1 16 16q0 7 -4 17q-18 56 -74 133l-32 88v8q22 60 72 60q32 0 86 -29q50 -48 50 -89 q0 -7 -1 -13q17 -17 17 -28q0 -4 -3 -8t-3 -10q0 -12 13 -30q-6 -18 -6 -31q0 -30 31 -30h16q15 0 36 70q32 34 36 66l-4 24q25 13 52 75q44 37 96 37z" />
<glyph unicode="+" horiz-adv-x="1157" d="M589 731q26 0 42 -14l27 -9q48 33 76 34q36 -30 48 -30l46 21q28 0 66 -33q27 8 45 8h8q36 0 45 -56v-20q-19 -72 -56 -72l-58 -35q-21 0 -85 30q-41 -23 -63 -23q-15 0 -22 11q-16 22 -28 22q-2 0 -3 -1q-14 -4 -21.5 -10t-46.5 -6q-15 7 -26 7q-10 0 -15 -6 q-6 -8 -6 -18q0 -9 5 -20q-2 0 -19 -20l4 -20v-4l-4 -24q11 -21 11 -31q0 -3 -1 -5q-5 -26 -21 -64v-8q0 -11 8 -24q15 -18 15 -40q0 -26 -21 -56q16 -28 16 -40v-20q-31 -44 -82 -44h-11q-8 1 -32 34q-15 10 -15 42v4q0 30 15 42q-1 14 -19 42q3 51 27 70v15q-15 38 -24 67 q0 24 19 56q-4 13 -7 47t-23 38t-31 4q-19 -20 -34 -20q-7 0 -13 5q-9 6 -18 6q-11 0 -21 -8q-8 -5 -14 -5q-12 0 -20 17l-20 14q-22 -20 -40 -33l-19 -4q-40 24 -53 24q-32 -12 -39 -12q-11 -4 -21 -4q-41 0 -75 64v4q14 80 45 80q9 17 56 25q27 -17 38 -17h4q54 19 60 19 h11q42 -27 45 -27q43 24 77 24h5q20 0 46 -7q4 0 20 2t21.5 8t8.5 14v2q0 9 -13 26q12 18 19 31q2 3 2 7q0 14 -18 43q-10 15 -10 30q0 20 18 38q9 25 13 46q-18 25 -18 39q0 5 3 8q9 12 10 35q-24 26 -24 47v3q17 52 70 52q66 -5 79 -36q9 -21 9 -35q0 -12 -6 -18 q-6 -7 -6 -16q0 -12 9 -27l-9 -20q11 -21 11 -35q0 -7 -2 -12q-9 -15 -9 -17q18 -61 18 -75v-2q-3 -8 -14 -17q-7 -5 -7 -16q0 -9 4 -21q13 -14 13 -30q0 -9 -5 -18q-3 -7 -3 -11q0 -11 17 -11h16z" />
<glyph unicode="," horiz-adv-x="556" d="M85 374q48 -16 60 -16q23 2 36 12h52l36 -32l40 4q15 -15 56 -116q16 -16 16 -48q-16 -16 -24 -16v-112q-12 -37 -16 -100q-16 -6 -16 -12v-32q0 -40 -100 -128q-46 -64 -64 -72q-36 -20 -76 -20h-28q-56 0 -56 40q22 28 44 28h16q4 0 4 -4q14 0 40 84q42 48 84 60 q16 37 16 44v28q-8 10 -8 16h-4q0 -22 -32 -28h-12q-8 0 -12 48q-4 0 -36 24q0 -8 -8 -8h-56q-5 0 -24 32v44q-28 48 -28 60v32q4 77 52 140q44 48 48 48z" />
<glyph unicode="-" d="M853 727l16 -16q59 4 96 12q29 0 60 -36v-4q3 -17 3 -32q0 -57 -27 -94q-12 1 -23 1q-41 0 -57 -12q-12 -10 -30 -10q-12 0 -27 5q-19 0 -39 13l-40 -19q-87 20 -96 20q0 4 -4 4q-59 -28 -100 -28q-30 0 -44 28q-43 -20 -52 -20q-29 14 -44 24h-12l-56 -20h-12 q-32 3 -68 24l-56 -24q-7 0 -28 19q-8 0 -25 13l-39 -16l-4 -8l-72 36q-27 -16 -56 -16q-32 0 -32 44q2 43 48 80q46 0 60 -24q14 28 54 31h4q16 0 28 -6q13 -7 24 -7q27 18 57 19l29 -1q36 -12 40 -12q24 16 32 16q18 -12 56 -16q35 20 64 20q18 0 64 -20q42 20 76 20h16 l24 -20h4q18 16 28 16q15 0 64 -12q42 0 96 28z" />
<glyph unicode="." horiz-adv-x="538" d="M194 344q20 0 100 -68q16 0 52 -44v-36q0 -14 16 -32v-4q0 -13 -28 -60q-18 -70 -44 -84q-23 -16 -92 -20q-18 -16 -36 -16q-102 38 -132 104q-40 37 -40 84q32 29 32 80q53 72 148 88q13 8 24 8z" />
<glyph unicode="/" horiz-adv-x="1098" d="M900 1781q72 0 79 -76q1 -28 1 -48q-49 -38 -49 -85q0 -6 1 -11q-22 -19 -40 -48l-61 -80q-15 -100 -47 -100l-28 -4v-68q-1 -12 -44 -40q-6 -22 -40 -52q0 -33 -48 -124q0 -50 -40 -60q-30 -66 -72 -128q8 -13 8 -24v-4q-38 0 -44 -92q-40 -5 -40 -40q-21 -30 -56 -48 v-12q0 -8 8 -40q-38 -12 -40 -92q-68 -74 -68 -92q0 -40 -36 -40l-20 -24v-60q-60 -67 -60 -92v-28q-22 -24 -36 -24l-16 24v24h-4l-20 -4q-12 15 -12 28v16l28 84q16 42 80 92v16q4 70 76 148q16 0 16 44q5 0 32 32v32q0 47 32 56q0 33 48 88v20q0 64 56 64v52q24 57 24 80 q64 111 64 144q31 16 64 72v4q0 4 -8 32q41 30 68 124q0 36 48 72q32 62 32 120q24 15 24 20q-4 22 -4 36q11 0 56 47q17 52 61 64q22 1 27 5zM44 121q36 -15 36 -48q-20 -56 -24 -92l-56 -28q-12 20 -12 32v48q0 3 20 20v40q0 6 32 16q0 4 4 12zM-23 -65q16 -8 16 -23 q0 -10 -7 -23l-18 -27l-25 24v33zM-64 -151l4 -8v-28q-10 -9 -20 -96q-6 0 -12 -12q-38 16 -48 36q0 35 36 48q8 17 8 28q-16 6 -16 12q0 16 48 20z" />
<glyph unicode="0" horiz-adv-x="1260" d="M592 1413q44 -9 72 -24l36 9q30 -26 42 -50q61 -13 80 -16q48 -72 109 -122q-1 -4 -1 -9q0 -26 39 -73q26 -14 26 -48l35 -99q4 -61 4 -65v-40l8 -12l9 -24l-13 -28q14 -26 24 -45q7 -14 7 -24q0 -5 -1 -9q-26 -32 -26 -42q12 -24 24 -47v-14l-20 -59q20 -5 20 -16 q-4 -19 -16 -49q-16 -50 -48 -107v-4q12 -15 12 -28v-8l-32 -28l16 -44q-29 -16 -36 -16v-36q-27 -35 -27 -74v-3l-38 -36l-22 -55l-43 -23l-12 -8l-24 -40q-11 -13 -67 -24q-35 -37 -87 -37q0 6 -32 28q-10 -44 -68 -44q-27 48 -52 48h-4q0 -5 -36 -36q-41 0 -76 40h-28 q-13 0 -88 48q-40 5 -40 24q0 34 -40 60q-20 28 -28 76q-60 49 -60 108q-36 29 -36 80q0 16 4 72q-52 62 -52 88q8 54 8 68v8q-24 30 -24 44v36q24 49 24 72q0 10 8 20v16l-28 36q0 8 52 92l8 28l-24 44q30 46 40 84q49 59 72 120q25 0 44 64q55 15 92 72q0 17 84 36 q48 28 108 28l28 -4q42 15 94 21zM426 1236l-40 12q-17 -8 -96 -80q-8 -4 -12 -4v-4l12 -16q0 -10 -36 -20v-4l4 -40q-64 -92 -64 -128v-48q-28 -30 -28 -48l8 -12v-12q-24 -26 -24 -28q23 -30 23 -33q-14 -21 -35 -35q28 -41 28 -80q-24 -9 -24 -20q8 -54 8 -68v-32 q12 -36 12 -40v-12l-16 -24q38 -27 38 -66q0 -18 -8 -39q54 -74 54 -83v-44q53 0 80 -64q9 -13 40 -27l36 -1q14 -19 44 -64h16l24 8l44 -24l36 16q50 -4 56 -4q88 0 115 33l43 17l23 46l31 32l6 13q6 13 6 23l1 21v4q0 7 23 11q32 46 32 140q6 0 16 20v8q0 4 -8 32v8 q20 40 20 72l4 56q-8 13 -8 24v48q0 4 -8 32v44q0 8 -20 44q0 13 16 32q0 7 -16 44q0 2 4 52q-11 92 -56 92q-37 109 -87 140l-17 12l4 24q0 15 -80 24q-15 16 -64 40q-12 0 -32 -12q-30 10 -72 52l-48 -60h-8z" />
<glyph unicode="1" horiz-adv-x="814" d="M505 1410l26 7h1q39 0 41 -77q0 -43 29 -69v-6q0 -58 -18 -106q0 -11 21 -62q-7 -14 -15 -91l5 -38q-11 -18 -11 -31v-2q4 -51 4 -53l-11 -42v-16q1 -11 13 -50q-7 -28 -7 -33q13 -39 13 -49v-16q-23 -28 -23 -60v-3q17 -92 17 -103l-26 -92l1 -12q0 -24 17 -74l-31 -54 v-37q9 -31 14 -74q-23 -23 -23 -39q0 -7 5 -12q6 -9 6 -20t-7 -24q-5 -6 -5 -15t6 -23q-7 -36 -35 -54h-2q-50 0 -51 41v16q8 9 15 13q5 2 5 5q0 2 -1 4q-4 5 -13 21q-8 12 -8 26q0 4 1 9l-1 8q0 10 20 14v4q-21 50 -32 115q11 20 29 41v13q-23 16 -23 24l14 29 q-28 45 -29 61q0 25 27 68q-17 88 -17 94q14 43 14 63v3q-24 47 -25 62q16 38 23 89l-23 57q-4 2 -4 10q0 17 19 61q-3 54 -19 72q-9 9 -9 18q0 7 6 14q17 36 20 84q-2 5 -6 5q-5 0 -14 -8q-11 -11 -24 -11q-5 0 -10 2h-5q-15 0 -20 -30q-23 -35 -35 -47q-42 0 -62 -2.5 t-27 -15.5q-51 -67 -74 -68q-8 0 -28 8q-23 -5 -47 -50l-64 -14q-29 12 -48 33l-1 20q0 19 55 104q9 17 31 29q20 -11 32 -11q36 30 54 46q15 13 25 13h5q8 -3 27 -3h12q15 71 37 73l54 20q33 78 46 78h1q66 21 66 60q16 42 77 60z" />
<glyph unicode="2" horiz-adv-x="1091" d="M511 1437q22 0 73 -48q51 -17 119 -30q67 -62 106 -92q0 -45 40 -55l53 -64l1 -77l17 -47l4 -21l-8 -45l-10 -26q2 -29 2 -46q0 -18 -2 -24q-23 -44 -49 -66l-9 -68q-29 -12 -58 -30l-10 -39l-29 -15q-29 -14 -38 -28.5t-18 -20.5q-5 -3 -19 -3q-11 0 -29 2h-4 q-14 -9 -21 -27q-5 -13 -19 -13q-7 0 -17 4l-22 -31q-6 -10 -57 -11v-1q0 -21 -43 -27q-28 4 -32 4q-27 -47 -88 -77q0 -12 -48 -24v-1q0 -27 -88 -94q-55 -139 -86 -139l-23 -8v-4q0 -3 24 -24v-24h4l20 4q15 -35 46 -35h2q16 24 24 28l16 -4q59 -23 64 -23q7 0 60 20 q51 -31 60 -31q4 9 48 36q40 -23 62 -23h2q13 6 25 20l14 12q25 -8 45 -20q26 1 72 29q29 -16 40 -24l28 5l58 8q90 -30 91 -71q0 -33 -89 -51q-49 5 -75 5h-8q-23 -3 -56 -16l-36 20q-32 -9 -55 -13h-12q-37 20 -45 20q-37 -21 -56 -21q-10 0 -60 22h-8q-35 -24 -58 -26 q-3 0 -54 15q-36 -17 -44 -23q-2 -1 -5 -1q-16 0 -83 26l-28 -16q-31 24 -44 24l-48 -1q-26 28 -41 112v16q9 24 35 52q-16 24 -16 36q14 0 35 81q44 64 52 64q13 48 79 49v28q26 33 119 93q43 56 108 57q25 48 111 49q20 11 64 88q42 1 62.5 48.5t68 65t47.5 48.5 q10 41 10 63q0 15 -5 22q-7 7 -7 18q0 10 6 22q5 11 5 23q0 17 -10 36q-2 4 -2 8t1 7q2 9 12 29v4q-28 0 -28 40l-28 -5q-13 5 -49 72l-16 12h-4q-21 -19 -36 -24q-3 -1 -5 -1q-11 0 -11 24q0 28 -56 36q-13 -17 -32 -29q-10 -6 -17 -6t-10 7q-8 12 -41 27q-47 -8 -60 -9 q-20 12 -32 12l-11 -3q-1 -33 -89 -50q-17 -7 -55 -104q-6 -22 -67 -65l24 -28v-16q-37 -101 -63 -108q-4 0 -12 -4h-1q-36 0 -79 51l-11 73q10 23 18 51l-5 36q37 28 48 28q-4 31 -4 51q0 12 1 20q5 22 42 32q9 19 13.5 43t24.5 32t44 18t33.5 12t17.5 8q9 25 62 47l20 4 h28l24 -4l32 20h2q10 0 30 -11q59 0 95 37z" />
<glyph unicode="3" horiz-adv-x="1120" d="M798 1418q31 -24 64 -24q22 4 32 4q32 -16 32 -124q-15 -18 -60 -44q-46 -37 -83 -94q-46 -17 -73 -30q-33 -43 -46 -83q-2 -31 -66 -45q-36 -24 -36 -28v-28q0 -6 24 -24h4l28 8q11 0 68 -20h16l65 -17l23 -47q10 -28 33 -39.5t63 -48.5q0 -61 40 -116v-28 q11 -22 11 -43q0 -11 -3 -21q-3 -20 -3 -42q0 -26 4 -54q7 -52 7 -57q0 -6 -28 -23v-56q-18 -20 -28 -20v-36q-17 -19 -60 -56q-5 -26 -48 -64q-10 -13 -28 -56q-72 -24 -84 -24q-9 0 -9 -8q0 -2 1 -6q4 -14 5 -41q-8 -22 -85 -37q-40 -13 -40 -20q0 -33 -140 -56 q-22 -32 -60 -32h-48q-36 -32 -64 -32q-44 24 -56 24h-4q-12 -25 -20 -25l-32 13q-11 -20 -24 -20q-28 10 -35 38q-2 8 -2 15q0 19 18 32q5 -1 10 -1q16 0 27 12q9 10 22 10q9 0 20 -4q27 -10 36 -10q24 25 51 51q6 3 13 3q17 0 36 -22q33 34 49 50q10 10 22 10q6 0 13 -3 l32 -13q47 44 55 56t15.5 18t25 8t28.5 2q17 0 46 17q34 23 41.5 39.5t14.5 26.5q3 5 9 5q3 0 7 -2q10 -6 22 -6q25 13 32 68q15 58 44 68q44 30 44 104q27 49 34 76q1 8 1 20q0 29 -11 84q-11 30 -17 41q-4 6 -4 16q0 5 2 12q3 18 3 31q0 33 -80 48q0 4 -12 26t-32 34 q-29 -13 -45 -13q-9 0 -14 5q-13 11 -65 28l-64 -4l-20 -12q-41 -21 -66 -32q-17 -7 -28 -7q-5 0 -9 2q-3 1 -7 1q-11 0 -29 -12q-24 -17 -65 -32q-40 19 -40 52v24q0 60 21.5 64.5t26 35.5t65.5 58q26 25 32.5 48.5t32 24.5t30.5 1q52 33 52 56q0 37 76 56q8 5 24 44 q13 16 19.5 32t30.5 34t24 34q0 7 -9 15q-24 4 -49 4q-29 0 -60 -5q-27 16 -32 16q-33 -34 -72 -34l-28 12l-56 4h-4q-50 -17 -67 -21q-10 -3 -18 -3q-6 0 -11 2q-13 3 -42 22h-4q-19 6 -35 6t-28 -6q-24 0 -27 -48q-26 -80 -61 -84h-5q-31 0 -49 48q8 19 8 36q0 11 -3 21 q-9 24 -13 42q-2 5 -2 11q0 15 7 36q10 29 14 66l32 16q19 -5 48 -36q18 0 64 32q22 4 32 4q44 -24 60 -24q35 32 44 32q6 4 24 4q8 -16 52 -28q46 4 61 12q8 4 15 4q5 0 9 -2q9 -7 12 -18.5t13 -11.5t26.5 14t31.5 26q27 0 52 -32h24q37 28 60 28q29 -17 56 -20 q60 32 76 32z" />
<glyph unicode="4" horiz-adv-x="1113" d="M575 1398h4q46 0 60 -24q36 -49 36 -84q0 -10 -20 -64q20 -35 20 -45q0 -11 -7 -15t-7 -11q0 -8 9 -62q6 -38 6 -53q0 -7 -1 -9q-4 -7 -16 -33q12 -29 12 -36l-4 -28q26 -10 28 -20v-8q-28 -87 -28 -132q-4 0 -4 -12q26 -10 28 -20q0 -43 -28 -88q0 -13 32 -108 q-15 -12 -24 -12v-28q25 -56 44 -108q-10 -15 -10 -24q0 -16 30 -16l39 4q11 4 20 4q13 0 21 -9q17 -8 33 -8q5 0 10 1q20 3 42 12q31 -20 47 -48v-40q0 -20 -23 -31h-8q-33 0 -49 7q-24 5 -39 5h-5q-16 -1 -60 -13l-24 12q-25 0 -48 -44q-16 -2 -16 -12v-20q0 -10 12 -48 v-28q0 -35 -28 -92v-12l40 -84v-8q-12 -38 -12 -48v-24l-36 -44q-76 0 -76 92q8 37 8 44q-4 50 -4 52q12 45 12 56l-16 28l4 36l-12 60q28 14 28 40l-12 20q-7 26 -10 30q-2 1 -6 1q-9 0 -33 -6q-31 15 -46 15q-4 0 -7 -1q-14 -5 -34 -10q-8 -3 -13 -3q-10 0 -14 6 q-8 9 -33 24h-4q-15 0 -48 -28l-60 16h-4q-30 -24 -44 -24l-22 11q-18 18 -31 18q-2 0 -4 -1q-15 -4 -29 -10q-8 -4 -17 -4q-5 0 -11 2q-14 4 -28 7q-7 2 -17 2q-9 0 -22 -2q-9 -1 -16 -1q-12 0 -17 4q-9 5 -18 29q-7 16 -7 29q0 11 5 19q10 17 18 17q14 4 25 34 q39 38 39 78q0 10 20 56q0 25 48 32l8 62q-1 5 -1 10q0 15 11 28l18 20l6 44q-1 2 -1 4q0 21 55 60q21 31 48 64v28q16 34 24 104q24 13 36 24h8q0 18 52 100l10 43q2 43 6 57q59 45 104 140zM466 973l-11 -7v-8l-36 -31q-14 -15 -14 -26q0 -1 1 -2v-3q0 -10 -11 -15 q-12 -7 -12 -17q8 -28 8 -37q0 -10 -8.5 -13t-20 -11.5t-36.5 -25.5q-20 -6 -20 -15q0 -2 1 -5l8 -19q-18 -26 -26.5 -36t-12.5 -21t-9 -61q12 -15 12 -27q-23 -26 -49 -43q-27 -33 -30 -50.5t-22 -33t-19 -47.5v-15q-8 -11 -8 -20q0 -11 12 -20q28 16 40 16q25 0 44 -31h12 q16 0 52 8q25 -3 56 -24q24 0 52 35h12q44 -15 48 -15h20q17 0 32 8l29 4q17 5 23 19q-2 10 -2 19q0 20 10 32q-7 18 -28 40v4q0 2 24 27v4q0 5 -24 55v39q0 14 -20 40v12q32 76 32 90q-36 53 -36 67q11 20 16 20l-16 90q-24 19 -24 51q-11 9 -23 9t-26 -10z" />
<glyph unicode="5" horiz-adv-x="999" d="M487 1414q11 0 67 -33h16q64 23 77 23q13 -25 19 -25q12 0 81 23q7 4 16 4q30 -1 59 -62l-1 -60q-55 -61 -86 -72q-59 11 -59 36v9h-4q-13 -12 -22 -20q-17 -17 -30 -17q-13 1 -28 11l-16 8h-8q-61 -27 -85 -27q-27 12 -35 25q-20 6 -34 6q-15 0 -24 -6q-8 -5 -17 -5 q-13 0 -29 9q-13 8 -24 8h-4q-30 -26 -69 -26h-23q-42 14 -47 20q-2 2 -5 2t-6 -4q-5 -4 -5 -14q0 -7 2 -15q6 -20 19 -36q-16 -12 -44 -20v-3q0 -49 26 -117l-24 -28l-7 -27l23 -73q5 -6 5 -13q0 -2 -1 -4q-2 -9 -9.5 -18t-20.5 -78l-2 -22l20 -5q36 0 44 26q10 30 16 38 q2 4 12 4q9 0 22 -3q29 -7 35 -7q45 53 65 67q10 0 63 -21l61 11q49 -29 55 -29q42 6 80 25q20 -8 36 -42v-1q0 -7 24 -17q29 8 40 8q31 -1 69 -63l18 -39l33 -38q8 -38 20 -68l3 -55l23 -40l-4 -36l3 -40q0 -17 -25 -48l20 -32l-1 -16q0 -14 -20 -40l-1 -32q-2 -32 -27 -38 q-8 -78 -41 -78l-26 -10q-30 -93 -57 -111q-18 -12 -42 -12q-6 0 -11 1q-16 -3 -33 -43q-33 -34 -77 -48h-5q-71 0 -104 -58q-14 -8 -41 -9.5t-88 -27.5h-28q-44 37 -65 37l9 -44q0 -8 -8 -8l-16 4q-8 -3 -12 -11q1 -3 1 -6q0 -9 -13 -10q-26 11 -37 20q-10 7 -10 17 q0 3 1 5q2 13 5 28.5t12 17.5l28 -4q11 19 17 19l23 -16h4q58 51 66 51q7 0 26.5 -10.5t25.5 -11.5q2 -1 5 -1q4 0 10 1q15 1 20 24.5t11 23.5t34 13q16 36 27 36q3 0 5 -2l24 -8q8 0 45 59q13 15 85 26q43 91 81 91h1q0 24 10 53q17 14 48 56q-3 32 -3 50q0 20 4 20 q32 10 32 43v4q-31 48 -31 57q9 36 9 44q0 12 -19 72l-35 15q-3 0 -32 26q9 26 9 36v20q-17 24 -31 25l-29 -8q-37 1 -85 38h-4q-13 0 -56 -7q-24 4 -24 12h-3q-31 0 -129 -17l-69 -51l-48 5h-8q-19 -9 -37 -60q-4 0 -24 -15q-65 1 -88 37q9 26 9 32q-12 20 -12 32 q18 66 18 84v8q-28 34 -28 49l13 23v3q0 25 -17 91l13 122q-6 1 -19 25l4 10q10 13 19 37h1v4q-25 113 -25 128v1q0 16 52 47q1 33 57 43q0 10 49 23q28 -16 35 -16q52 19 63 19l54 -14q14 -4 35 -4l20 -4q11 19 18 19l23 -9q27 -8 31 -8h16q31 27 37 27zM62 -142l16 -1h3 q14 0 16 -20q1 -6 1 -11q0 -20 -11 -20q-3 -9 -11 -9q-13 0 -37 20q-11 -4 -18 -8q-3 -2 -6 -2q-4 0 -8 5q-6 8 -6 15q1 31 57 31h4z" />
<glyph unicode="6" horiz-adv-x="1161" d="M733 1550q17 0 68 -16q7 0 44 16q64 -13 64 -44v-16q0 -53 -52 -96l-20 -4q-28 8 -48 8h-4q-21 0 -49 -22l-19 -16q-17 10 -32 14q-24 0 -60 -20q-51 12 -60 16q-9 0 -68 -48q-80 -18 -80 -28q0 -22 -72 -48q-36 -17 -52 -40v-4l6 -25v-4q-90 -58 -90 -71q0 -11 8 -35 q-37 -30 -37 -69q0 -18 7 -37q-17 -18 -34 -39q-16 -38 -16 -92l4 -20h8q38 0 44 52q16 8 24 8l36 -8q13 -8 24 -8q28 0 51 46l8 10l13 1q25 -13 60 -17q29 20 60 20q44 -16 64 -16q11 18 16 18q17 16 52 16q16 -21 20 -30q29 -28 48 -28q18 16 28 16q38 0 56 -68 q112 -19 112 -68q0 -40 44 -52q16 -21 16 -36v-40q0 -24 36 -44l-12 -20v-4q28 -31 28 -64l-8 -28q0 -16 18 -32q9 -8 9 -15q0 -8 -9 -15q-18 -14 -18 -42v-28q-36 -31 -36 -56q8 -28 8 -48q-25 0 -64 -96l-76 -72l-68 -36q-28 -52 -32 -52h-84q-20 0 -68 -32q-12 0 -76 16 h-8q-20 -16 -52 -16q-29 22 -60 36q-22 -4 -32 -4q-59 22 -88 64q-16 11 -60 16q-40 66 -40 68q-19 0 -28 48q-49 0 -68 100q12 20 12 32q-30 0 -44 72q0 10 8 40l-12 52l-3 31q-17 27 -17 45q6 0 20 24q0 4 -8 32v60q-8 58 -8 60q16 28 16 40v48q12 20 24 20v8 q-16 20 -16 28q0 31 20 52v4q0 4 -8 32v4q32 28 32 96q9 0 12 36v28l40 92q10 14 48 28q14 27 88 104q3 19 52 44q44 56 116 68q75 44 84 44h36l28 -4q28 48 56 48l32 -16q60 28 88 28zM397 790q-2 -19 -104 -60q0 -41 -84 -80l-8 -12l-16 -24q-27 -21 -36 -44l4 -40v-8 q0 -39 -24 -80q8 -15 8 -32v-32q0 -157 100 -192q24 -48 56 -48h32q12 0 44 -52q3 0 24 -4q9 6 14.5 11t17.5 5q46 -28 64 -28h12q8 0 20 6l17 18q5 5 11 5q4 0 9 -3q11 -6 27 -14h4q36 19 56 72q0 20 28 20l28 -12q24 9 52 36q5 18 13 36q-1 5 -1 9q0 9 3 15q3 7 10 7h2 q3 -1 7 -1q8 0 22 2q15 25 36 32l-4 28v36l24 36v48l-20 28q0 13 8 56q0 49 -76 84q-25 80 -48 80q-47 -28 -56 -28q-19 0 -24 48q-24 24 -64 24h-20q-38 49 -76 56q-28 -20 -36 -20q-18 0 -56 20v-4z" />
<glyph unicode="7" horiz-adv-x="1234" d="M254 1420q32 -31 56 -32q44 12 64 12q41 -24 52 -24q0 24 40 32q17 0 92 -16q27 20 40 20h24l24 -20h20q44 16 48 16h16l76 -20q32 -11 80 -24q4 10 40 36h28q76 -24 112 -88q-30 -68 -35 -121v-2q0 -22 -24 -31l-25 -16q3 -23 4 -38v-1q0 -15 -18 -25q-19 -11 -54 -46 q-32 -19 -32 -92q-35 -40 -53 -151l-69 -87q-19 -53 -32 -70q0 -22 6 -56q-54 -78 -75 -107l-4 -22l-3 -53l-5 -36l-3 -61q-52 -62 -66 -85v-4q0 -25 24 -56q-48 -35 -48 -64q0 -22 -24 -48v-4q12 -24 36 -24v-8q0 -15 -76 -40q-48 7 -48 44q18 8 20 16v4l-16 44v20 q20 26 30 75l2 45v4q0 4 -8 32q21 32 28 56q4 31 4 53q0 21 -4 33q-2 6 -2 12q0 17 18 32q24 19 24 114q5 17 18.5 23.5t31 49.5t17.5 93l5 26q4 21 23 35l20 28l6 57q-3 10 -3 17q0 14 11 20q17 9 29 31l33 26l18 27l-5 34l-1 26l-9 30l46 43q20 37 20 70q-12 20 -12 28 q1 4 1 7q0 11 -10 11q-3 0 -8 -1q-21 -8 -46 -10.5t-46 -9.5q-4 -2 -7 -2q-16 0 -24 37q-21 0 -41 -22q-10 -18 -21 -18q-3 0 -6 2q-14 6 -28 34q-32 0 -42.5 -10t-17.5 -18q-2 -3 -6 -3q-9 0 -27 13q-27 19 -27 34q-33 0 -76 -21q-16 -12 -31 -12q-7 0 -14 3q-9 4 -22 4 q-18 0 -43 -8q-66 -5 -66 -22l-4 -20q8 -43 8 -56v-68q0 -5 -28 -24q8 -25 8 -32q0 -24 -64 -48q-96 8 -96 24q0 18 10 64q-7 28 -19 32q-10 3 -10 11v3q2 10 16 25q11 11 11 26v8q-4 20 -31 65v12q31 52 31 62l-12 20v12q18 0 68 64q33 0 60 20q28 0 56 -16q17 0 60 32 q8 4 12 4zM506 -53q37 -20 44 -40q-42 -49 -52 -49q-36 -10 -52 -10q-18 10 -20 20q36 31 40 69q9 11 18 11h2q10 -1 20 -1zM474 -160h4q48 0 48 -16v-20q0 -19 -56 -24q-12 20 -12 32q6 28 16 28z" />
<glyph unicode="8" horiz-adv-x="1297" d="M661 1401h3q14 0 40 -29h4q25 0 60 4q21 0 64 -36q128 -45 128 -88q84 -14 84 -60v-48l24 -32v-44q0 -17 8 -32q0 -138 -60 -208q0 -20 -48 -48q-52 -37 -52 -56q0 -33 36 -40l52 -28q0 -26 60 -96q0 -43 44 -76l12 -16q-8 -26 -8 -36q8 -13 8 -24q-8 -26 -8 -36v-4 q16 -59 16 -64v-4l-40 -84q-20 -60 -52 -60q0 -4 -16 -4h-12l4 -36q-68 -80 -120 -80h-16l-8 4l4 8v4h-8q-7 0 -16 -40l-32 -12q-52 8 -52 40q21 54 84 88q33 7 64 42q28 30 32 74q41 19 44.5 27t19.5 31q3 19 7 44q-6 33 -10 40q-2 2 -2 5q0 6 6 15q7 12 7 48v9 q-13 61 -64 61q-19 32 -40 48q-33 12 -73 19q-31 49 -59 49q-30 -8 -36 -8l-64 32q-40 0 -56 -16q-6 -6 -12 -6q-10 0 -19 16q-9 14 -36 14q-24 0 -61 -10q-13 6 -32 26q-35 -20 -72 -20h-16q-2 0 -20 20h-4q-9 -1 -60 -64q-124 -30 -124 -68q-28 -19 -28 -48q0 -13 -36 -20 l-20 -44q12 -20 12 -32q-9 -36 -32 -36v-12q12 -15 12 -28v-8q-8 -39 -8 -44q5 0 24 -28v-12q0 -15 -20 -36q-44 11 -44 76q0 6 -20 32q0 12 20 56l-25 19q1 39 9.5 45t15.5 20l-19 45q0 11 11 18q9 5 9 44v8q44 17 69 37q14 43 25 54l49 12q10 32 22 32q28 10 30 25 q0 15 -86 71q-8 0 -38 86q-44 16 -44 68q0 6 4 56q-11 41 -11 53v20q33 37 35 57q1 15 1 25v7h-1q0 12 15 28q35 7 48 67q14 24 81 47q63 51 112 64l28 -16h4q31 36 48 36l24 -4q20 -5 26 -5t47 12q11 6 24 6t29 -6q30 -11 66 -11q13 3 25 9zM404 1224q0 6 -12 12 q-9 -1 -52 -48q-92 -7 -92 -32q0 -60 -84 -120v-16l44 -36v-12l-28 -36q11 0 44 -60q13 -5 28 -20q13 -4 23 -4q7 0 12 3q6 4 11 4q2 0 5 -1q5 -4 21 -58q0 -16 32 -16q10 0 32 32q28 0 68 -44q25 0 48 20h12q12 -16 80 -28l42 30q23 0 82 -32l31 6q53 23 65 56 q100 34 100 56q0 16 28 40v16q-24 34 -24 52v12q20 30 20 72q-7 32 -16 32h-52q-29 0 -32 12q12 37 12 52q-12 28 -24 28q-28 -16 -52 -16q-34 0 -60 40q-18 8 -28 12q-2 1 -4 1q-11 0 -32 -21h-8q-39 28 -56 28h-8q-7 0 -35 -20q-9 -6 -16 -6q-13 0 -13 30l-20 20h-4 q-41 -34 -88 -40zM116 176q16 -11 60 -16q12 -20 12 -32q-3 -28 -12 -28h-20q-44 0 -44 60v8zM256 88h40q25 -28 32 -28q13 8 20 8q6 -16 20 -24l12 8h4q16 -42 16 -60q-8 -18 -16 -20q-72 48 -144 48q-19 0 -40 36q0 32 56 32zM696 76q64 -5 64 -20q-10 -84 -20 -84 q-3 0 -24 4l-40 -4q-24 34 -24 60q19 44 44 44zM456 60q36 -23 36 -44q-4 -21 -4 -24q4 -7 4 -16l-20 -4h-8q-5 0 -28 32v28q15 28 20 28zM592 52q24 -4 60 -72l-28 -16q-30 8 -32 8q-22 -4 -32 -4q-16 16 -16 24q0 50 48 60z" />
<glyph unicode="9" horiz-adv-x="1131" d="M396 1414q21 -13 64 -24h8q49 20 52 20h24q43 -36 64 -36q0 5 24 20q22 -27 54 -55q41 -11 68 -20q19 -31 47 -75q55 -28 80 -41q-1 -17 -1 -31q0 -26 4 -45l34 -29l7 -33q7 -35 19 -35q4 0 4 -4q0 -9 -20 -40q27 -49 27 -78q0 -9 -2 -16q-8 -20 -8 -40q0 -10 2 -19 q5 -30 5 -43q8 -79 8 -96q0 -23 -16 -116v-12q12 -15 12 -24q-4 -14 -12 -24l-9 -16q-19 -19 -19 -48v-8q8 -54 16 -75q3 -8 3 -15q0 -11 -8 -18q-13 -12 -31 -100l-60 -136q-19 -5 -32 -72q0 -50 -80 -92q-2 -14 -52 -32q-18 -56 -76 -56q-13 8 -24 8q0 -27 -88 -48h-20 q-4 0 -32 8q-27 -52 -60 -52h-56q-4 0 -48 -16h-24q-2 0 -28 24h-16l-40 -12h-16q-40 8 -40 24q23 56 32 56q44 -24 56 -24q18 0 80 52q48 -23 48 -40h12q0 25 68 52l24 -12q17 0 56 16v24q1 8 8 8q4 0 60 -20h20v24q20 46 20 48q4 21 14 22l26 10q8 0 11 15.5t21 24.5h16 q40 26 40 52v16q-1 4 -1 8q0 18 23 21q18 2 18 27q0 11 -4 28q0 38 52 44v20q-4 12 -16 53q11 27 26 63q8 21 8 31q0 7 -4 10q-10 5 -10 15q6 16 6 36v17q-4 30 -15 31h-1q-12 0 -40 -15q-30 -17 -50 -17q-13 0 -32 -24q-2 0 -24 24q-34 0 -56 -48q-20 -24 -44 -28 q-42 17 -56 36q-33 0 -40 -20q-4 -10 -12 -10q-9 0 -24 12q-28 22 -32 22q-49 -16 -60 -16q-60 22 -60 40h-8l-38 2q-22 37 -59 66q-33 33 -83 52q-24 64 -24 80v4q-30 42 -60 68l16 24q-15 22 -24 76q-7 0 -8 20v28q15 24 20 24l-4 40v48q16 45 24 88q28 42 28 104 q41 15 72 60q0 45 76 60q32 0 76 56q3 0 24 8q26 -8 36 -8q44 16 64 44zM356 1278q0 -28 -16 -28q-36 0 -47 -28q-7 -20 -25 -20q-9 0 -20 5h-16q-8 0 -36 -98q0 -32 -24 -32q-44 0 -44 -39q-36 -23 -36 -43q23 -27 23 -41q0 -6 -5 -10q-18 -12 -18 -40q7 -8 12 -67 q36 -37 36 -39v-4q-8 -27 -8 -31q28 -22 28 -67q8 -17 56 -43l44 -36q24 -63 64 -63q3 1 6 1q7 0 10 -8q3 -11 32 -40q20 3 69 30q14 8 25 8q19 0 26 -26q56 32 65 58l63 8q70 13 91 41q6 42 7 58q0 14 11 14h3q2 -1 4 -1q14 0 36 12q21 10 21 47q0 8 -1 18q18 12 18 49 q0 21 -6 50q17 6 24 20q0 14 -8.5 26.5t-8.5 16.5t21 31q-16 12 -32 99q-8 0 -44 47q-41 0 -56 59q0 35 -32 35q-21 -3 -32 -3q-1 0 -2 1q-10 0 -62 57q-17 0 -40 -15h-8q-22 0 -56 27q-20 -12 -28 -12q-30 8 -32 8q-11 -14 -21 -14q-14 0 -27 22h-4z" />
<glyph unicode=":" horiz-adv-x="567" d="M210 997q14 0 68 -20l28 4q1 -10 64 -64l36 -80v-8q-16 -44 -16 -48v-56q-32 -38 -36 -88q-18 -23 -180 -56q1 -9 1 -15q0 -13 -6 -13v1q-9 0 -30 12.5t-21 50.5l-28 -4q-16 37 -64 56q-14 0 -28 64q-8 0 -8 24q20 7 20 36q0 25 -28 56q54 55 96 104q111 44 132 44z M266 405q48 -20 72 -92q8 0 8 -20v-28h24q12 0 20 -36v-8q0 -13 -12 -44q4 -35 4 -40q0 -25 -56 -80q0 -59 -92 -96q-20 12 -40 12h-8q-44 -16 -48 -16q-20 0 -92 88q-36 0 -36 32q-20 6 -20 52v48q-20 27 -20 36l40 32q23 72 48 72q16 16 36 28h32q18 44 56 44 q20 -12 28 -12q25 0 56 28z" />
<glyph unicode=";" horiz-adv-x="560" d="M206 906q63 -20 104 -20q21 0 28 -40q56 -44 56 -96v-8q0 -22 -20 -80q0 -53 -28 -92q0 -61 -44 -72h-4l-56 32q-32 0 -52 -28q-47 0 -68 60q-4 12 -24 12q-8 -9 -18 -9q-12 0 -26 13q-13 6 -48 116v36q-8 58 -8 60q95 92 124 92q35 0 84 24zM162 310q29 -48 36 -48 q3 0 24 -4l32 8q64 -30 64 -76q52 -35 52 -72v-4l-12 -20v-36l-20 -60q16 -24 16 -36q0 -19 -36 -44q0 -35 -40 -60v-4q8 -13 8 -24v-28q-71 -100 -88 -100q-20 0 -48 -60l-84 -40l-40 52q0 29 28 56h32q0 37 84 80q12 14 12 76q-8 22 -8 32q4 50 4 52h-4q-20 0 -36 -36 q-84 16 -84 40q-56 5 -56 28q8 36 8 52q0 19 -32 56q0 29 40 96q4 7 4 20l-4 20l120 40v28q0 8 28 16z" />
<glyph unicode="=" horiz-adv-x="1205" d="M704 920q30 0 48 -44h8q28 28 36 28q18 0 84 -36q9 27 48 44q76 -18 76 -72q0 -65 -44 -104l-50 -18q-33 26 -38 26q-17 -28 -52 -28h-20q-44 8 -44 40h-4q-28 0 -48 -28l-28 -4q-12 20 -12 32h-12q-7 0 -120 -24q-21 28 -52 28q-29 -16 -36 -16q-28 8 -48 8h-8l-40 -12 q-8 0 -48 24q-10 3 -19 3q-4 0 -8 -1l-12 -5q-18 -21 -29 -21h-24q-4 0 -42 15q-27 -7 -105 -9q-69 24 -69 50q-7 0 -8 20v52q0 5 20 20q4 0 60 -20q57 24 60 24h16q36 -12 40 -12q0 27 52 32q39 -12 48 -32q10 0 60 20q10 0 32 -4l100 12q26 -12 36 -12h40q11 0 76 -12 q42 28 80 36zM515 503h20q45 0 45 -58h17l29 24l82 -24q47 53 58 53q40 0 78 -58q25 39 61 39q23 -11 66 -54q7 -5 27 -18l-10 -40q-26 -37 -50 -54q-8 0 -28 10q-30 -20 -37 -20q-12 25 -25 25q-60 -10 -78 -44q-9 16 -9 24h-4l-24 -5q-25 20 -37 20h-13q-62 -24 -78 -24 q0 7 -25 24h-24l-29 -24q-51 34 -74 34q-24 0 -70 -20q-50 15 -62 15l-37 -5q-4 0 -61 24q-14 0 -62 -34q-44 26 -87 34q-20 -14 -28 -14q-17 39 -42 39q-4 34 -16 63q21 58 82 58q14 -30 41 -48q42 48 70 48q33 -17 33 -24v-29q34 1 70 39q20 -19 74 -39q0 7 21 19h25 l41 -14h4q29 34 57 43q0 15 9 15z" />
<glyph unicode="&#x3e;" horiz-adv-x="2192" d="M471 1534h48q301 0 465 -144q45 -52 45 -95q0 -151 -335 -227q-64 -5 -64 -12q38 -71 93 -99v-7q0 -6 -6 -6q-117 0 -256 108q-230 0 -417 112q-80 63 -80 131q0 150 335 223q82 16 172 16zM-26 1304v-12q0 -145 341 -217q42 -7 156 -16q130 -105 236 -105h3v3 q-55 24 -92 108q401 66 401 233q0 122 -274 201q-137 29 -249 29q-271 0 -446 -112q-76 -61 -76 -112zM356 1457h7q17 0 25 -15v-32q0 -29 -25 -29h-16q-20 13 -20 32q0 3 4 3q-4 6 -4 10q5 31 29 31zM509 1457q19 -4 19 -9q0 -6 -6 -6h-13l-6 3v-48l-3 -16h-4q-4 0 -9 9 q3 28 3 45q0 4 -25 13v3l6 3h25q8 0 13 3zM270 1454h42q6 -1 6 -6q0 -6 -6 -6h-32q0 -8 -4 -13q10 -3 10 -7l6 4q4 0 4 -4l6 4h3q7 -1 7 -7v-6h-32l-4 -16q4 -6 4 -10l-10 -6q-6 0 -6 9q0 4 3 10l-3 19q0 3 3 3l-3 7q0 7 3 13q-3 6 -3 9zM404 1454h3q13 -7 35 -57h3q0 3 4 9 q-4 22 -4 36v9h10v-64q0 -6 -6 -6q-4 0 -39 48v-42q0 -6 -6 -6q0 6 -6 6l3 16q0 5 -3 39h3l-3 6q1 6 6 6zM595 1454h29q22 0 22 -19l-3 -13q3 -16 3 -32l-12 -9h-39q-6 0 -6 6v61q1 6 6 6zM659 1451h10q18 -25 22 -25h3q0 9 19 25h10v-6q-27 -35 -29 -35q0 -4 3 -4 q-3 -25 -9 -25q-7 0 -7 9l4 23q-4 0 -26 32v6zM347 1445l-7 -26q0 -19 19 -29q23 3 23 29q-7 26 -13 26h-22zM602 1442v-16h28q0 6 4 6q-5 13 -10 13zM602 1413q0 -7 -3 -7q3 -5 3 -12h25q5 0 10 12q-11 7 -19 7h-16zM755 1333h13q28 -5 28 -25h-3q3 -7 3 -10q0 -45 -35 -45 q-20 0 -25 29v19q0 25 19 32zM47 1330h9l4 -32v-10q0 -3 -4 -3q0 -19 32 -19q13 0 13 -6q0 -7 -6 -7h-16q-35 0 -35 10v29q0 3 3 3l-3 6v13zM117 1330q10 -3 10 -19v-3q0 -8 -4 -13q4 -6 4 -10q-4 0 -4 -3q13 -16 16 -16h10q5 0 10 10v48q0 6 6 6l9 -13v-6q0 -3 -3 -3l3 -7 v-3l-6 -10h3q0 -35 -35 -35q-25 9 -25 26q0 3 3 9l-3 20v16q1 6 6 6zM283 1330h3q13 -6 35 -73l-6 -4q-22 23 -35 23h-7l-16 -19h-3q-6 0 -6 6q9 12 25 48q-6 0 -6 6zM353 1330h6q18 0 23 -13v-6h-3q-12 9 -23 9q-16 -2 -16 -9v-3q0 -8 39 -13l6 -10v-16q-8 -16 -26 -16h-6 q-17 0 -26 16v3q1 7 7 7q7 -16 22 -16q15 6 16 13v9q-45 6 -45 19v10q9 16 26 16zM525 1330q4 0 10 -3l22 3q19 -7 19 -26q0 -5 -19 -22q0 -3 16 -22q0 -7 -6 -7q-3 0 -29 32h-6q0 -3 -4 -9q4 -7 4 -10h-4l4 -6q0 -7 -7 -7q-6 0 -6 7v60zM618 1330h3q11 0 32 -70q0 -7 -7 -7 q-14 23 -32 23h-12q0 -17 -10 -19h-3q-6 0 -6 6q22 39 22 45q-3 6 -3 9zM819 1330q3 0 3 -3l6 3q3 0 3 -3l7 3h3q25 0 25 -26q-9 -19 -22 -19l19 -25q0 -7 -6 -7h-3q-3 0 -26 32h-6l-3 -16l3 -12l-7 -4q-6 0 -6 7v60q0 5 10 10zM908 1330h3q10 0 32 -70q0 -7 -6 -7 q-15 23 -32 23h-13q0 -2 -7 -19h-6q-6 0 -6 6q22 40 22 45q-3 6 -3 9zM184 1327q6 -1 6 -7v-19h4l35 26h3q6 -1 6 -7q-29 -20 -32 -28q32 -23 35 -32q0 -7 -6 -7h-3l-38 32h-4l4 -16v-9q0 -7 -7 -7q-6 0 -6 7v25q0 7 -3 13l3 6l-3 20zM452 1327q6 0 6 -29l38 29q7 -1 7 -7 q-29 -25 -29 -28q2 0 32 -29v-3q0 -7 -6 -7l-39 32h-3v-25q0 -7 -6 -7q-7 0 -7 7v16q0 3 4 3l-4 6v35q1 7 7 7zM669 1327q6 -1 6 -7v-19h3l35 26h4q6 -1 6 -7q-29 -20 -32 -28q32 -24 32 -29v-3q0 -7 -6 -7l-39 32h-3l3 -16v-9q0 -7 -6 -7q-7 0 -7 7v25q0 7 -3 13l3 6l-3 20 zM745 1295q0 -29 32 -29q8 10 10 29q0 25 -23 25h-6q-6 0 -13 -25zM532 1317v-19h22q6 0 6 6v10l-16 3h-12zM822 1317v-19h22q6 0 6 6v10l-22 3h-6zM276 1285h7q6 0 6 7q-3 5 -3 12q-10 -3 -10 -19zM611 1285h7q6 0 6 7q-3 5 -3 12q-10 -3 -10 -19zM898 1288v-3h10q6 0 6 7 q-3 5 -3 12q-4 0 -13 -16zM461 1209q35 0 35 -48q0 -30 -41 -32q-22 7 -22 41t28 39zM385 1206h22q4 0 16 -16v-13l-41 -35l6 -3h29q6 -1 6 -7l-6 -3h-45q-6 0 -6 6q0 17 48 45v3q-7 13 -20 13q-4 0 -19 -16h-6v10q0 4 16 16zM528 1206q5 0 10 -10v-3q0 -3 -3 -3q0 -4 3 -4 l-3 -32q0 -15 16 -15v-10h-7q-3 0 -3 3l-6 -3h-29v10q19 0 19 6v41l-16 -9l-3 6v3q0 6 22 20zM586 1202h25v-9h-12q-18 0 -23 -13v-6q18 3 26 3q14 -5 22 -19q0 -32 -29 -32h-6q-26 0 -26 32v9q0 20 23 35zM445 1183v-16q4 -24 13 -25h16q9 0 13 25q0 29 -22 29 q-13 0 -20 -13zM576 1158v-13q3 -10 19 -10h7q4 0 9 10v9q0 5 -16 13q-19 -4 -19 -9zM1026 1036h19q79 0 169 -188q170 -132 223 -178q46 0 137 -45q109 -37 109 -83q8 0 16 -32v-3l-16 -3v-3q91 -45 102 -45q242 -55 242 -112q-6 -3 -10 -3q-27 10 -41 10v-3h-3 q-11 0 -182 44q-60 13 -67 13h-3v-3q186 -134 245 -153q32 -19 32 -26l-6 -3h-6l-7 3q0 -13 -6 -13q-46 8 -61 16q0 -16 -9 -16q-8 0 -32 13q0 -9 -7 -9q-30 7 -41 22l-16 -3q-40 21 -41 25l-7 -3h-3l-54 22q-23 -3 -38 -3q-136 35 -169 35q-16 0 -42 -25q-3 0 -57 22h-16 l3 -6v-3l-3 -7q4 0 9 -9q0 -10 -9 -10l3 -51q-64 -102 -64 -150v-25q2 -20 10 -20h28q23 -12 23 -38v-3h-3q-15 26 -20 26h-12l-13 -10h-3q-6 0 -29 10q-29 -47 -41 -48q-7 3 -10 3q-10 -16 -10 -32h-6v10q0 21 26 57v3q-11 -6 -20 -6l-9 6l-19 -16h-3v3q0 19 41 32 q43 21 57 80q7 34 20 83l-10 64q3 6 3 9q0 4 -3 10l3 19v3q0 5 -25 19h-7q7 -11 7 -25q0 -3 -13 -13l6 -16q-5 -13 -9 -13l-23 19h-9l6 -15l-6 -4h-7l-12 10q3 -27 3 -42q0 -42 -80 -114v-10q1 -6 7 -6l47 12q19 0 23 -25v-3h-7q0 7 -12 16q-4 0 -20 -23l-6 -3q-33 3 -51 3 q-10 -6 -19 -6h-10l-22 6l-13 -3l-16 3q-6 -3 -9 -3q0 5 -10 10q-5 -13 -9 -13h-4l10 32h-6q-9 0 -20 -6v6q4 9 20 9l38 -12q43 0 54 19q61 45 61 70q-18 146 -67 246q-77 117 -99 130q-42 38 -42 86v7q0 7 4 13q0 12 -26 70l10 99v3h-4q0 -10 -6 -10l-3 7l3 38 q-6 64 -41 64q-112 9 -112 19q16 31 64 48q39 12 73 19q6 -3 10 -3q53 31 86 31z" />
<glyph unicode="?" horiz-adv-x="1197" d="M483 1421h32q32 -9 44 -32q15 20 68 20q32 0 76 -28h8q15 12 36 12q11 -29 48 -44q55 0 168 -136q44 -79 44 -144q16 -18 16 -36v-8l-20 -24q4 -27 4 -44q-20 -24 -44 -76q-78 -63 -84 -96q-44 -16 -112 -76l-40 -12h-32q-46 -48 -64 -48h-28q-32 -17 -32 -52v-76 q12 -39 12 -56q0 -35 -4 -160q-38 -52 -64 -52q-27 27 -68 48v36q20 49 20 52v24q0 3 -36 36v8q36 82 36 96q0 21 -4 68q0 44 64 44q0 26 36 64q24 31 92 48q33 60 80 60q30 0 56 56q16 0 68 52h24l8 -4l4 8v32q0 8 -24 68v24q12 19 12 32q0 21 -64 52q-44 64 -48 64 q-19 -40 -24 -40h-8q-52 5 -52 40q0 5 -24 16h-4q-30 -40 -40 -40q-32 10 -32 16v8l8 12q0 6 -40 20q-13 -8 -24 -8h-20q-7 9 -72 16q-26 -3 -68 -56q-20 0 -20 8q-43 0 -108 -44v-4q60 0 100 -108q0 -34 24 -48q12 0 40 -36v-4q-1 -14 -68 -72q0 -29 -72 -56q-33 16 -36 16 q-18 -8 -52 -8h-28q-20 0 -72 72q-40 24 -40 72q16 33 16 36q-12 20 -12 32v8q0 14 16 32v48q52 120 88 120q53 34 80 92q40 12 108 16q0 14 76 20q20 -8 20 -12zM479 217q44 -4 76 -4h4q26 0 68 -48v-20l-8 -12v-4l40 -32v-16q-9 -36 -48 -36q-45 -60 -80 -60h-28 q-17 0 -100 68q-29 0 -36 56q32 15 32 52q16 0 68 52q4 0 12 4z" />
<glyph unicode="@" horiz-adv-x="1690" d="M915 1281l186 -71q59 0 100 -46l80 -29q45 -61 45 -104q111 -61 111 -121q55 -42 55 -59l-5 -20q0 -9 60 -46v-4q0 -25 -55 -42l-10 -21l40 -125q-25 -24 -40 -109l-20 -29l5 -37l-5 -42l10 -25v-4l-60 -38q-59 -94 -86 -121l-160 -71l-70 5l-55 -13q-22 4 -70 63 q-48 50 -96 50q-71 -28 -160 -42q-20 -17 -55 -17l-60 13l-56 -13q-52 30 -115 46q-35 21 -45 50l5 17l-25 88l-35 45v17l30 63v79q0 17 40 58v71q0 18 65 67l20 54l-5 13q0 20 85 41q42 65 61 71q43 0 100 46h30l50 -12l55 12q22 0 75 -58q28 -21 46 -21q27 0 105 46h10 q39 0 65 -59l-60 -104v-12q30 -30 30 -46q-39 -53 -65 -125q2 -12 45 -42v-8q0 -15 -50 -30l-10 -21q32 -95 60 -95v-5q0 -20 -20 -25l-30 5h-10l-25 -21v-30q0 -43 105 -62h5q70 0 120 104q43 31 95 104q-30 40 -30 55q56 57 56 71v29l-31 75l11 46q-41 55 -41 75 q0 76 -95 129l-20 63q0 15 -80 41q-63 53 -130 75q-28 30 -56 30q-21 0 -55 -34l-5 -4h-5q-19 0 -45 33h-15l-45 -12l-55 29h-5q-40 0 -40 -54l5 -13q0 -27 -45 -41q-19 0 -66 50h-15q-95 0 -120 -142l-10 -25v-4l5 -42l-20 -13h-25l-20 5q-33 0 -45 -71q0 -25 -85 -29 q-18 0 -30 -25q3 -44 35 -133v-13q-7 -11 -45 -29q-31 -26 -31 -71q0 -18 46 -58v-8q-40 -37 -40 -55q0 -25 55 -91q0 -55 65 -71l5 -4v-13l-25 -46v-4q0 -11 60 -88q0 -42 126 -58q13 -59 68 -59q20 0 45 8q0 -23 96 -64q91 7 127 20q70 -19 93 -19l61 6h5q14 0 36 40 q12 -3 24 -3q54 0 111 54h10q44 0 110 -22l10 -41q0 -51 -60 -100l-20 -4l-25 4l-85 -38l-55 5q-46 -30 -61 -30l-85 9l-65 -17q-26 17 -301 33q-31 0 -60 50q-44 0 -165 96q-102 107 -146 138q-50 58 -50 117q-30 22 -30 41l5 50q-40 49 -40 76l5 25l-10 37q0 34 30 159 q0 80 40 137q0 83 60 125q66 46 66 80q0 78 80 91q22 0 65 96q120 88 175 88q62 0 96 37h5l75 -4l75 17l55 -4zM710 818h-45q-40 -11 -40 -67q0 -14 -40 -54l-26 -79l36 -25v-13q-64 -32 -66 -41v-4q0 -14 15 -30v-21l-25 -29v-12q0 -56 116 -125h10q18 0 25 50 q61 11 105 54l85 17q15 10 50 108q0 17 -10 17q14 32 35 54v12l20 130q-56 112 -115 112q-1 9 -35 13q-15 0 -15 -38q-40 -29 -80 -29z" />
<glyph unicode="A" horiz-adv-x="1360" d="M536 1107q-15 -38 -15 -47l1 -48v-2q0 -18 -30 -95q18 -23 19 -35v-8l-52 -43l-26 -10v-4q16 -17 16 -32q-25 -32 -25 -108q-15 -37 -25 -48l4 -8v-32q-9 -35 -9 -63v-13q0 -23 16 -58q24 12 51 12q5 0 11 -1l36 -16q62 26 86 26l27 -14l17 -7q22 0 56 4q18 -6 33 -13h8 q15 31 15 48v16l-32 34l29 34v12q0 43 -47 89l-12 20v12l5 55q-5 17 -6 64q-35 67 -56 94q2 38 2 59q0 14 -1 21q-2 15 -17 39l-5 21l-10 48q-29 38 -49 38h-2zM60 61q12 12 36 12h6q1 -1 3 -1q25 0 45 22q18 17 24 31l18 84l32 28l8 153q35 47 62 90v4q0 24 -18 64l-1 8 q36 33 36 84q10 12 10 23q0 2 -1 5v80q15 22 65 79v4q0 4 -8 31q0 18 1 53q-4 21 -4 35q29 11 29 66v11q16 48 16 52v32l-10 12l-1 16q44 75 45 130l24 23l10 49q40 11 45 58l45 13q31 -5 46 -43q30 -46 30 -78v-24q34 -53 51 -69q-2 -31 -2 -53q0 -17 1 -28v-44l32 -37 l3 -36q0 -41 12 -56l1 -44q36 -31 36 -44q-12 -49 -12 -77q0 -6 1 -11q12 0 20 -36v-28q6 -9 19 -48q19 -1 40 -21v-4l-16 -24q22 -59 23 -80q0 -33 12 -44v-16q-6 -28 -6 -32l41 -28v-20q-25 -32 -28 -44q33 -39 43 -88q10 0 19 -80q12 -6 12 -25v-36q1 -10 27 -30l19 1 q18 3 31 3q10 0 25 -23q54 19 84 19q24 -8 44 -26q0 -21 9 -47l-23 -22q-17 -24 -54 -24l-21 12h-20l-31 -27h-16q-12 7 -88 17q0 4 -4 4h-8q-21 -16 -48 -16q-25 18 -38 18h-2q-27 -1 -72 -13q-13 0 -42 10q-15 -6 -26 -6q-25 0 -28 32l5 31q12 30 45 30q7 0 15 -1 q0 12 42 27l37 -7l23 23q-21 26 -21 33q0 13 1 116q-49 21 -64 60q-3 29 -18 32h-2q-13 0 -52 -31q-55 28 -79 34q-29 -25 -42 -25q-38 28 -46 28q0 -11 -42 -27h-12q-33 11 -54 24q0 4 -8 4q-24 -18 -40 -19l2 -51l-33 -21v-40q-13 -17 -13 -32l6 -13q6 -5 6 -11 q0 -5 -3 -11q-17 -25 -17 -38t16 -14q14 -10 28 -10q12 0 24 8l12 3q74 -18 85 -31l8 -35q2 -6 2 -12q0 -14 -10 -25l-26 -20h-4q-12 0 -23 20t-20 20t-25 -43q-13 -7 -23 -8h-16q-8 0 -9 8q-18 20 -34 24q-41 -39 -53 -39q-23 10 -71 24l-8 4q-6 -4 -45 -18q-49 4 -87 15 q-7 -7 -9.5 -13t-13.5 -6q-27 25 -27 44v20q1 8 8 8q20 23 34 23q4 0 8 -2q5 -3 11 -3q10 0 19 8z" />
<glyph unicode="B" horiz-adv-x="1278" d="M256 1423q39 -11 69 -29q13 8 35 17l21 -9l12 -8h4q11 9 69 18q34 -2 63 -26q80 20 88 20q10 0 40 -16q2 0 44 12h4l64 -28l40 4q45 0 80 -52q92 -40 92 -68q4 0 12 -16v-56q0 -43 40 -104v-8q-8 -28 -8 -32q16 -28 16 -40q-44 -48 -44 -100q-63 -156 -100 -156v-8 q0 -12 68 -52q49 -60 80 -88q0 -48 20 -48q28 -28 28 -60q0 -34 4 -120q5 0 24 -28v-12q-52 -70 -52 -128q-38 -60 -72 -60q0 -60 -80 -80q-27 0 -76 -60q-26 -8 -36 -8q-27 17 -64 20q-26 -28 -36 -28l-76 28q-44 0 -60 -12h-36q-7 0 -52 -20q-40 0 -72 28q-20 -12 -40 -12 h-68q-46 -20 -60 -20q-32 24 -76 32h-8l-12 -8h-16q-38 20 -40 20q-52 -12 -96 -12q-20 22 -20 24v56q8 10 8 16q14 44 36 44q37 0 76 -40q28 16 40 16q4 -12 24 -12q79 21 79 70q0 6 -1 12l-10 54v21l24 47v16q-18 68 -18 76v28q17 33 26 44l-12 40q4 50 4 52q-5 0 -16 20 v4q-10 40 -16 70q24 46 24 58v12q-16 48 -16 52v4q0 14 21 74l1 21q-26 41 -26 82v11l24 45l-5 13q-31 37 -31 50q40 54 40 100v12q-36 20 -44 48q0 13 -16 36q-61 -32 -68 -32q-8 0 -56 28q0 -8 -8 -8h-24q-30 -15 -40 -15l-32 55v48q0 40 60 56q44 -24 56 -24q0 8 68 16 q21 -4 40 -4q42 11 71 17zM514 1286q-22 -27 -46 -41l-14 -6q-27 2 -57 23q-34 -13 -34 -32q8 0 17 -80v-4q-30 -32 -30 -112q-9 0 -9 -28q9 -28 9 -45q0 -6 -1 -11l-8 -28q22 -23 35 -64v-28q24 -40 30 -40q20 0 69 36q52 -13 52 -64q44 48 52 48q42 0 51 -36q0 -4 5 -4 q13 44 47 44q0 8 74 12q16 0 21 52q33 12 69 12h26l16 63l36 57v36q-22 24 -22 28q0 7 5 48q0 40 -39 40l-43 -4l-5 8q5 22 5 32q0 24 -74 56q-7 4 -17 4q-4 0 -30 -20h-9q-19 27 -60 44l-53 -24zM535 710q0 -6 -35 -28h-8q-17 12 -27 12q-105 -55 -105 -96q-9 0 -12 -28 q16 -28 16 -40v-12q-12 -15 -12 -28q0 -17 27 -60q-19 -33 -19 -44l8 -12v-16q-10 -20 -16 -20l4 -36q9 -22 9 -35q0 -17 -13 -21q0 -28 35 -52q10 -50 23 -84h39q14 0 32 16h4l54 -40q43 24 55 24l70 -24q31 22 31 40q-1 3 -1 5q0 6 7 6q8 0 26 -11l23 -16q42 0 62 32h12 l27 -8q63 59 63 64v40q0 36 58 64q0 21 20 80l-16 44v8q16 21 16 36q-20 11 -20 16v44q-11 0 -78 56v36q0 9 -35 20l-47 -4q-30 11 -66 48h-4q-4 0 -47 -16q-19 28 -31 28q-53 -36 -66 -36q-26 48 -63 48z" />
<glyph unicode="C" horiz-adv-x="1147" d="M546 1386q14 0 100 -28q19 0 96 -68h8q0 6 16 16l28 -20q37 0 48 60q37 28 44 28q48 0 48 -28q16 -58 16 -88v-4q0 -12 -24 -64q-12 -31 -12 -44v-40q0 -33 -20 -80v-36l32 -48v-28l20 -116v-20q0 -21 -20 -40q-53 0 -76 40q-60 62 -60 64q0 11 20 44q-38 96 -64 96l-4 8 v16q0 22 4 56q-12 38 -64 100l-12 32h-24q-60 18 -60 56q0 8 -20 16h-4q-15 -12 -28 -12q0 6 -32 28h-28l-60 -40h-8q-4 0 -56 10l-60 -76q-60 -40 -60 -77q0 -8 3 -16q-9 -14 -57 -81q-16 -23 -16 -32q5 0 20 -20v-4q-39 -39 -44 -60q-4 -110 -4 -172q0 -22 -36 -68v-4 q20 -59 20 -80l16 -32q0 -27 -16 -48q17 0 40 -104q28 -28 28 -96q10 0 20 -108l8 -4q32 8 48 8q76 -85 76 -96l40 4q36 0 54 -52v-16q-9 -52 -52 -52h-8q-77 36 -116 36t-96 148q-32 32 -68 32q0 43 -40 148v52q-33 14 -40 25q-4 87 -27 130l7 89q8 27 8 56q0 38 -13 79 q2 25 25 117l-4 78v2q0 15 36 73q32 36 32 79q35 45 64 124q96 64 96 72q0 27 116 60l32 16h8q13 -9 40 -16q25 20 116 20zM908 470h4q6 0 28 -28l10 -32q0 -20 2 -60l-5 -18q-22 -34 -33 -90q-6 0 -28 -28v-36l-96 -110q-94 -66 -164 -106h-40q-17 0 -44 4l-72 -16h-16 q-14 9 -24 40q18 72 48 72q15 4 36 4q9 0 24 -12q39 16 128 32q0 53 60 88h12l8 -4q0 19 48 92q14 54 14 80q49 65 52 94q0 34 48 34z" />
<glyph unicode="D" horiz-adv-x="1395" d="M337 1415q67 -32 80 -32h8q24 16 40 16q56 -20 80 -20q33 24 40 24l56 -16h24q68 0 84 -20l48 4h44q20 -32 44 -32q15 -4 44 -4h20q39 -49 112 -100q24 -21 44 -76v-44q9 -26 56 -64v-36q40 -25 40 -28q-16 -44 -16 -68v-24q17 -18 17 -49q0 -12 -3 -27l-10 -28 q32 -36 32 -40l-32 -60q9 -29 22 -54l-10 -54v-8q0 -9 -32 -16l18 -43q2 -2 2 -5q0 -11 -20 -32l36 -48v-4q0 -5 -30 -40q-23 -21 -34 -64q-11 -48 -11 -64v-19l-17 -9v-8q12 -36 12 -40q-18 -24 -112 -68q-39 -96 -80 -96q-29 0 -128 -40q-17 7 -36 24h-12q-4 0 -32 -8h-28 q-34 32 -37 52l3 16q9 10 34 20q6 17 20 24q9 0 40 -16q15 0 72 28l28 -4q8 4 12 4l16 -8q10 52 44 52q48 19 48 24q0 48 20 48q17 0 44 44v4l-16 44q0 14 36 76v12l-8 64q0 37 40 88v4q-18 21 -28 88q-4 0 -4 4v28q7 6 24 60v12q-24 34 -24 48v28q0 3 20 20v4 q-12 33 -31 61q3 74 3 87q-36 15 -36 68q-14 42 -64 60q-28 16 -28 20q0 14 16 32q-46 17 -56 21l-13 22q-50 -3 -55 -3q-23 18 -41 18h-3q-20 -2 -28 -2q-63 16 -88 16h-32q-17 -20 -40 -32l-28 8q-32 -10 -51 -28q-18 -18 -26 -79q-1 -28 -13 -29l-22 -4v-4q19 -27 36 -59 l14 -22q-19 -75 -19 -79l2 -46q15 -50 15 -54v-8q-32 -30 -32 -76l5 -26l17 -32l-11 -43l-19 -63l1 -18q7 -34 11 -54q0 -18 -12 -36l-8 -21q8 -25 22 -71q0 -2 -10 -36l-14 -64q10 -36 10 -40l5 -17q-1 -14 -1 -26q0 -66 19 -84l28 -19l41 -18q19 12 60 12l38 -39 q-6 -60 -40 -72h-7q-33 0 -67 27q-23 0 -44 -16h-8q-45 12 -68 12q-21 -36 -80 -36q-23 36 -28 36q-47 -36 -76 -36q-28 6 -28 16v20h-8q0 -29 -96 -36q-8 0 -60 32q-34 0 -52 36v28q18 37 164 44q31 -11 36 -20q38 0 56 40q3 3 9 3q11 0 30 -8l21 -3h4q12 0 12 39 q20 52 20 73l-19 36q19 30 29 55l-11 44q-6 24 -7 32q-7 25 -17 52l9 25q18 52 18 96q0 33 -10 62q24 32 28 74q-6 18 -21 42v15q17 38 17 79v8q0 3 -12 21q-8 2 -17 24l6 18q9 14 19 53q-24 57 -24 60q10 21 32 68q-4 34 -14 42q7 12 18 30q0 11 -36 36q-22 44 -44 56 q-49 -20 -84 -20l-64 25q-23 -10 -43 -10q-31 0 -53 25q-26 10 -28 20v40q49 56 92 56h28q28 0 44 -16l48 12h8q43 -12 76 -12q0 4 36 32z" />
<glyph unicode="E" horiz-adv-x="1322" d="M90 1410q36 -17 36 -20l30 9h12q21 -6 42 -6q23 0 46 7q18 -8 30 -8q22 12 44 12q29 0 64 -24q26 12 48 12q28 -16 40 -16h28q26 16 36 16q20 0 80 -20q17 0 72 20h4q32 -18 32 -60q5 0 32 56q13 0 28 12h44l24 -28q43 32 60 32h4q28 -21 52 -44q0 16 24 24h28 q42 0 60 -56q52 -40 52 -80q0 -19 -12 -28q1 -7 1 -14q0 -28 -14 -46q24 -15 29 -96q24 -37 24 -52q-20 -20 -32 -20v-8q16 -21 16 -36v-24q0 -9 -44 -84q-23 7 -72 60q-30 28 -30 38q0 4 6 6q20 3 20 36q-24 32 -24 48v36q-16 0 -48 44v16q32 4 32 12v4q-5 38 -52 84h-28 q-17 0 -52 24l-8 -4q-39 -8 -68 -18q-43 15 -72 26h-8q-22 -16 -40 -16q-5 0 -28 16h-8q-62 -40 -80 -40l-96 16l-24 -6q-17 -21 -32 -74v-7q0 -29 14 -67q-22 -23 -36 -115l34 -59q-16 -55 -16 -60v-32q47 -32 60 -32l40 16q42 0 76 -28h24q18 0 56 44q26 10 28 20 q-12 0 -12 44q20 10 20 32v32q34 52 76 52q52 0 72 -56q0 -13 -12 -32v-16l8 -12v-24l-16 -24v-12q16 -21 16 -36v-4q-12 -11 -16 -80q-3 0 -16 -24q24 -77 24 -84v-4q0 -20 -32 -64v-24q0 -62 -36 -72q-7 -4 -16 -4q-14 0 -40 28v64l-28 88v44q-42 0 -83 20h-8 q-28 -15 -53 -18q-14 11 -49 11q-14 0 -31 -2q-59 -6 -59 -25q0 -5 4 -11q4 -39 17 -71q0 -18 -20 -36q-11 -15 -11 -37q0 -18 8 -42l19 -86q1 -5 1 -10q0 -24 -17 -48q-11 -16 -11 -38q0 -18 8 -41l14 -37q0 -33 8.5 -51t21.5 -18t77 4l16 -32q12 0 64 32q49 0 56 -64 l32 56l48 4q44 -20 44 -28v-24q-11 -76 -52 -76q0 -8 -28 -8h-12q-28 20 -28 52v12h-4q-32 -20 -44 -64h-8q-34 17 -64 56q-14 -30 -52 -56q-41 4 -64 4l-12 8h-20l-12 -8h-16q-10 0 -48 20q-30 -28 -80 -28q-44 12 -44 40q-14 -12 -56 -32h-4q-112 33 -112 52q-6 13 -6 26 q0 11 4 22l10 26q47 14 76 23q44 3 60 3l28 -24h4q38 55 81 116l9 27l-3 15v5q0 24 -15 85l17 82q3 45 11 74q-4 47 -35 85l16 75q9 20 9 46v10q-2 32 -19 55l-13 25q0 16 15 71l15 50q12 22 12 31l-39 105l-2 24q4 28 12 72l9 55l-28 44l-8 -4l-34 15q-4 0 -4 4l-53 -5 q-4 0 -4 4q-3 -2 -6 -2q-13 0 -35 24h-12q-13 -6 -19 -6q-5 0 -5 4l-8 -4q-56 30 -56 58q36 50 52 50q1 6 48 24zM1050 532h44q56 -41 56 -96q-15 -26 -15 -37l7 -111q-16 -42 -24 -152q0 -7 -36 -20v-4l24 -32q0 -40 -88 -72q-49 -40 -52 -40h-8q-76 24 -76 44l-8 4 q0 -21 -24 -32h-16q-48 7 -48 28q-8 48 -8 56q0 24 88 40q0 8 16 8l13 49q8 18 35 20q60 25 60 67q4 0 4 20l-36 24v8q27 29 48 92l32 44v8l-12 16v24q13 36 24 44z" />
<glyph unicode="F" horiz-adv-x="1313" d="M470 1402h40q37 -3 68 -40v-4q38 20 68 20q17 0 40 -12q49 12 84 36h4l36 -32q24 0 80 20h4q6 0 24 -24q32 12 40 12h4q99 0 148 -140v-4q0 -4 -32 -36v-40q12 0 32 -24v-40l-20 -28v-8q24 -20 24 -24v-4q0 -14 -16 -32v-12q15 -19 28 -116q0 -18 -12 -36v-8q8 -28 8 -32 v-12q-25 -40 -32 -40h-4q-28 0 -88 -4q0 8 -32 28v28q0 5 28 24l-16 48v20q16 92 16 100q-10 0 -16 32q0 18 4 120q-26 80 -84 80q-64 0 -80 32q-22 -16 -40 -16q-51 8 -80 20q-30 -20 -52 -20h-24q-22 0 -52 20q-31 -12 -40 -12h-4l-32 24h-16q-68 -27 -68 -68 q-4 0 -24 -36q9 -21 28 -44v-116q8 -39 8 -44v-8l-64 -108q31 0 64 -64v-36h4q13 0 68 20h4l24 -20h4q25 0 36 44q32 28 40 28q22 0 44 -16q11 0 28 56v52q9 69 28 84q0 19 40 44q64 -28 64 -72v-4q0 -29 -12 -68v-56l8 -12v-48q-12 -38 -12 -60l12 -16v-4q0 -9 -16 -40 q20 -27 20 -44q-16 -28 -16 -40v-44q0 -7 -12 -36l16 -28v-4q0 -92 -64 -92q-32 29 -32 56v12q0 4 8 32q-24 40 -24 56q-8 0 -8 8v36l8 12v8q-26 41 -48 52q-23 -12 -44 -32h-4q-27 40 -48 52h-8q-19 -20 -44 -20h-28q-18 0 -32 16q-13 -8 -20 -8l12 -40q-20 -43 -20 -48 v-28l-32 -40l24 -32v-88q-16 -44 -16 -48l8 -28v-24l-8 -12v-16q12 -15 12 -28q0 -41 -12 -56v-32q22 -36 28 -36q8 10 8 16h8q36 -32 36 -80v-20q-16 -24 -28 -24q-64 7 -64 48v12h-8q-31 -72 -80 -72q-6 0 -40 32l-24 -20h-44q-32 28 -32 48q0 45 64 56h4q3 0 32 -32 q40 0 40 104q24 18 24 52l-16 80q4 85 4 100q-8 13 -8 24v48l28 32q-24 60 -24 88q-12 16 -12 32q16 32 16 52q-20 36 -20 80q28 18 28 40v4q0 9 -4 16q0 4 24 36v4q-16 0 -32 32q12 45 16 96q8 0 8 8q-12 38 -12 48v56q0 35 16 68q-4 7 -4 16q0 4 4 4q-8 13 -8 24v44h-32 q-12 0 -48 20q-37 -24 -52 -24h-32q-95 40 -116 40q-32 20 -32 24v44q30 39 36 40h16q53 -12 68 -20q33 24 40 24q30 0 72 -24q36 20 48 20q40 -11 60 -40q0 -4 4 -4q0 16 64 28h8l32 -20h4q23 52 28 52zM638 98q20 0 40 -20v-80q0 -15 -48 -20q-11 2 -48 40q0 -28 -48 -48 h-12q-40 18 -40 24v44q16 36 48 36q0 4 4 4h36l12 -8h4q42 28 52 28zM42 70h8q60 0 60 -44q-15 -48 -68 -48l-20 28v44q0 5 20 20z" />
<glyph unicode="G" horiz-adv-x="1262" d="M850 1431h4q52 0 72 -96v-32q0 -4 -27 -44q0 -8 15 -100q-39 -45 -44 -80v-4q28 -63 28 -72v-8q-24 -74 -24 -84q-25 -17 -35 -64l-21 -4q-40 23 -40 88q-6 0 -24 80q-26 63 -56 63q-7 69 -39 106q-35 12 -61 20q-23 56 -35 60h-4q-14 0 -57 -25q-35 48 -56 52 q-25 -36 -46 -41l-50 1q-81 -112 -96 -112q-36 0 -36 -36l-32 -32l3 -45q-4 -38 -18 -48l-41 -47v-44q-8 -76 -36 -76v-20q0 -41 -12 -56v-12q12 -36 12 -40v-8q0 -4 -40 -32h-4q-44 14 -44 20t-12 48v76l32 32q-3 0 -24 32v4q0 5 8 44v44q1 20 4 28q32 53 36 56l-4 8v20 l52 144q5 13 68 52q78 112 116 112q42 0 104 48l24 4q25 -10 50 -10q26 0 53 10l21 -4l92 -40l24 8q66 -78 88 -84q39 -8 44 -8q16 37 16 44v24q0 60 28 60q0 6 24 20zM793 658q29 -4 60 -19q37 20 73 28l66 -19q30 11 50 11q52 0 52 -92v-12q-15 -36 -39 -36h-5 q-10 -1 -19 -1q-33 0 -57 11q-24 -10 -35 -10q-12 0 -41 4q0 -15 -32 -56l-4 -20q4 -53 4 -88q-16 -37 -16 -44q0 -5 12 -44v-12q-16 -44 -16 -68q0 -34 11 -66q-7 -19 -19 -38l27 -43q-17 -45 -29 -45h-48q-44 28 -44 60l22 28q-29 12 -36 12q-23 -15 -80 -84 q-46 0 -88 -40l-36 1l-39 20l-60 -20l-42 -3q-24 19 -42 36l-97 12q-11 12 -27 46q-72 21 -90 38q-1 70 -31 70q-40 0 -40 88q-36 65 -36 104v20l32 40q-11 0 -40 12l-28 77l19 26l-8 30q31 7 41 7q40 -2 40 -12l4 -31q10 -61 72 -141l-12 -45q42 -36 42 -101v-11 q74 -47 74 -99q53 0 104 -44q41 0 124 -28l24 24q10 -1 20 -1q30 0 56 9l15 54q16 20 65 62q12 19 12 36l32 32q12 0 16 56q5 1 36 72v16q-24 58 -32 104l-40 -8q-24 7 -45 7q-29 0 -54 -12q0 -1 -2 -1q-8 0 -61 26q-18 36 -18 59q0 28 27 36l17 13l8 8h32q50 -5 96 -32 l36 11q32 16 67 20zM21 631q6 -1 12 -1q18 0 38 7q4 1 7 1q8 0 8 -8q0 -10 -9 -29q0 -8 -18 -14l-38 6q-10 8 -23 29q3 9 23 9z" />
<glyph unicode="H" horiz-adv-x="1382" d="M252 628l25 -1q5 0 35 -16l11 -49q-13 -37 -51 -61q-54 0 -63 20q-7 24 -8 60v1q0 35 51 46zM211 674q8 21 8 33q0 4 -1 7q-4 10 -33 69l19 48l5 42l-15 32l-5 27l12 75l8 26v22q-13 30 -22 60l-4 23l10 39l4 33v4q0 29 -48 45l-4 8v20h-8q-16 -16 -24 -16q-67 0 -100 60 q-10 0 -12 16q0 60 108 60l32 -16q25 20 80 20q0 -3 32 -24h8q52 20 56 20h64q7 0 36 12q3 -13 68 -36q28 -23 28 -44q-20 -24 -20 -36q-38 -22 -80 -46q-19 0 -64 34q-22 -38 -38 -63v-4q8 -20 8 -31l6 -46v-12l-23 -85l7 -27q26 -59 26 -72l-12 -66l10 -38q7 -6 12 -52h12 l36 20h36q17 0 52 -32l42 19q39 -27 54 -27q16 32 24 32h8q49 -15 68 -28q6 0 88 16q20 -12 32 -12q36 28 76 28q4 0 24 -16h4q20 12 20 24q0 4 -16 24v16q9 10 20 88q36 52 64 52l20 4q4 -35 20 -72q0 -19 -4 -40q4 -38 4 -76v-20q8 -28 8 -32q-24 -58 -24 -64v-24 q8 -28 8 -32v-24q0 -13 -12 -28v-28q0 -15 16 -52q0 -10 -4 -60q0 -8 16 -64v-16q-12 -39 -16 -88q-6 -2 -6 -7q0 -8 20 -25q0 -18 -8 -45l-6 -31q0 -5 36 -54q48 -23 48 -26q32 8 48 8q43 0 60 -48v-32q0 -20 -23 -31q-30 5 -55 5q-49 0 -82 -20q-18 2 -100 26 q-76 -24 -136 -24q-108 51 -108 56v4q0 43 64 52q29 13 57 31h29l38 -3q20 36 20 60l-16 48q0 8 24 16q-16 44 -16 48l12 40q-20 24 -20 32q2 53 20 112q-16 44 -16 48q0 14 16 48q-4 54 -4 80l-1 36q0 6 -10 6q-16 0 -53 -14q-50 28 -72 28h-8q-10 -28 -20 -28h-36 q-4 0 -32 36h-4q-33 -24 -56 -24q-43 0 -60 32h-8l-44 -36h-8l-24 20l-24 12q-20 -17 -44 -32q-46 13 -60 28q-28 -5 -28 -12q8 -28 8 -32v-4q-15 -24 -36 -24h-32q-9 -1 -16 -1q-39 0 -39 25q0 3 1 7zM881 1411q0 -20 60 -24q32 8 48 8q42 -8 44 -8q21 0 76 20 q40 0 120 -56v-16q-7 -28 -45 -56h-43q-21 -21 -41 -21q-15 0 -30 12q-29 -3 -41 -39v-8q8 -28 8 -32v-76q-21 -88 -40 -96q-64 50 -64 64q-12 72 -12 84l12 40v8q-6 9 -76 32l-36 40l-7 -21l-41 -11h-8q-31 21 -64 60q10 50 48 80h4q16 0 76 -16h12q0 27 40 32zM258 486 q53 -9 53 -63q8 0 24 -60q-6 0 -28 -28v-16l20 -24v-4q-24 -20 -24 -28q7 -29 16 -40v-16l-12 -40q6 0 16 -16q-1 -7 -1 -12q0 -26 14 -26q1 0 3 1q19 2 50 6q8 2 16 2q17 0 34 -8q27 -14 36 -31l32 -28q7 -15 7 -24q0 -5 -1 -9q-6 -11 -54 -15q-1 -3 -36 -20l-30 -7 q-39 17 -62 23l-37 -16q-39 15 -39 20q-27 -9 -68 -28l-11 1q-30 21 -57 23q-21 -8 -44 -8q-42 0 -72 44v36q17 11 40 27q19 13 51 13h13q20 16 36 16q7 0 14 -3q2 -2 5 -2q16 0 19 69v36q12 15 12 28q-6 29 -6 72v4l20 16q0 14 -12 32v12q12 19 12 32q0 14 -12 32v4 q16 17 63 23z" />
<glyph unicode="I" horiz-adv-x="1170" d="M374 1418h4q33 -34 48 -34q37 20 76 27q25 -7 72 -25q22 18 32 18q32 0 85 -24l75 24l22 8l106 -28q40 4 60 4h28q24 -16 24 -40q0 -9 -9 -46t-47 -74q-48 0 -48 40h-4q-53 -32 -76 -32q-20 8 -20 12l-40 12h-4q-11 -11 -44 -24h-16q-44 16 -48 16q-36 -20 -86 -34 q-20 -8 -20 -18q0 -4 3 -8q8 -16 12 -33l-8 -67q16 -29 21 -52q-10 -31 -17 -61q3 -13 3 -55l-12 -36q12 -23 28 -76q-3 -28 -28 -96q-1 0 -1 -2q0 -8 12 -43q8 -24 8 -41q0 -16 -7 -26q0 -23 -12 -44q0 -22 5 -34q19 -69 19 -82l-10 -37q-12 -34 -12 -55q0 -6 2 -11 q4 -22 10 -61q-14 -45 -14 -61q0 -5 2 -6q5 -9 10 -49q0 -36 17.5 -39t46.5 -33q23 2 32 7q4 3 6 3t2 -2q23 12 48 12q4 0 36 -20q22 20 64 28q0 4 4 4h12q152 -30 152 -56v-40q-36 -33 -48 -50q-6 -10 -16 -10q-9 0 -20 8q-25 16 -44 16h-4q-36 -20 -48 -20q-40 35 -40 60 q-24 -60 -68 -60h-12q-48 12 -48 36h-4q-17 -17 -48 -28h-12q-19 0 -36 28q-28 4 -32 4q0 -5 -32 -32h-40q-11 1 -16 44h-24l-40 -32h-4q-29 26 -44 60v12q11 36 29.5 38t29.5 2q10 0 37 -20q18 8 28 22q8 12 8 46v15l-2 19l22 34v16q0 14 -18 53q1 22 27 85l-9 42 q-12 16 -12 44q12 29 23 69l-3 27v4q-21 64 -30 86l30 62q-16 47 -36 100l-4 8q9 37 14.5 52t17.5 28q0 4 -17 58l5 20l5 21l-25 49l-8 16q0 18 28 52q-18 40 -32 64q0 4 16 44q-91 44 -120 44q-4 0 -48 -16q-47 20 -64 20h-12q-45 -29 -70 -29q-11 0 -18 6q-24 17 -72 55 h-4q-10 0 -24 48q9 20 44 32h52q4 0 56 20l64 -28q28 28 47 28h4q41 -17 61 -32q8 23 56 50zM110 116q48 -11 48 -40l4 -16q20 30 60 36q26 0 56 -32v-44q-19 -40 -60 -40q0 5 -44 32l-46 -25l-32 2q-30 43 -30 87v12q24 28 44 28z" />
<glyph unicode="J" horiz-adv-x="1234" d="M995 1424q48 -21 48 -48q4 0 4 -12v-36q-27 -76 -72 -76q-40 16 -40 32h-4q-14 0 -64 -32h-48q-13 0 -36 12q-13 -8 -24 -8v-20q0 -46 -28 -104v-36l8 -12v-32q-28 -63 -28 -92l36 -56v-28l-32 -48v-8l8 -12v-36l-8 -12q0 -14 32 -40q16 -24 16 -36q0 -14 -32 -52v-68 q12 -15 12 -56q-12 -36 -12 -40q16 -56 16 -88v-28q0 -11 -20 -44q4 -27 4 -44q-3 -60 -40 -60q0 -4 -8 -4v-36q-32 -41 -44 -80q-42 -56 -76 -56h-36q0 -8 -4 -8l4 -8q-57 -48 -176 -48l-20 32q0 -9 -104 -16l-36 56l-40 -16h-12q-39 23 -80 76q-32 14 -32 20q0 13 16 32 q-21 27 -24 64l-36 60v120q25 32 36 124q32 0 128 56h48q29 -56 52 -56q40 -30 40 -36v-12l-8 -12v-36q0 -52 -92 -88l-36 -36q-40 27 -40 36h-4q-8 -1 -8 -8v-40q24 -62 24 -84q68 -12 68 -32q0 -18 20 -68l40 12q39 -18 40 -24v-32h8q0 8 84 16l28 -4q52 60 80 60 q12 -4 24 -4q0 67 112 88q0 4 -8 32v12q20 22 20 24v16q-20 50 -20 52q0 11 4 80q0 16 -28 56v4q23 32 28 32q-4 34 -4 52q8 26 8 36v68q0 4 8 32v8q0 16 -24 44l12 40q0 9 -12 24v64q12 15 12 56v48q0 14 16 32q0 7 -16 44v44q-36 15 -36 48q24 35 24 40q-41 68 -64 68h-48 q-14 0 -40 20h-4l-36 -28h-12q-44 0 -104 56v8q47 76 92 76q0 4 4 4h8l32 -20l68 24q54 -4 76 -4q29 16 36 16l76 -36q27 11 40 20h8q40 -9 60 -24l32 28q50 0 72 -20h4q35 36 84 36z" />
<glyph unicode="K" horiz-adv-x="1465" d="M168 1424q12 0 84 -36q32 12 40 12t56 -8q22 0 44 16h20q29 0 56 -28l40 12q64 -17 64 -64v-36q0 -7 -44 -28h-24l-12 8q-69 -16 -80 -24h-20q-13 12 -60 20q0 4 -4 4q-8 0 -8 -12q16 -34 16 -60q0 -37 -16 -68v-40l8 -12v-32q-9 0 -16 -76v-20q0 -21 32 -68l-20 -32v-4 q12 0 12 -8v-92q12 -15 12 -28v-4q0 -38 -32 -76q5 -32 16 -32h12q12 0 12 16q13 41 13 52l6 14q37 15 65 34q52 65 52 144l16 24q46 0 76 32v36q47 48 72 48q12 0 17.5 2t8 8t2.5 58v4q52 31 52 68l-4 56q12 20 12 32v4q-18 44 -52 44q-60 13 -60 60q82 60 112 60q0 4 4 4 h4q13 0 44 -16q40 4 57 14l43 -10l24 -4q30 21 67 21q7 0 13 -1q26 -24 37 -24h3q9 4 61 5l35 9q27 -26 96 -26h8q6 0 28 -36v-40q-26 -36 -32 -36h-52q-3 0 -32 8q-13 -12 -60 -20l-24 -9l-16 5l-12 8q-63 -10 -63 -27q0 -2 2 -4q2 -6 2 -11q0 -12 -18 -16l-23 -6 q-36 -21 -36 -44q0 -27 -80 -64q0 -54 -44 -84q-28 -52 -64 -52q-36 -33 -36 -80q-32 -18 -36 -64l-46 -27q-22 -20 -22 -33q0 -6 12 -48v-24q53 0 72 -32l40 -88v-32q13 0 64 -56q68 -12 68 -60v-36q49 -37 52 -47v-6q0 -8 -4 -15q-5 -6 -5 -13q0 -4 2 -8q3 -11 39 -55 q28 -51 28 -72v-28q64 0 64 -32q9 -1 20 -36h4l64 48h4q52 -56 52 -80q-4 -32 -40 -72q-25 0 -88 48h-4l-40 -24q-37 13 -56 56q-4 28 -12 28q-19 -26 -20 -72q-12 -28 -16 -28h-40q-6 0 -36 40v64h-4q0 -56 -32 -76h-4q-40 13 -60 52v52q0 6 36 32l48 -4l24 32v28 q-11 18 -64 56q0 42 -37 89q-37 45 -37 75q0 1 1 2v2q0 28 -39 32q-12 0 -44 96q-35 56 -112 80q-5 0 -32 -48q-23 0 -68 -100q-22 -28 -32 -28v-48q-16 -38 -44 -60q0 -28 28 -88v-44q-8 -28 -8 -32q35 -68 64 -68q28 8 44 8q0 -5 16 -28q44 24 56 24h32q6 0 20 -32 q0 -4 -4 -4l4 -20v-16q-30 -44 -36 -44q-22 0 -68 36q-41 -48 -72 -48q-38 48 -64 48q0 -29 -20 -32q-28 16 -64 24q-33 -40 -84 -40q0 6 -28 28h-40l-12 -8h-28q-36 16 -44 44v20q21 37 72 52q46 -8 64 -8q11 0 40 20q0 7 -4 48q0 22 40 68v32q-24 29 -24 52q0 8 32 60 q-12 20 -12 32v72q0 18 20 88q0 14 -20 68v8l20 28l-16 28q0 4 12 40v4q0 27 -36 32v4q0 15 16 36v96q-12 38 -12 60v16l20 24v60q0 24 -16 68q16 53 16 104q-22 -4 -32 -4q-37 0 -84 28q-4 0 -32 -8q-41 27 -84 40q0 4 -16 24v4q21 17 21 30q41 19 63 54q22 0 80 -16 q16 0 48 24zM1200 84h4q36 -11 36 -24q0 -24 8 -32v-32q0 -6 -40 -20h-4q-28 22 -28 44q0 50 24 64z" />
<glyph unicode="L" horiz-adv-x="1267" d="M291 1409h40q16 0 48 -28v-32h12q8 37 20 40h36q8 0 48 -24h4q47 40 56 40q52 0 60 -48l72 28q20 -13 56 -24q31 24 44 24l32 -36v-40q-16 -24 -56 -24q-20 12 -32 12q-14 -32 -72 -32q-45 36 -64 36h-4q-25 -20 -40 -20q-10 0 -52 12q-7 -27 -60 -60v-4q0 -32 4 -76 l-28 -60v-8q32 -104 32 -116q-6 0 -24 -24q0 -13 16 -32v-4q-24 -34 -24 -48v-84q16 -18 16 -56v-4q0 -10 -24 -72v-60q32 -31 32 -48q-16 -40 -16 -116q0 -10 16 -28v-4l-28 -28v-28q0 -24 20 -96v-76q12 -16 12 -44h12l12 8h12q52 -17 52 -48q4 0 4 -8q0 -55 -40 -80h-4 q-56 9 -56 52v12q-59 -40 -76 -40l-52 36h-4q0 -27 -28 -56h-48q-28 23 -28 60q-5 -5 -20 -36q-7 0 -40 -16q-52 28 -52 68v12q0 6 52 52q61 -28 80 -28q0 12 12 12l72 28v28l-8 12v44q18 99 24 108v16q-28 58 -28 72q12 53 20 132q28 46 28 52q-6 0 -20 24v52l-24 32v92 q0 21 32 68q-23 15 -32 36v8q16 45 16 56v28q-20 26 -20 32q36 58 36 72h-4q-5 0 -20 20q0 4 8 32l-32 36v36l-40 24h-12q-64 11 -64 36l-8 4q-21 -16 -36 -16q-52 20 -56 20q-29 0 -68 -12q-18 7 -28 24v8q63 68 100 68q13 8 20 8l8 -4q7 4 16 4v-4q8 4 12 4q17 -7 36 -24 h4q3 0 24 32h36q15 0 44 -20h8q0 18 16 24zM1023 617q48 0 64 -92v-20q-8 -28 -8 -32v-24l24 -68v-20q-8 -28 -8 -32v-24q12 -39 12 -68v-32q0 -41 -12 -56v-56q0 -80 -120 -80q-12 0 -48 -16q-11 4 -32 24q-50 -12 -80 -12q-40 11 -40 24v44q32 52 64 52q11 0 32 -20h8 l38 14q11 29 44 40l-2 31l16 31l-15 58l14 73l-5 30l-14 35v20q28 58 28 72q0 32 36 104h4zM599 125h32q5 0 28 -32q49 20 72 20q24 -37 24 -60v-28q-26 -28 -40 -28q-56 40 -68 40q-20 -24 -32 -24q-68 0 -68 48q2 64 52 64zM31 93h12q44 -12 44 -44v-12q-17 -36 -56 -36 q-21 0 -44 32v40q0 6 44 20z" />
<glyph unicode="M" horiz-adv-x="1469" d="M1034 1412h32l136 -20q27 4 44 4q68 -39 68 -80v-24q-31 -32 -48 -32q-27 0 -60 36q-32 -21 -64 -28q-12 -23 -12 -28q17 0 28 -48v-8q-20 -16 -20 -20v-28q-16 -46 -16 -52q24 -14 24 -20q0 -49 -20 -140q0 -22 4 -112q-8 -40 -8 -48l24 -36v-8q0 -10 -16 -68 q8 -28 8 -32v-12q-8 -28 -8 -32v-52q0 -37 -8 -140q7 0 24 -28v-12l-20 -32q32 -27 32 -32q-26 0 -32 -40q0 -2 4 -52l-4 -48q16 -8 16 -24h20q17 -12 64 -12q23 16 28 16q48 -5 48 -20v-28q0 -60 -28 -60q0 -8 -28 -8l-36 4q-20 -23 -52 -32h-28q-13 10 -36 12 q0 -5 -36 -36h-4q-22 0 -80 36q-23 -2 -36 -12h-16q-44 14 -44 20l-28 48v4q11 28 124 84q52 32 60 32v4q-12 16 -12 44q0 4 16 24v8q-22 0 -32 16v40l20 32v32q0 16 24 48q-14 20 -20 80l-16 104q-4 0 -4 4v24q16 17 16 32v8q-16 44 -16 48v28q28 28 28 36l-12 20v20 q0 4 8 32v16l-8 12v24q0 11 -16 56q-4 109 -4 132q20 11 20 16q-16 28 -32 80v56q-10 -8 -16 -8v-28q-22 -71 -40 -92l-20 32h-4l4 -28v-8q-12 -13 -12 -20q11 -23 36 -60q-8 -9 -60 -28q4 -40 4 -60v-68q0 -4 -16 -48v-96q0 -65 -56 -140q-16 -76 -16 -92q4 -50 4 -56 q0 -16 -48 -28q0 -10 12 -48v-24q0 -8 -8 -8h-12l-8 4v-4l28 -32v-8q-15 -18 -28 -116l-28 -16q12 -20 12 -32q-11 -96 -20 -96q-38 -32 -92 -32l-56 44q-4 66 -4 100q8 13 8 24q-24 50 -24 88v28q-8 11 -20 72q-4 0 -4 4v16q12 38 12 48q-12 20 -12 32v44q-40 29 -40 48 q-12 65 -16 136q-9 0 -12 20q4 34 4 52q-23 0 -40 116v4q32 6 32 16q-12 15 -12 32q0 5 4 40q-24 8 -24 16v24q10 16 28 16q-28 46 -28 64q7 4 20 4q0 8 -8 8h-16q-56 0 -56 20l28 56v20h-4q-23 -12 -40 -12q-16 38 -16 64h-8q-20 -9 -20 -40q6 0 12 -12v-12 q-14 -18 -20 -76q-16 -21 -16 -36q20 -3 20 -12v-28l-28 -40v-20q0 -88 32 -88l12 -16v-8l-24 -32q0 -32 -4 -76q4 -52 4 -84q-8 -38 -8 -60q8 -45 8 -64v-84l-24 -28v-8q36 -56 36 -68q0 -4 -20 -56v-28l24 -28q0 -46 -24 -76q0 -27 92 -36q21 0 40 -40h40q8 -1 8 -8v-24 q0 -30 -68 -88l-16 -4l-4 8v20q-4 0 -76 24q0 -5 -56 -40q-4 0 -24 36q-55 -44 -60 -44q-46 0 -80 40q-43 0 -60 32v40q0 12 52 12h20q5 0 56 64q44 28 44 32v36q0 4 4 4q0 3 -32 64q0 9 24 48q0 26 16 72q-4 0 -36 52v16q16 45 16 56v12q0 22 -12 60v40q1 20 8 20l-4 8 l24 28v36q-13 17 -28 72v8q22 24 32 24v28q16 36 16 48q-26 11 -44 56q0 4 24 36q0 4 -8 32q0 4 8 32v8q0 3 -32 56v8q0 7 32 28q0 16 4 72q-20 7 -88 16q0 10 -56 20q-32 -8 -48 -8q-6 18 -16 32v24q25 56 48 64q28 -16 40 -16q61 28 68 28l84 -28h16q34 0 72 -4 q16 0 76 20l52 -72q4 -27 44 -52q0 -12 -16 -12v-12q16 0 28 -20v-8q-14 -36 -32 -36q7 -29 16 -40v-36q24 -26 24 -28v-12q-16 -23 -16 -32q32 -11 32 -56q-4 -50 -4 -60q16 -32 16 -44v-28q0 -3 20 -20v-36q0 -3 -20 -56q6 0 20 -24v-40q60 -36 60 -72v-28l-8 -12v-28 l24 -36q0 -7 -12 -32q0 -105 40 -144h4q0 24 8 24l-4 8q4 8 4 12q-4 8 -4 12l36 32q-12 20 -12 32v48q0 2 16 20l-16 16q16 34 56 76v108q16 50 16 56q0 7 -4 48q20 27 20 40q-8 46 -8 64v60q0 2 24 28v40q23 32 28 32q-4 40 -4 60v24q0 11 20 12v4l-28 36v28q11 43 96 144 q36 12 48 12l32 -8q44 24 56 24z" />
<glyph unicode="N" horiz-adv-x="1363" d="M1072 1414q124 -53 124 -100q0 -32 -64 -54q-30 9 -57 9q-30 0 -56 -11q-35 -15 -35 -76l16 -36v-32l9 -59l-11 -26q6 -30 6 -39q0 -32 14 -92q-14 -46 -14 -72q-3 -29 -12 -40v-16q12 -39 12 -68q0 -12 -12 -52v-8q8 -28 8 -32v-24q-5 -6 -5 -22q0 -22 10 -64l3 -29v-8 q-16 -66 -16 -117v-60l-10 -90q0 -28 12 -44v-24q-2 -54 -11 -96l-13 -32q0 -10 -40 -20h-8q-45 14 -46 22v36q0 7 -48 32q-8 26 -8 36q24 5 24 12q0 15 -60 52q-28 24 -28 60q4 50 4 60q-7 28 -56 84v44l-28 40v36q0 5 -36 28v96q0 10 48 52q52 -21 52 -72q12 -27 12 -68 v-24q20 -34 20 -80q8 0 8 -4l8 4q56 -24 56 -40q4 -31 4 -68l-4 -36q21 -16 36 -16l-10 41q13 23 18 23q7 23 7 47q0 25 -7 51l-5 41q7 44 21 89q0 27 -20 88q28 15 28 20l-20 32v24q0 38 -16 56v16q12 19 12 32q0 4 -12 51v32q0 36 24 77v16l-15 74l7 54l8 12v40 q-16 21 -16 36v12q0 2 16 20q-3 0 -32 4l-32 -16q-18 20 -20 32q-67 -8 -88 -8q-56 9 -56 52v8q15 64 64 64q8 0 28 -12q19 0 84 24q9 0 48 -20q25 4 72 32l40 -16q38 20 64 20zM64 1402q20 0 48 -16q0 8 44 16h28l48 -20h8q13 0 28 12h16q10 -6 32 -12q23 2 36 12h28 q44 -17 44 -44h1q15 0 22 -50l4 -43q-2 -2 -2 -6q0 -9 8 -25l24 -28q47 -36 47 -124q44 -68 44 -116q28 -19 52 -80q28 -20 28 -76v-24q0 -12 24 -48l-1 -16q-3 -31 -31 -64h-8q-48 0 -48 28q0 20 -40 44q-13 96 -59 101q-13 5 -25 11q0 32 26 32l10 12q0 15 -48 20 q0 38 -28 72v48q0 36 -44 48q-4 33 -24 72l12 40q-22 30 -44 44l-8 -8q-8 -28 -8 -32q20 -39 20 -48q0 -28 -3 -47l-1 -21v-80l-17 -35l-11 -25q0 -22 8 -51q4 -31 20 -105v-24l-28 -68q26 -38 26 -48q0 -25 -14 -104q14 -58 14 -64l-14 -36q4 -34 4 -52q-16 -43 -16 -68 q20 -18 20 -32q0 -16 -20 -36l13 -38l-9 -46q0 -23 30 -34q33 -38 48 -38q4 0 7 3q11 11 28 11h6q21 -3 32 -13q10 -10 27 -10q1 0 2 1q18 0 24 -40v-28q0 -13 -52 -16q-28 16 -40 16q-20 -16 -76 -28q-26 26 -54 26q-7 0 -14 -2q-36 -8 -44 -8q-3 0 -40 28q-59 -28 -68 -28 q-5 0 -32 32v36q0 22 24 36l42 -16q8 10 20 10q7 0 16 -4q18 14 29 63l-5 29q-12 40 -14 68l16 34q-24 34 -24 48q0 13 16 32v36l-8 12l-4 44q4 28 16 99l-14 85q0 9 46 36v4q-39 43 -48 120v4q0 17 23 109l-1 16q-3 34 -10 67q0 20 4 48q-4 34 -4 56q12 52 12 87 q0 25 -6 42q-21 42 -39 42q-4 0 -8 -2q-7 -4 -16 -4q-15 0 -35 15q-13 0 -20 14q-22 -14 -36 -14h-8q-41 0 -68 44v44q0 11 84 36zM20 82h4q44 0 44 -12v-36q0 -8 -44 -24l-28 36v12q0 6 24 24z" />
<glyph unicode="O" horiz-adv-x="1248" d="M570 1410q4 1 9 1q16 0 38 -9l125 -41l11 -23q96 -42 101 -68q52 -54 52 -96q28 0 56 -48v-56q16 -18 44 -84q5 0 24 -36v-124q19 -34 32 -52l-20 -48l21 -42v-4q0 -27 -28 -57l22 -57l-9 -18q-22 -53 -22 -66v-44q-36 -48 -36 -108q-17 -76 -48 -102l-20 -34 q-17 -7 -32 -76q-25 -24 -84 -100q-42 0 -92 -64q-8 0 -28 -18q-8 2 -36 10q-56 -14 -66 -29l-21 -10q-12 10 -33 20q-14 4 -35 4q-11 0 -25 -1q-46 4 -88 4q-81 54 -92 54q-8 -3 -40 -10q0 29 -52 72q-18 18 -32 64q-68 35 -68 96q-9 34 -48 68q-16 56 -16 88q0 5 4 40 q-32 23 -32 72v28q-16 44 -16 48v8l20 28l-4 56q16 29 16 36q-6 0 -28 28q0 4 16 48v64q0 4 8 32v36q0 19 24 56q0 29 28 100q0 20 84 140q0 44 28 60q21 52 64 52q44 54 80 72h20q43 0 78 26l35 18q16 -10 49 -10q26 0 62 6zM458 1234h-8l-28 16q-8 -6 -72 -28 q-70 -36 -88 -88q-40 -38 -40 -56q0 -2 16 -48q-21 -23 -64 -44v-44q-16 -44 -16 -48q0 -21 4 -80q-24 -87 -24 -100v-8q0 -27 20 -92v-4q-14 -20 -28 -56q44 -50 44 -76v-4q0 -21 -12 -36v-68q32 -32 44 -84q66 -69 72 -100q48 -15 48 -36q0 -32 84 -56q0 -7 20 -36 q12 8 44 12q3 0 36 -16q54 28 80 36l44 -24q29 16 36 16v36q22 26 44 32q34 -8 40 -8l48 84q60 29 60 69q0 13 -6 27q39 44 42 92q0 7 -16 75q32 16 32 129l-9 56q21 34 21 96q-8 14 -8 26q0 5 1 10l3 32q-19 59 -29 112q-63 66 -63 80l12 16v4q-42 14 -60 52q-7 51 -57 58 l-22 23h-10q-36 0 -36 7l-12 25l-4 17q-10 26 -15 26q-52 -32 -52 -64h-4q-24 7 -36 44q-24 39 -24 56q-47 -60 -52 -60z" />
<glyph unicode="P" horiz-adv-x="1319" d="M110 1404q70 -22 73 -27q32 24 47 25q41 -19 77 -27q8 32 23 32h2q28 0 86 -22q8 0 40 9q72 -19 77 -19q0 5 31 33h4q51 -11 77 -35q34 9 44 9q37 -3 64 -3q34 0 51 5l49 1q35 -51 71 -51h1l12 8h5q36 0 77 -75q0 -51 53 -67q32 -27 33 -51q0 -14 25 -72l1 -68 q-11 -38 -11 -60q16 -17 17 -32v-4q-54 -47 -54 -111v-2q-34 -136 -94 -137q-39 -33 -111 -78q-24 15 -44 15q-58 -37 -79 -37q-13 0 -36 15q-21 -12 -76 -13q-11 4 -33 23q-55 -13 -83 -13q-35 19 -41 19q-57 -45 -63 -45l9 -60v-4q-14 -40 -14 -79v-5l2 -22q17 -44 17 -47 q-2 -17 -13 -51q27 -82 29 -93q2 -71 19.5 -81t70.5 -28q10 -8 19 -8q4 0 8 2q16 1 25 7h28q39 -14 45 -35q17 21 60 21h4l22 -12q7 -16 7 -30q0 -31 -32 -50h-4q-44 3 -44 15h-4q-17 -25 -38 -25q-15 0 -32 13l-30 -13h-3q-21 0 -37 15h-8q-21 -17 -36 -17q-31 7 -56 27h-4 l-32 -29h-48q-42 55 -45 55v-1q0 -29 -71 -48q-6 46 -17 75h-8q-38 -76 -87 -77l-37 67h-4q-7 -28 -23 -28h-3q-52 0 -70 30l-1 36q0 27 35 57l44 1q26 -21 41 -52q18 20 53 30q18 0 71 -23q32 0 55 76v12l-8 79l8 25q17 33 17 57l-1 36l-25 74l32 110q-5 16 -17 40v24l8 12 v4l-17 24v4l20 24l-1 12q0 41 -12 56l8 76q0 18 -21 64l-1 24q0 10 16 33l11 40l-6 14q-21 51 -27 84q6 20 6 28l11 31l-3 42l-12 32q-19 19 -109 34v4q-24 -6 -56 -6q-15 0 -31 1q-54 15 -98 29l-28 28l-1 36q0 5 36 20q34 -3 56 -3q34 38 67 42zM520 1270q-28 -50 -77 -51 q0 -14 -4 -21q1 -7 1 -13q0 -26 -17 -44q11 -17 11 -52q0 -8 -1 -17q4 -16 5 -29q-24 -47 -24 -61v-1l4 -26l4 -24l1 -20q-15 -25 -15 -39v-2q33 -10 33 -21q-11 -23 -11 -38q0 -9 4 -15q7 -10 7 -22q0 -8 -3 -17q-3 -8 -3 -14q0 -10 9 -12q14 -4 45 -41h4q25 1 77 14 q47 -28 63 -28q41 26 94 27l33 1q13 10 37 12q23 -1 37 -11h4q37 23 60 68l16 18l29 8l14 4q5 11 5 23q0 13 -6 28l35 59l-30 37l21 88l2 38q-76 24 -82 32l-1 4l12 16v37q-16 48 -39 66q-26 -10 -51 -17l-12 12q-22 -11 -34 -11q-15 0 -18 14q-17 3 -33 3q-27 0 -52 -9h-4 q-17 0 -18 29l-9 4q-42 -7 -68 -34q-41 48 -55 48z" />
<glyph unicode="Q" horiz-adv-x="1245" d="M449 1402q9 0 40 -12q2 0 44 12h4q60 -14 60 -36q15 8 64 20q19 0 84 -56q59 0 204 -172v-32q22 -82 60 -120q7 0 16 -64v-40q0 -3 8 -80q-8 -26 -8 -36q0 -31 24 -36l-4 -40q4 -54 4 -80q32 -19 32 -24v-8q-48 -35 -48 -100q-15 -6 -28 -112q-9 0 -24 -36l20 -68v-4 q-32 -23 -32 -28q-16 -42 -20 -76q-22 -5 -32 -12h-48v-4q12 0 12 -8v-40q-48 -37 -56 -84q-5 0 -16 -24v-4q12 -17 12 -32q-15 -12 -28 -12h-12l-12 8v-44q0 -41 56 -64q22 -32 28 -32h4q0 25 40 32h32q44 20 44 56q0 58 40 92h4q34 0 72 -52l4 -8v-4q-21 -35 -24 -36l4 -8 v-32q-22 -37 -32 -76l-40 -4h-16l-28 4q0 -88 -44 -88q-7 -4 -16 -4h-12q-52 5 -52 44l-28 -4h-8q-56 9 -56 24v20q0 4 4 4q0 7 -48 36q0 43 -40 96v8q0 3 24 24q-28 0 -36 20q0 4 -4 4h-4q-41 -52 -72 -52q-32 0 -64 40l-64 -28q-3 0 -44 28v36h-4q-28 -28 -36 -28 q-54 0 -68 40q-20 33 -76 64q-48 56 -84 84q0 76 -48 116q0 15 -24 28v44q-32 25 -32 28v40q0 19 8 64q0 10 -32 60q0 4 -4 12q0 20 4 60q-4 53 -4 88q16 26 16 52q0 23 -12 40v44q36 45 36 84q12 27 12 68v56l28 40v36q25 31 80 128q89 38 104 88l28 28h24q30 0 108 36 q4 0 32 8zM453 1194h-12q-18 16 -56 16h-16v-36q-28 -48 -76 -48l-24 4l4 -28v-24q0 -3 -36 -36v-36l-32 -44v-60q0 -21 -20 -40q-28 -29 -28 -36v-4l-16 -24q32 -24 32 -44q-1 -13 -64 -36q16 -28 16 -40v-16q-9 -45 -20 -64h4l28 4l4 -8v-16l-32 -32v-40q9 -24 56 -60v-4 q-4 -70 -4 -84q6 0 32 -36v-76q60 0 60 -28q11 -16 28 -16v28q26 100 80 100q4 -20 8 -20q29 6 56 60q6 0 44 20q30 -15 32 -24l28 4h48q45 -13 72 -52q4 -48 36 -48q44 -34 64 -108q23 6 32 12h44l28 -8v4q0 6 -16 28q0 21 40 76v16l-8 12v56q52 37 56 68q5 0 8 32 q-4 54 -4 92q36 19 36 24v32q0 3 -32 48v32q0 6 36 24q0 9 -48 72q-12 29 -12 36v4l20 32v12q0 14 -20 84q0 28 -20 64q-72 24 -72 68l4 36q-31 0 -88 80q-98 11 -112 24l-56 -12h-12q-21 16 -44 16zM401 162v-40l-28 -80v-4q15 -28 20 -28q23 29 36 76h4q5 0 56 -56 q8 0 44 20q31 0 76 -28q12 30 20 124q4 0 4 12v4q0 8 -20 60l-20 -4h-20q-35 0 -76 48q-80 -39 -80 -76q-16 -6 -16 -28z" />
<glyph unicode="R" horiz-adv-x="1398" d="M1081 6q-12 -20 -52 -20q0 6 -48 28q-29 -12 -72 -12q-47 21 -72 56v48q0 8 24 16v8q-44 19 -44 52q40 18 40 24v4l-20 28v16q16 20 16 24q-32 19 -32 24v12q10 52 12 96h-16q-8 0 -8 8v56q0 25 -28 56v36q-9 0 -24 12h-8l-28 4q-35 42 -36 76h-36q-16 -12 -48 -12 q-22 36 -28 36l-68 -48h-4q-46 42 -76 44q-9 -30 -29 -30q-15 0 -37 19q-11 -35 -11 -58q0 -14 5 -23q3 -6 3 -15q0 -22 -22 -59l23 -21l-8 -29q0 -12 -40 -12q-52 0 -72 28q0 34 -32 52l-20 24v8q40 30 40 60v12q-32 71 -32 80q0 13 36 72v4q-20 68 -30 112q6 0 26 64l6 52 q-19 45 -38 72v20l24 50l4 27q-6 33 -17 44q-6 9 -15 9q-10 0 -24 -10q-42 32 -54 32q-3 0 -4 -1q-6 -10 -18 -16q-2 -2 -4 -2q-11 0 -27 29q-10 -4 -18 -4q-14 0 -25 10q-18 15 -18 48v4q0 60 32 60q0 16 72 20q28 -12 28 -16q23 6 32 12h20q45 -9 60 -24h4q79 24 84 24 q44 -24 44 -28l80 28q0 -3 36 -36q18 0 64 24q2 0 52 -20h12q17 0 60 24q14 0 76 -36q35 4 44 4q144 -27 144 -52q40 -29 40 -68q44 0 60 -28q13 -22 24 -76v-36q-12 -15 -12 -36q18 -7 28 -24v-36q-6 -62 -43 -82q-59 2 -69 42v36l-24 28q0 2 4 52q-19 71 -41 80.5 t-34 29.5t-73 58q-11 -7 -20 -7q-6 0 -10 4q-10 9 -18 11q-61 -20 -88 -20q-37 15 -76 44h-24q-34 -28 -96 -28q0 -3 -24 -12h-36q-40 0 -40 -32q-4 -21 -36 -52l24 -40v-24q-12 -38 -12 -60q0 -37 26 -44q14 -5 14 -11t-9 -13q-21 -16 -43 -48v-32q0 -15 -16 -36 q8 -17 80 -32q7 -39 44 -68h4q37 28 80 28l32 -32q60 15 90 37l46 -17h4l40 12h8l24 -4q19 0 54 36q88 34 88 64q34 40 72 40q0 4 4 4h26q28 -24 28 -44q-20 -85 -36 -92q-13 -8 -20 -8v-36q0 -8 -56 -24q-56 -48 -120 -48q-12 -9 -12 -12v-4l40 -4h24q60 -32 60 -80 q4 0 4 -12v-12q26 -46 26 -75q0 -89 17 -102q12 -10 12 -21q0 -4 -1 -8q-6 -17 -6 -38v-16q24 -24 24 -32q0 -22 -32 -76q22 -44 52 -50q20 -10 37 -10q16 0 31 8q3 1 7 2l72 -32l21 11h28q48 -40 48 -76q-17 -36 -55 -61q-87 26 -125 36zM273 442q48 0 80 -22 q-8 -33 -8 -58q0 -32 12 -52q20 -31 20 -48q0 -12 -9 -18q-12 -7 -12 -16q0 -8 11 -18q14 -14 14 -22q0 -4 -4 -7l-12 -63q16 -21 44 -31l35 23q48 -17 61 -40l8 -4l40 12q14 0 40 -28v-40q0 -4 -28 -24q-39 0 -72 16q-4 0 -34 -27l-26 7q-33 16 -56 16q-17 0 -28 -8 q-12 -9 -25 -9q-15 0 -30 13q-14 11 -31 11t-38 -13q-28 -18 -45 -18q-9 0 -14 4q-19 12 -27 12q-71 -8 -82 -8q-47 0 -76 40v40q0 5 16 20q10 10 22 10q7 0 15 -3q6 -3 14 -3q15 0 34 13q15 11 26 11q8 0 14 -6q12 -15 22 -15q45 47 89 61v36l-24 32v44q36 33 36 80 q-5 0 -20 20v44q27 36 48 36z" />
<glyph unicode="S" horiz-adv-x="1146" d="M468 1411q34 -9 58 -35q29 -16 92 -20q69 -52 112 -52q36 -14 36 -40q20 4 40 88q41 52 44 52q24 -12 46 -13q14 -6 14 -23v-116q-32 -35 -32 -84v-36q7 -33 16 -44v-24q-12 -39 -12 -68q32 -61 32 -68q0 -4 -32 -20h-48q-27 48 -56 80l-37 84q-7 28 -7 50q0 13 3 24 q-41 38 -83 38h-8q-6 20 -28 48l-28 -4h-12q-8 0 -12 48q-22 16 -28 16l-48 -15q-36 15 -72 31q-9 0 -38 -11q-31 5 -50 15q-46 0 -52 -36q-43 -2 -73.5 -23t-30.5 -53q-12 -54 -54 -80q-8 -64 -66 -64q-7 -4 -16 -4h-4q-5 0 -40 40v12q8 6 8 29q0 18 -5 47l29 33 q12 33 19 70l49 17q17 19 50 53q28 -6 50 -6q8 0 16 1l20 -4q0 36 33 49l27 -13q3 -4 6 -4q4 0 8 11q5 17 26 17h52q29 -8 32 -8zM34 1044h4q64 -16 68 -16l44 -88q17 -45 56 -56q27 -4 52 -48q21 6 36 6q8 0 14 -2l38 -20q45 12 76 12h32q36 -46 40 -76v-8q-33 -44 -68 -44 q0 -4 -4 -4q-72 13 -72 44h-4q-28 0 -28 -40h-4q-20 0 -49 22t-47 22l-28 -8q-32 20 -48 52q0 32 -56 44q-38 11 -38 27q0 4 2 7q8 21 8 30l-52 33v4q11 25 11 42q0 13 -7 21v12q16 32 24 32zM558 796q0 -6 28 -28h4q31 28 48 28q96 -15 96 -64h54q28 -8 73 -88h2 q27 0 76 -82q15 -115 21 -130.5t19 -52.5l-15 -36q-9 -16 -9 -50q0 -19 3 -44l-8 -57q-30 -17 -90 -115q-40 -8 -70 -75q-18 -11 -49 -11h-5q-14 2 -26 2q-35 0 -52 -19q-20 -11 -58 -26q-23 9 -54 9q-37 0 -86 -13l-65 25l-21 24l-24 2q-4 -1 -9 -1q-18 0 -40 16v7 q0 39 -51 39q-56 8 -56 28q0 48 -60 48q-44 0 -44 -28q0 -17 -28 -56q12 -20 12 -32v-4q0 -10 -48 -24h-32q-8 0 -16 44v64q18 24 32 24v4q-24 14 -24 116q8 29 32 44q-16 6 -16 12q0 4 8 32q-20 58 -20 88v4q24 28 24 72q31 16 40 16q40 -40 40 -88v-40q20 -56 80 -56v-4 q0 -14 -16 -32q56 -32 56 -60q-8 -13 -8 -24q18 -40 60 -40q0 -48 40 -48q49 0 120 -64q0 26 64 32h4q17 -21 46 -21q22 0 52 13q40 36 93 44q131 41 131 172q7 0 32 36q0 8 -36 100q-4 48 -4 72q-36 17 -36 44q0 42 -37 67q-21 18 -54 18q-6 0 -13 -1q-3 18 -82 68 q-29 0 -64 -24l-16 80q16 44 52 44z" />
<glyph unicode="T" horiz-adv-x="1190" d="M277 1416q48 0 60 -36v-12h4q4 0 36 44q46 0 84 -24q41 8 84 20q71 -18 80 -24q13 8 24 8h24q11 0 24 -8q44 24 56 24q18 -15 56 -20q0 -4 4 -4h4q47 12 80 12q89 -54 96 -68q24 -57 24 -148q-16 -21 -16 -36v-40q14 -18 28 -68v-12q-12 -12 -28 -56v-8l16 -52 q-4 -84 -4 -116q-12 -29 -12 -36v-36q-18 -28 -44 -28q-56 0 -56 64q0 20 -16 48v44q12 16 12 48q0 12 -12 56v44q-23 32 -56 44v8q11 12 32 24l24 4q0 40 -41 54q-1 2 -1 4q0 13 26 18v4q0 8 -52 52q-28 52 -64 52h-64q-6 0 -56 -28h-4q0 8 -32 12q-32 -32 -32 -40 q-5 -103 -12 -112q24 -37 24 -52q-14 -13 -21 -54.5t-7 -53.5v-16q12 -15 12 -28q0 -15 -20 -60q13 -77 21 -94l-5 -90v-20l-24 -40v-28q8 -7 16 -88v-4l-20 -28q4 -40 4 -60q-5 0 -16 -20v-8q23 -1 32 -28q0 -31 -10 -64l-3 -24q-2 -10 -2 -21q0 -23 10 -48q29 -7 29 -35 v-16q0 -4 -4 -4q22 -52 44 -52v4q-8 16 -8 28q15 16 60 16h24q16 -7 20 -68q36 52 40 52q54 0 68 -28l16 -36v-20q-29 -48 -72 -48q-30 23 -52 60h-4q-14 -44 -60 -44q-36 3 -36 12q-15 -12 -76 -24h-12q-29 24 -40 56h-4q0 -32 -64 -32q0 3 -28 28v36q0 9 -16 36 q31 52 60 52q0 3 -4 24q20 27 20 40v16q0 3 -10 11q-7 6 -7 10q0 2 1 4q4 5 20 23q0 5 -18 98q10 66 30 66v4q-32 22 -32 40t-12 60v12q0 3 32 56q0 23 -16 44l-7 56q19 55 19 76q-12 20 -21 78l9 42q24 32 24 48q-7 13 -24 88v28l16 24q0 5 -8 44v36q-22 40 -76 56l-12 36 h-4q-10 -8 -16 -8l-64 -4q-7 0 -32 8q-59 -37 -144 -76v-4q45 -40 54 -58q0 -8 -8 -8l-18 -6q-10 -57 -32 -84l20 -28v-8q-19 -40 -40 -40q-12 0 -12 -8q5 0 36 -36v-48q7 0 36 -24q0 -10 -64 -32v-8q28 -24 28 -28v-8q-25 -40 -60 -40q-28 25 -36 48v40l8 12v20 q-16 44 -16 48q0 10 20 100q-20 85 -20 104q24 47 24 88q-4 44 -4 76q0 140 60 140q35 -4 44 -4q0 4 36 28h44q32 -24 36 -24q43 32 48 32zM189 116q40 -34 40 -72v-4q0 -29 -12 -32h-4q-60 23 -60 48q31 60 36 60zM309 100q48 -49 48 -72q-17 -28 -24 -28h-32q-21 0 -44 24 v8q30 68 52 68zM885 92q36 -8 36 -20v-24q0 -57 -64 -60q-8 37 -24 84q4 0 52 20z" />
<glyph unicode="U" horiz-adv-x="1441" d="M274 1400l24 -28q19 0 80 24q8 0 40 -24l68 20q19 0 48 -32l6 -43q-6 -49 -66 -49l-28 4q-114 -72 -116 -108q28 -8 28 -32q-18 -37 -24 -52q0 -20 3 -88l-27 -28q32 -12 32 -24q-12 -20 -12 -32v-24q16 -41 16 -60q-20 -39 -44 -68v-32q28 -37 28 -76q0 -10 -8 -29.5 t-12 -70.5q8 -28 8 -32v-12l-16 -20q12 -15 12 -44q0 -4 -16 -24v-4q16 -45 16 -56v-28q30 0 32 -12l-12 -28v-44q6 -9 16 -48q34 0 104 -76q8 0 60 24q29 -34 40 -60l76 28h4q29 -8 32 -8h4q39 32 104 32l20 -4q42 55 68 55q8 0 14 -4l27 60q21 29 21 58q0 6 -1 12 q-5 34 -5 71l-1 36q13 40 16 74l-2 22q-13 32 -13 40q0 13 16 60v24q0 4 -8 32v12q16 56 16 88v4q0 65 -32 104l28 40v28q0 7 16 44q-48 66 -48 80q16 28 16 40q-20 86 -24 124l-24 12l-56 -20h-12q-13 0 -52 32q-64 11 -64 24q0 47 32 76l41 16l19 -5q11 -6 25 -6 q24 0 57 18l69 -21q24 18 48 18q25 0 51 -18q47 26 80 26h8l39 -7l31 -5q45 0 64 -68v-4q0 -49 -112 -56q-59 0 -88 -76q4 -64 4 -76q0 -16 -16 -72v-24l28 -32v-40q0 -14 -16 -32v-52l16 -24v-12l-20 -93l-12 -31q32 -6 32 -24q-19 -86 -28 -121l14 -42q1 -3 1 -9 q0 -23 -18 -93l3 -87l-32 -40v-4q8 -28 8 -32v-12q-9 -35 -56 -64v-36q-72 -101 -122 -101q-6 0 -11 1q-27 -28 -103 -52q-5 0 -40 16q-34 -16 -52 -16q-28 -12 -43 -12q-9 0 -13 4l-40 12q-20 -12 -32 -12q-84 39 -84 52q-24 2 -39 2h-13q-3 -1 -5 -1q-13 0 -17 7 q-6 8 -22 55q-44 19 -67 24.5t-24 19.5q11 30 11 45q-32 22 -32 28l4 24q2 25 2 41t-2 23l-4 32v8l12 40q-32 22 -32 28q5 33 18 57l-26 51l20 52l-24 40v4l44 108q-6 0 -28 28v4l16 68q-2 27 -30 90q6 17 34 42q-24 48 -24 112v16q16 37 16 52v8q0 4 -8 32q0 18 8 64 q-24 24 -32 24l-40 -12h-12l-44 16q0 32 -72 32q-40 21 -40 32q0 44 44 76h40l16 -20q0 11 56 28q76 -8 76 -16z" />
<glyph unicode="V" horiz-adv-x="1378" d="M148 1408q31 -7 60 -20l11 8q29 5 45 11q38 -5 60 -23q40 13 88 20l48 -32h36q22 0 28 -16v-32q-5 -38 -32 -72h-4q-20 12 -32 12h-4q-4 0 -32 -4q-13 -8 -24 -8q-27 12 -40 12h-8v-40q2 -10 2 -23q0 -27 -10 -65v-8q10 -30 56 -82l-8 -114q21 0 56 -76v-16 q-15 -16 -15 -23v-1q23 -13 23 -20l-6 -32v-42l29 -84q-1 -24 -1 -76q0 -26 2 -46l24 -37l-16 -51q30 -16 48 -96q6 0 22 -39v-35l14 -6q21 0 36 56v40q0 46 60 68h36q14 0 44 -24q0 -88 -32 -140q0 -63 -48 -196v-36q-69 -80 -104 -80q-41 44 -68 80l-4 8v88l12 16 q-50 72 -60 152l4 36q-36 40 -36 60v4q0 4 8 32v8q-20 26 -20 40v36q0 5 -36 16v88q-15 48 -40 102l8 90q-16 44 -16 48v68l-44 36l4 48q-21 45 -28 100q-17 40 -32 128q-14 40 -20 40q-15 -12 -28 -12q-64 25 -96 44h-8l-32 -28h-4q-30 19 -44 40v8q16 72 24 72h4 q14 0 36 -4q37 16 44 16l21 9q9 7 18 7q10 0 21 -8zM1064 1390l59 10q73 -32 73 -40q6 0 24 -24v-36q0 -20 -24 -48q-8 0 -40 12q-68 -32 -80 -32l-36 4q-41 -15 -60 -60l-28 -20q0 -4 16 -24l-38 -62q-11 -99 -18 -104q-40 -77 -40 -98q0 -25 -32 -76q-4 -7 -4 -16 q4 -60 4 -88q-35 -35 -36 -48q4 -27 4 -44v-4q-20 -29 -20 -36q-4 -70 -4 -84q-44 -32 -84 -32q-40 2 -40 12q0 13 24 44q-12 26 -20 34l-4 7q13 23 16 31l8 12v36q36 38 36 48q0 36 4 80q-4 27 -4 44q0 13 44 68l8 28v52l-4 22l31 75q-7 39 -7 57q0 15 5 15l19 63l-16 44 q36 14 36 20q-23 32 -44 32q-62 -32 -96 -32q-8 37 -24 84v40q0 11 48 28q12 0 48 -12q23 9 70 23l78 -11q22 0 60 12q12 -8 44 -12q7 -1 13 -1q16 0 31 7z" />
<glyph unicode="W" horiz-adv-x="1481" d="M1097 1418q64 -30 77 -30l45 14q6 2 11 2q30 0 63 -50q13 -3 13 -15q0 -6 -3 -14q-19 -63 -66 -63l-38 -18q-4 2 -7 2q-10 0 -14 -18l-1 -22q3 -10 3 -17q0 -15 -10 -22q-21 -17 -21 -69q-12 -80 -36 -80q-23 -106 -38 -132q-26 4 -42 4q-6 0 -28 28l-9 45l-10 68l13 43 v36l18 40v48q0 13 12 28l-4 34q-46 27 -84 38l-12 20v12q0 35 52 68q17 0 40 -8q35 28 76 28zM641 1410h16q33 -27 57 -43q25 15 59 15q5 0 29 -36l7 -18l-1 -19l-4 -21q-25 -24 -71 -47q2 -37 10 -56l18 -23l4 -20q-4 -69 -4 -84q20 -43 20 -76l3 -14q-12 -18 -12 -38 q0 -4 1 -8l24 -64v-12q-17 -32 -18.5 -45.5t-13.5 -30.5q-11 -36 -35 -36q-10 0 -21 6l-24 26v4l-8 40v68q0 15 -15 113l-2 69q-3 34 -17 34q-4 0 -9 -3l-4 -69l-9 -92v-4q-8 -68 -8 -76v-28q-24 -122 -24 -144q-20 -83 -20 -88q16 -6 16 -28q-11 -56 -80 -56h-8 q-32 16 -32 40v28l-4 46l31 37l-3 113q0 8 28 16q0 9 -4 44q0 16 16 72v4l-12 40q0 8 8 24q3 6 3 19q0 18 -6 49q0 10 27 36q-14 0 -23 62v4q11 33 27 54v44q-52 7 -72 28v56q0 33 48 76h4q21 -13 37 -13q5 0 10 1q52 24 61 24zM189 1402h23q25 -7 55 -26l50 18 q27 -3 56 -92q-12 -44 -36 -45l-8 -8l-48 -15v-36l-28 -20q24 -13 44 -38l12 -20v-8q-8 -40 -13 -79l17 -27q0 -18 -24 -44v-4q24 0 24 -40v-36l20 -45l-16 -51q32 -82 32 -96q-24 -26 -24 -28q4 -19 64 -120v-4q-5 0 -24 -28q12 -32 32 -52v-4l-20 -16q3 -29 12 -40v-56 q20 12 40 36l-4 8v20q0 2 16 20q0 15 -16 40v12q0 12 44 24q56 -10 56 -40h32q1 0 1 -2q0 -12 -49 -110v-4l12 -16q-11 -83 -11 -127q0 -35 7 -45l-9 -35q-12 -25 -27 -85q-8 4 -12 4v-32q-36 -32 -52 -32h-4q-60 0 -60 100q-11 16 -28 116q-3 0 -16 24v36l8 12 q-17 81 -44 108v8q0 28 12 44l-19 37q-17 21 -17 39t16 32q-39 64 -39 117q0 23 7 43q-44 50 -44 76q4 48 4 72q0 12 -12 52v24l8 12l-35 92q-2 0 -2 3q0 9 17 45q-11 5 -28 36v36q-32 37 -32 48l4 36q-38 19 -100 40q-11 12 -24 44v16q19 43 64 72h4q36 0 76 -16 q52 20 56 20zM965 854h32q60 -4 60 -24v-20q-1 -11 -1 -22q0 -20 4 -43l-5 -68v-3q0 -21 -38 -95q-4 -30 -4 -57q0 -31 5 -59l-17 -25q-16 -18 -16 -20l20 -24q-13 -28 -22 -44q-7 -11 -7 -34q0 -10 1 -22q-28 -15 -28 -20l20 -32v-8q-23 -46 -23 -61v-3q11 -43 11 -52 q-20 -23 -24 -72q-7 0 -24 -8l4 -30v-14q-17 -14 -35 -20l-44 -3q-41 13 -41 31q0 12 -20 60l-4 44v32l-28 104v24q0 6 4 15q1 1 1 4q0 15 -17 65q-7 1 -20 32q0 30 28 80v36l-24 36v16l8 12v12q-15 28 -15 47q0 4 1 9q5 19 14 50q-12 4 -12 24q34 20 48 20h6q28 0 42 -28 q7 -31 7 -51q0 -26 -11 -35l15 -55l-7 -49v-4q20 -27 20 -48v-32q24 -29 24 -36l18 -13l14 17q9 41 9 62q0 11 -2 17q-5 13 -5 59v35q0 19 42 27q-32 23 -32 28q21 41 36 92q0 12 -12 56v12q0 30 44 76z" />
<glyph unicode="X" horiz-adv-x="1400" d="M754 1412h12q31 -21 32 -24l8 4h4q9 0 16 -4q33 16 48 16q14 0 44 -20l28 8v-4q23 12 48 12l40 -12q0 11 60 24h4q59 -28 64 -28l12 8h12q6 0 24 -32v-16q-2 -25 -32 -76q-13 8 -24 8l-27 -17l-45 -23q-39 19 -60 19q-9 0 -15 -4l-22 -35q-19 -11 -71 -44v-28 q0 -38 -64 -76v-44q-29 -45 -64 -80v-64q-40 -68 -51 -123q-8 -15 -8 -29q0 -17 11 -32q1 -42 30 -69q25 -36 35 -68q-9 -47 -9 -55q66 -72 66 -81q-1 -6 -1 -12q0 -44 43 -70l8 -73q31 0 36 -64q20 -18 36 -60q34 0 92 -24h28v20q18 32 24 32h4l28 -44q67 -35 80 -48v-16 q-31 -72 -46.5 -75.5t-39.5 -18.5q-14 -10 -22 -10q-32 15 -48 28q-11 0 -56 -24q-4 0 -40 24q-9 0 -64 -24q-4 0 -4 4l-8 -4l-48 24l-68 -24q-21 0 -44 32q-63 -8 -84 -8q-28 28 -28 36q30 38 60 84h4q20 -12 28 -28q20 32 48 40q31 11 31 37q0 28 -34 72l-9 55 q0 13 -37 61q-25 103 -59 103q-9 13 -24 56q-15 27 -34 27h-1q-53 -40 -53 -49l-37 -47v-32q0 -9 -34 -56l-9 -39l-46 -47q-20 -32 -20 -51q0 -6 2 -10q-32 -27 -44 -64q35 -44 56 -44q5 0 32 12q38 -18 60 -64v-16q-7 -52 -60 -52q-13 4 -40 20q-16 0 -68 -20h-4 q-31 23 -56 28l-40 -28q-47 0 -68 32q0 -20 -60 -32q-25 5 -52 48q0 -14 -48 -48h-8q-44 49 -44 68v44q0 11 40 24q14 0 32 -12h12q43 31 68 32h8q14 0 36 -4q24 0 36 56q23 36 60 36v36q0 19 72 104v4l-16 28v4q48 37 84 128q40 45 66 91q-8 13 -8 24q21 19 31 49q6 9 6 24 q0 13 -4 30l-40 79q-5 0 -44 99l-4 29l-20 28l-35 35q-2 28 -4 76q0 9 -52 56v36q-48 26 -48 60q-2 0 -38 22l-41 -4q-13 0 -36 22h-9q-21 -16 -44 -16q-37 18 -60 60v20q25 48 52 60q39 0 76 -40l48 32q4 0 4 -4q13 8 24 8l32 -28q27 36 84 36l40 -28l52 24q56 -29 63 -42 h4l25 6h4q32 -22 32 -28v-36q-14 -32 -25 -32q-15 7 -32 7h-4q-15 -14 -47 -24q-23 8 -43 8h-5q-12 -13 -12 -19q0 -14 43 -58q-1 -6 -1 -12q0 -36 40 -53l3 -25q10 -23 16 -37q9 -56 57 -92q13 -63 47 -63h19q4 0 16 32l9 52q19 14 43 28q31 84 37 127l47 25q0 16 15 83 l-40 39l-53 10q-21 22 -21 41q0 16 15 29q32 29 52 34z" />
<glyph unicode="Y" horiz-adv-x="1452" d="M228 1400q20 -12 28 -12q8 8 68 12l36 -24q51 24 76 24q96 -33 96 -80q-56 -76 -86 -77q-20 11 -35 11q-5 0 -9 -1q-15 -4 -15 -12q0 -2 1 -4q4 -12 31 -38l3 -28l2 -35q34 -18 48 -52v-4q-12 -19 -12 -40q20 -42 64 -72q0 -82 48 -148q16 -8 34 -8q17 0 36 6 q32 70 82 94q24 48 24 116q108 111 108 168q-3 0 -3 13q0 10 2 30l-19 21h-12q-48 -28 -60 -28q-30 56 -56 84q-4 27 -4 44q36 24 48 24h32q17 0 44 -4q52 16 62 16q49 -16 83 -23l29 4q43 6 84 22q22 0 70 -15h32q56 0 68 -24q20 -57 20 -64v-8q-52 -44 -72 -52 q-28 12 -28 16q-35 0 -64 -48l-31 15h-3q-18 0 -45 -10q0 -20 -73 -117v-36q-88 -121 -88 -140q-24 -82 -28 -116q-56 -16 -56 -56q-39 -24 -40 -32v-12q-32 -22 -62 -68q-5 -47 -11 -65l8 -34v-16l-13 -27q-3 -5 -3 -10q0 -13 19 -28q0 -8 -22 -40q20 -10 20 -16v-12 l-20 -116v-4q16 -22 25 -57l-9 -51q0 -52 14 -52t35 8q15 6 32 6q6 0 13 -1q28 -25 54 -25h4q34 16 44 16q41 -40 92 -40q24 -12 24 -16q6 -14 6 -29q0 -20 -10 -43q0 -8 -8 -8q-48 0 -63 19l-41 -31h-40q-7 0 -40 29l-40 -29q-33 0 -48 23q-7 9 -18 9q-16 0 -42 -20 q-20 0 -76 20q-45 -28 -52 -28q-56 13 -60 32l-24 -24h-44q-12 5 -28 26q-9 0 -28 12q-18 -22 -76 -22q-6 0 -32 36v20q6 27 52 48h12l36 -4q30 8 53 16h16q25 -8 63 -16q28 0 28 32q60 23 60 64v44q0 13 12 28v12q-16 21 -16 44v84q0 2 16 20v8q-13 15 -28 76q0 23 12 52 l4 64q0 49 -62 89q-7 9 -18 63q-14 12 -67 71q-7 0 -25 109q-31 48 -72 68l-12 58v4q-50 83 -56 114q-40 33 -76 72q-59 -16 -80 -16q-33 16 -36 16q-22 -4 -36 -4h-4q-24 16 -24 40v56q0 18 104 40q38 -12 60 -12h8q18 0 76 16z" />
<glyph unicode="Z" horiz-adv-x="1113" d="M535 1418q11 0 41 -20l38 4q50 0 91 -12q43 24 50 24l79 -20l33 16h4q46 -30 46 -36v-72l-21 -72l-12 -17q-59 -46 -65 -83l-11 -49l-56 -37q-17 -22 -20 -69q-7 -13 -40 -28q-28 -21 -37 -49q-18 -70 -19 -84l-72 -48q0 -13 -63 -90q-13 -53 -24 -87q-45 -19 -71 -27 l11 -24q0 -13 -44 -56q-14 -44 -17 -70l-41 -38q-36 -13 -58 -52q-39 -132 -63 -132q17 -28 17 -40v-40q10 0 21 -8q31 8 37 8q71 -4 87 -12q0 5 46 36q48 -10 54 -10l38 -8q41 0 88 1q19 16 69 37h4q21 -12 74 -34q30 33 54 36q22 2 22 57v5l12 20q-8 13 -15 32q7 21 20 36 v12q-19 21 -30 64q0 4 30 40l-8 43q11 26 28 47q10 24 27 24q37 -8 37 -18l7 -24q0 -13 14 -46l-10 -22v-8q17 -45 17 -56l-11 -50l9 -34q1 -2 1 -5q0 -12 -20 -39l8 -26l7 -26l15 -47q-1 -18 -30 -37l6 -62q-6 -22 -85 -38l-29 8q-6 0 -50 -12q-17 0 -25 4l-28 8h-15 q-36 -8 -42.5 -10t-18.5 -2q-32 16 -62 16l-74 -25q-23 9 -34 17l-17 4q-32 -12 -41 -12q-15 0 -46 20q-62 -28 -75 -28h-4q-7 0 -75 28q-11 -15 -57 -22l-46 20q-40 -15 -62 -15q-5 0 -9 1q-48 38 -50 60q-4 15 -4 36q66 53 71 94q1 27 20 37q29 29 59 65v36q21 30 58 64 q43 86 47 100q46 11 73 112l13 12l23 6l20 11q31 46 56 124q15 59 22 74l57 21l17 16l-3 50l34 36q56 54 56 99v7q29 14 47 25l3 61q58 49 58 62v16q-34 32 -53 32h-4q-6 -1 -13 -1q-11 0 -19 5q-15 7 -36 8h-12q-19 -13 -38 -16q-3 -1 -6 -1q-17 0 -39 21l-13 8h-4 q-17 -13 -50 -28q-30 3 -41 12h-29q-12 0 -58 -28q-6 0 -42 4q-47 0 -65 -51l-3 -92q-2 -11 -26 -41l-1 -76q-39 -31 -39 -55l-12 -16q-8 -1 -15 -1q-36 0 -51 24v24q-4 25 -4 39q0 9 2 13l11 36l-16 59l-5 37l29 36v12l-9 41l-9 26q4 10 26 53q29 18 29 68l42 28 q120 -7 120 -16q4 0 54 16q7 0 38 -8l55 14q30 -14 53 -14t87 24z" />
<glyph unicode="[" horiz-adv-x="722" d="M469 1747q68 -21 84 -56v-24q-13 -28 -68 -52q-12 -12 -32 -56q-46 -66 -68 -88q-12 0 -12 -8q20 -27 20 -40q-17 -20 -56 -20h-20q-7 -46 -72 -128q-12 -20 -12 -40v-20q12 -15 12 -28q-19 -15 -60 -36q-9 -78 -20 -120q-16 -25 -16 -48v-20q12 -15 12 -28q-6 0 -28 -28 l20 -60q-36 -9 -36 -48v-12q0 -10 20 -44q-16 -24 -16 -36q8 -13 8 -24l-16 -24q16 -24 16 -36v-48l32 -32v-28q-8 -28 -8 -32q0 -34 44 -68l4 -20v-4q-4 -30 -4 -60q28 0 40 -112q36 -15 36 -68q12 -35 88 -80v-44q0 -50 60 -76q104 -114 104 -172q4 -16 4 -28 q-8 -18 -16 -20h-28q-51 48 -64 48h-4q-13 -8 -20 -8q-9 25 -40 52q0 72 -80 88q0 43 -60 72v4q12 16 12 24q-48 54 -48 60q-9 58 -40 100q-9 4 -32 52q-11 0 -24 88q0 11 -32 104q0 7 -32 32v24q8 16 20 16q-28 63 -28 124q4 35 4 44q-28 52 -28 124q5 0 20 24v20l-16 24 v20q0 14 20 40q0 8 -12 32q32 45 32 64v32q0 6 20 16l-4 48v52q32 21 32 64q14 22 28 68q36 39 36 68q36 59 36 64l-4 36q23 8 48 84q20 16 60 32q0 76 140 172q39 8 44 8z" />
<glyph unicode="\" horiz-adv-x="1098" d="M-33 1776q44 -12 61 -64q45 -47 56 -47q0 -14 -4 -36q0 -5 24 -20q0 -58 32 -120q48 -36 48 -72q27 -94 68 -124q-8 -28 -8 -32v-4q33 -56 64 -72q0 -33 64 -144q0 -23 24 -80v-52q56 0 56 -64v-20q48 -55 48 -88q32 -9 32 -56v-32q27 -32 32 -32q0 -44 16 -44 q72 -78 76 -148v-16q64 -50 80 -92l28 -84v-16q0 -13 -12 -28l-20 4h-4v-24l-16 -24q-14 0 -36 24v28q0 25 -60 92v60l-20 24q-36 0 -36 40q0 18 -68 92q-2 80 -40 92q8 32 8 40v12q-35 18 -56 48q0 35 -40 40q-6 92 -44 92v4q0 11 8 24q-42 62 -72 128q-40 10 -40 60 q-48 91 -48 124q-34 30 -40 52q-43 28 -44 40v68l-28 4q-32 0 -47 100l-61 80q-18 29 -40 48q1 5 1 11q0 47 -49 85q0 20 1 48q7 76 79 76q5 -4 27 -5zM800 109q32 -10 32 -16v-40q20 -17 20 -20v-48q0 -12 -12 -32l-56 28q-4 36 -24 92q0 33 36 48q4 -8 4 -12zM897 -81v-33 l-25 -24l-18 27q-7 13 -7 23q0 15 16 23zM952 -171q0 -6 -16 -12q0 -11 8 -28q36 -13 36 -48q-10 -20 -48 -36q-6 12 -12 12q-10 87 -20 96v28l4 8q48 -4 48 -20z" />
<glyph unicode="]" horiz-adv-x="704" d="M49 1730q75 0 164 -64q44 -77 56 -112q48 -37 48 -72q8 -13 44 -40q0 -32 12 -32t12 -8q-4 -22 -4 -32q48 -68 48 -100q6 -6 16 -84q12 0 20 -56q16 -6 32 -80q6 0 20 -28q-8 -25 -8 -32q5 0 20 -20v-16q-20 -69 -20 -84l8 -28v-36q16 -21 16 -36v-16q0 -2 -24 -24 q14 -40 20 -76q-20 -134 -28 -164q-8 0 -20 -136q-18 -17 -40 -76q-12 0 -24 -84q-52 -13 -52 -84q-21 -40 -52 -84q-13 -60 -56 -60q-68 -60 -68 -104q-12 0 -48 -44q-26 -24 -76 -24v-4l8 -12v-4q-17 -24 -56 -24l-4 8v52q0 19 56 76q0 40 80 92q0 13 52 44q0 4 20 28v28 q0 9 28 72q0 26 28 36q15 1 52 76v8q-1 10 -36 28q68 30 68 84q12 53 12 60q-4 50 -4 52q32 60 32 172q9 0 12 68q-15 25 -32 132q12 20 12 32v4q-8 101 -28 116l4 40q-5 23 -36 44q-8 13 -8 24q12 31 12 44v12l-36 56v28q0 44 -20 44q-84 46 -84 120q-112 83 -112 132 q-52 76 -92 76l-4 8v24q0 40 60 60z" />
<glyph unicode="^" horiz-adv-x="836" d="M12 1429q-9 25 -9 87l21 67q51 53 51 64h-3q0 26 38 41q1 -6 24 -9h4q50 70 93 70q41 60 65 73q49 0 94 16l20 -13l42 -54q44 -7 58 -16q19 -32 32 -38q0 -35 17 -51q2 -58 24 -58l37 -19q11 -25 11 -38v-3q21 -26 21 -38v-13l-7 -32q0 -34 -48 -41q-17 0 -31 28 q-45 35 -45 51l-66 23q-39 58 -69 70q-38 20 -61 20q-28 0 -33 -31q-55 -44 -55 -51q-71 -23 -71 -38q-27 -17 -43.5 -41.5t-43.5 -31.5q-10 -3 -21 -3q-21 0 -46 9z" />
<glyph unicode="_" horiz-adv-x="1245" d="M160 102q11 0 56 -12h4q10 6 16 6l8 -3q23 9 48 9l40 -15q14 0 68 15q22 0 44 -12h12q11 0 56 12q66 -15 80 -15q37 12 44 12h8q21 -12 36 -12h8q38 0 56 12q19 0 48 -21h24q49 18 56 18q0 -4 32 -12q40 6 48 6q88 0 112 -38q4 -41 4 -50q-27 -62 -72 -62q0 -4 -76 -15 q0 -3 -76 -15q-36 18 -36 21q-11 0 -60 -9h-12q-13 9 -60 15q0 3 -4 3h-24q-7 -6 -68 -12l-40 6q-24 -6 -36 -12h-12q-6 6 -72 18q-25 -21 -44 -21q-30 23 -68 23q-31 -11 -40 -11h-56q-41 0 -56 -9h-16q-132 40 -132 56l-8 9v15q0 23 -4 56q12 23 60 38h4q9 -6 64 -15z" />
<glyph unicode="`" horiz-adv-x="667" d="M181 1831q42 -44 64 -44q8 0 18 -33.5t86 -126.5q0 -51 32 -84q20 0 20 -48q56 -31 56 -64q0 -18 32 -36v-20q0 -40 -24 -64q-73 0 -140 80q0 7 -48 20q-69 95 -116 108q-50 84 -68 84q-33 0 -44 32q-52 66 -52 112q15 52 44 92q37 -12 60 -32h4q30 34 52 40q8 0 24 -16z " />
<glyph unicode="a" horiz-adv-x="1267" d="M415 1029h36q19 0 40 -20q32 12 40 12h48q12 0 32 -12q37 12 44 12q60 0 60 -52l40 4h32q6 0 32 -44q44 -21 44 -68q32 -27 32 -48v-44l8 -12v-24q-16 -17 -16 -40v-32q8 -28 8 -32v-4q-32 -26 -32 -44v-8q12 -69 28 -124q-20 -16 -20 -20q8 -30 8 -36q0 -2 -4 -52 q0 -2 16 -48v-4q0 -6 -36 -28v-28l8 4h8q19 -25 40 -88l24 -28q36 12 36 32q5 24 32 56h4q86 -4 92 -76v-4l-20 -16v-4l20 -28l-5 -18q-30 -10 -75 -66l-28 -16q-51 3 -55 8h-3q-4 0 -13 -14q-28 6 -41 6q-54 11 -72 60q-96 44 -108 44q-37 -44 -120 -44q-32 -32 -124 -32 q-2 -12 -52 -20q0 -4 -4 -4h-36l-12 8h-4q-45 -16 -56 -16q-30 24 -52 24h-52q-14 0 -68 48h-8q-28 -16 -40 -16q-33 39 -72 64v72q16 44 16 48q0 9 -48 48v4l28 40v4q0 4 -8 32q0 13 32 36q0 69 60 116q6 16 12 16q20 -18 20 -28h4q28 32 52 32q88 36 116 36h8l28 -4 q32 10 60 48q23 2 36 12h36q42 0 56 44l12 8q44 -35 44 -56q37 0 76 36q17 -7 36 -24q40 23 40 60q55 20 68 20q0 28 -56 32q0 60 -24 60v44q-39 36 -108 60v4l-40 -4h-48q-14 0 -36 4q-22 -5 -32 -12h-4q-18 0 -44 24q-46 0 -64 -88q0 -20 -8 -20h-32q-24 0 -24 -16 q8 -13 8 -24q-53 -89 -64 -100l-28 -16q-104 48 -120 48l-28 32v52q34 108 68 108q28 0 32 60q37 44 124 44q18 16 36 16h24q22 0 56 -4q21 9 44 28zM643 499l-23 -31q-29 8 -34 8q-48 -32 -111 -32q-33 -11 -33 -31t-7 -20q-31 8 -40 36q0 4 -4 11l-67 -7q-23 10 -34 19h-3 q-23 -17 -23 -19q3 -35 3 -43q-19 -5 -27 -12h-17l-10 8h-44q-6 0 -13 -79q-27 -12 -27 -19v-12q17 -1 17 -12v-43q23 -27 23 -43q-6 -1 -6 -7v-8q0 -39 30 -39l10 -8h10q11 10 30 12q14 -34 37 -63q0 6 31 31q49 -4 53 -11h10q24 35 48 35q0 4 3 4h23l11 -8h10q35 25 46 56 q3 2 6 2q10 0 25 -15l20 -4q0 22 54 39q55 49 60 66q8 63 14 63q18 8 30 8v16q-13 42 -13 54q18 16 30 16q0 17 -47 27q-24 14 -24 43z" />
<glyph unicode="b" horiz-adv-x="1098" d="M-59 1413q10 0 44 -8q32 8 52 8q27 0 80 -32q59 20 64 20q52 -20 52 -68q0 -21 40 -80v-16l-8 -12v-84l-16 -24v-16q-8 -68 -8 -76v-72q0 -4 68 -56h8q62 56 72 56v-4q15 0 88 48l16 8l40 -24q29 16 80 16q35 0 76 -36q50 0 92 -80q74 -49 92 -108q0 -28 20 -52l12 -16 v-4q-12 -36 -12 -40v-4q12 -38 12 -60v-24l16 -28q-4 -44 -4 -76v-4q0 -19 -20 -40q24 -40 24 -52v-32l-20 -28v-40l-24 -32v-28q-39 -116 -88 -116q-8 -44 -40 -44q-20 0 -20 -4q0 -40 -60 -56l-116 -40h-28q-23 0 -44 16h-8q-22 -16 -40 -16q-31 0 -60 20q-68 42 -68 56 q-31 56 -52 56l-20 4q-26 -26 -28 -48q0 -25 -52 -32q-28 24 -28 44q8 26 8 32l-16 28v16l8 12v52q-8 0 -20 92q-4 0 -4 4v28q0 18 28 48q0 14 -12 32v20l8 12v20q0 4 -8 32v20q9 9 16 60q-4 70 -4 84q0 2 4 52l-16 60v48q12 15 12 36v32l-28 40v36l8 12v44q0 36 4 80 q-4 16 -4 32q8 30 8 56v8q0 40 -36 40q0 4 -4 4h-4q-75 0 -92 28v28l-64 52l-4 8v24q0 32 28 48zM229 577q20 -18 20 -20v-4l-32 -44v-24l24 -40v-16l-12 -16v-4q32 -10 32 -20v-4q0 -13 -12 -28v-40q30 -79 44 -100q0 -44 20 -44q44 0 72 -84l36 4q52 -3 52 -36h4 q53 20 88 20q42 -8 44 -8q33 38 104 92q24 56 32 128q44 56 44 72q0 13 -12 28v8q0 3 20 20q-17 14 -36 52v36q8 16 24 16v32q-8 13 -28 92v4q16 17 16 32q0 66 -80 108q-55 53 -72 56q-20 -12 -32 -12q-26 27 -56 36h-16q-9 -7 -68 -20q-81 -84 -96 -84q-60 -25 -60 -104 q-25 -17 -48 -76q-16 0 -16 -8z" />
<glyph unicode="c" horiz-adv-x="1065" d="M329 1045l45 -23q21 13 48 14h4q33 0 72 -17q32 9 52 9h4q35 0 61 -33q2 0 52 5h3q53 0 76 -69q47 -17 82 -53q20 -22 34 -71l17 -27l1 -24l-8 -13l2 -48q-32 -46 -45 -93q-77 -31 -79 -31q-120 12 -122 64l-5 23q2 28 9 92q61 55 76 56v8q-51 7 -88 57l-1 8l-27 -5 l-8 -1q-72 22 -81 22q-30 -9 -56 -10l-28 -1h-2q-9 0 -38 10q-28 -25 -75 -38q-89 -55 -89 -76q-5 0 -66 -66l4 -8q-10 -40 -41 -81q0 -10 13 -28v-4l-23 -41l5 -127l33 -35l3 -84q21 -90 54 -90h1q28 -15 58 -58q24 -15 35 -15h2l36 1q38 -21 53 -46q25 31 59 34h8 q41 -27 44 -90v-4q-20 -41 -71 -43q-35 34 -52 34h-1q-18 0 -36 -13h-12q-41 15 -102 56q-35 15 -65 22q-1 55 -28 55h-1q-60 39 -102 169q-1 12 -50 146v16q16 54 22 61v8q-1 2 -25 27l-1 16q11 32 37 77q8 21 9 85q40 42 40 108v9q19 33 51 34q77 91 113 92h4q25 0 40 -11 l40 26q7 23 26 33zM779 328h7q53 0 55 -78l1 -24q-19 -21 -30 -57q-54 -7 -54 -36v-7q0 -35 -15 -35q-61 -23 -115 -29v-1q0 -38 -63 -41h-8q-48 0 -48 22q-4 0 -5 4v12q27 37 33 81l20 1q162 31 162 54v4q0 44 19 44q18 1 27 17l-1 36q4 31 15 33z" />
<glyph unicode="d" horiz-adv-x="1172" d="M564 1396h8l44 -24h32q11 9 44 16q13 0 68 -28q32 8 48 8q36 -19 36 -24v-40q0 -12 16 -36q0 -2 -4 -52q8 -26 8 -36q0 -9 -16 -44q12 -20 12 -32v-4q0 -9 -28 -72v-12q12 -15 12 -56v-12q-12 -36 -12 -40v-36q0 -16 24 -52v-24q-28 -87 -28 -120v-12l20 -24 q0 -50 -24 -128v-4q20 -26 20 -32q-20 -31 -20 -36l4 -36q0 -9 -4 -44q20 -58 20 -68v-44q-36 -46 -36 -88q-20 -10 -20 -16q28 0 52 -48v-20q26 -12 64 -12q32 0 48 12h4q52 -16 52 -28v-32q-12 -56 -80 -56l-32 16q-42 -16 -68 -16q-5 0 -66 18q-54 42 -54 58q2 20 2 30 t-2 10q-4 0 -21 -22q-14 -19 -32 -19q-4 0 -7 1q-15 -7 -52 -56h-12l-12 8h-4l-84 -24q-42 24 -56 24h-4l-32 -28h-40q-45 20 -52 20l-32 -16q-84 43 -84 76q0 18 -56 36q-33 66 -81 108q-15 7 -15 23q0 3 1 7q-9 92 -9 102q-14 37 -25 50.5t-11 19.5q0 5 20 38v47 q-10 26 -10 51l-10 22v16q25 36 32 50q2 5 2 14q0 16 -8 47q-4 18 -4 30q0 17 7 25q12 13 39 58q0 39 40 72q45 0 76 80q4 0 48 24h24q21 0 76 40l28 8h4q7 -9 72 -16q21 11 32 11q6 0 9 -3q11 -13 39 -32h8q54 28 64 28q12 -5 24 -40l16 -40q0 -3 28 -24q32 8 52 8l28 -4 q0 5 8 44v16q-9 52 -11 61v3q0 12 11 56q-4 67 -4 104v40h-4q-26 -8 -33 -8q-13 -6 -20 -6q-8 0 -11 5q-29 22 -36 27q-6 3 -17 3q-6 0 -12 -1q-19 -4 -35 -16h-4q-48 46 -48 48h-4q-4 0 -24 -16q-96 10 -96 80v28q0 10 48 24h36q25 0 56 -12q27 11 40 20zM392 900 q-17 -39 -56 -72h-40q-26 -11 -56 -72l-28 -20l4 -20q0 -34 -60 -52q-16 -37 -16 -44q12 -30 12 -64v-24q-20 -21 -20 -36v-4l9 -29q-15 -27 -21 -35q28 0 32 -44v-4q0 -19 -12 -40q5 0 28 -32v-36q0 -36 20 -50q16 -12 16 -24v-4q4 -25 8 -34t39 -20q4 2 8 2q10 0 19 -14 q12 -21 46 -44q53 -6 88 -28h4q16 13 34 35q8 9 18 9q14 0 32 -16q43 23 108 76q7 0 36 16l-16 28v8q48 30 48 64q2 23 12 36q-12 26 -12 36v32q0 5 16 23q9 10 9 25q0 13 -5 28q16 33 16 52q-26 17 -42 44q20 42 31 83v3q0 40 -69 74q0 46 -20 76l-64 -8q0 39 -28 84 q-16 -27 -72 -40q-20 29 -44 76h-12z" />
<glyph unicode="e" horiz-adv-x="1065" d="M300 1049q42 -24 56 -24q37 20 44 20q40 0 80 -16q37 16 44 16h40q7 0 24 -28q5 0 44 -16q13 8 24 8q32 0 72 -72q50 -24 56 -24q56 -10 56 -40q0 -33 32 -72q4 -27 18 -49v-32l8 -12v-32q0 -9 22 -55v-44q0 -3 -27 -52q-13 -15 -31 -26q-8 -4 -23 -14q-22 -2 -35 -13 l-21 6l-27 -5q-11 -9 -28 -16q-32 16 -32 20q-14 0 -64 -12h-4q-43 12 -84 20q-35 -24 -44 -24q-29 20 -40 20q-8 -25 -48 -40h-8q-87 40 -100 40h-32q-9 7 -32 12q-35 -52 -72 -52l-28 8q-12 -4 -12 -24v-28q0 -56 36 -56q24 -10 24 -48q26 -104 32 -104l36 -24l12 8h12 q54 -50 72 -56h24q52 0 68 -68v-24q0 -20 -20 -36q-59 0 -88 36l-28 -4h-52q-27 0 -132 96q-29 0 -68 100q-24 0 -56 116q-11 35 -39 57q26 26 27 47q0 8 -32 16v4q0 15 28 48l-40 44l23 41q11 68 37 143q36 67 80 100q20 72 88 116h8l24 -4q27 3 92 104h4zM464 913 q-24 -48 -64 -48q-36 20 -48 20q-27 -41 -78 -41q-8 0 -16 1q-28 -8 -28 -52q-33 -24 -44 -24q4 -35 4 -44q-41 -30 -70 -64v-20l8 -17h3q20 0 52 11q7 4 12 4q9 0 9 -18q20 -28 48 -28q15 28 22 34l10 -6q37 -22 60 -24q38 48 76 48q22 -52 48 -52q0 8 32 24q9 0 68 -36 q17 35 68 48q20 0 68 -36q69 11 89 34q-30 29 -30 56q0 1 1 3q1 28 1 35l-12 26q-52 74 -74 74h-12l-41 8q-4 -1 -7 -1q-11 0 -13 9q-2 8 -2 24v12q-22 12 -36 12q-17 -31 -28 -36h-28q-27 50 -48 64zM832 321h32q12 0 32 -56v-8l8 -12l-20 -84q-93 -104 -128 -104 q-74 -34 -89 -47t-28.5 -17t-22.5 -12h-24q-35 17 -36 20q-33 -12 -56 -12q-36 0 -36 24q-4 29 -4 72q0 6 24 24h20q50 0 104 36q58 0 96 60v4l1 16v1q0 7 14 13q15 6 53 30q29 52 60 52z" />
<glyph unicode="f" horiz-adv-x="1179" d="M585 1420h16l60 -20q7 -4 16 -4h24q47 0 84 -12q38 24 48 24l88 -60q72 -19 72 -56q16 -16 28 -36v-128q-28 -87 -36 -88q-28 -12 -100 -12h-32l-12 -8h-24q-53 35 -53 95v7q-21 14 -21 22q10 11 10 16q0 9 12 24v12l-20 -4q-80 22 -80 52l-12 12q-136 -37 -136 -76 q-4 0 -12 -16l-44 -12q-40 -8 -40 -48q10 0 16 -32q-28 -19 -28 -28q28 -25 28 -56h8q0 23 44 32q5 0 20 -36l24 -12q18 84 72 84l60 -68h8q8 0 32 12q77 -48 84 -68q0 -65 -84 -100h-4l-24 28q-22 -4 -36 -4q0 -30 -64 -32q-52 28 -52 40q0 8 -4 8q-41 -32 -76 -32 q-24 16 -36 16h-8l4 -40v-80q20 -21 20 -28l-16 -56v-104q-8 -72 -20 -116q0 -2 16 -48v-32q0 -4 -16 -48q12 -38 20 -108l-28 -16q12 -20 12 -28q0 -2 -4 -52q16 -6 16 -28q30 0 60 32h32q6 0 44 -52h4q0 29 64 36q36 -20 56 -48q17 28 24 28h16q37 0 44 -36q4 0 4 -4v-40 q0 -8 -8 -8h-48q-21 20 -36 20q-10 -20 -32 -20h-40q-8 0 -40 12l-24 -12l-56 4q-86 -4 -128 -4q-13 0 -36 16h-32q-60 0 -60 28q-8 0 -8 8v52q1 6 44 32q12 0 12 -44h4q13 0 48 24l-28 80v4q0 20 12 40q-12 20 -12 32q0 57 12 72v80q0 4 -8 32v40l8 12v32q0 5 -32 88v4 q20 120 20 244l-24 4h-48q-13 10 -36 12q-31 -16 -40 -16q-80 16 -92 36v24q0 58 40 68q6 14 44 24l64 -32h12q18 7 68 16q16 22 16 40q-6 0 -24 24q9 92 16 92v16q0 4 -8 32v16q0 48 112 116q77 84 104 84q32 0 60 -24zM-3 100h20q6 0 32 -36v-40q0 -6 -24 -24 q-58 0 -76 28v4q1 20 8 20l-4 8q5 12 44 40zM141 88q0 -4 24 -36v-40q0 -5 -36 -24h-8q-44 14 -44 20q-4 22 -4 32q0 48 40 48h28z" />
<glyph unicode="g" horiz-adv-x="1271" d="M518 1044h40q35 -12 60 -32q88 -8 88 -32q9 -32 24 -32q10 0 20 -8q36 0 92 56q17 15 64 32l40 -20q32 12 40 12q48 0 64 -28q9 -17 40 -60v-36q0 -50 -36 -88q-16 -76 -28 -76q-68 0 -68 32l-48 32q-3 3 -11 3q-17 0 -57 -15q0 -13 16 -36v-36q25 0 36 -44v-8 q-15 -33 -48 -72q0 -15 -32 -72v-32q-50 -84 -92 -92q-27 -44 -72 -44l-72 20q0 -15 -24 -32h-32l-40 12q-43 -44 -64 -44q-36 68 -72 68q-32 -8 -52 -8l-28 4q-37 -24 -92 -40q0 -12 -20 -12v-20q0 -41 -12 -56v-16q16 -18 16 -56q12 12 28 16t20 4h12q4 0 35 -23 q40 40 66 47q14 27 25 27q2 0 5 -2q11 -8 19.5 -18t29.5 -15h52l28 -8q0 5 32 35q24 22 37 22q5 0 8 -3l16 -24q7 -12 15 -14h16q11 0 56 16l72 -40q18 13 36 23q5 2 9 2q13 0 23 -21q18 -24 28 -24q20 12 32 12q34 0 76 -56q9 10 18 10q12 0 25 -15l33 -43q16 0 26 -15 q14 -22 27 -39l9 -39l8 -20q11 -20 14 -39q0 -108 -46 -163q-18 -61 -78 -61q-86 -50 -100 -52q-100 -20 -100 -52h-8l-36 28h-12q-16 0 -52 -32h-4q-46 16 -48 16q-14 0 -72 -32q-68 36 -80 36h-4l-24 -16h-8q-12 6 -76 24l-20 -16h-8l-60 48l-72 -28q-18 52 -92 52 q-92 55 -92 128q-28 44 -28 56q20 32 20 66t-10 41q-2 1 -2 5q0 11 22 40q6 41 38 76v64l-20 32q0 38 28 68l-16 20q0 115 28 132l36 60h12l12 -8h16q28 28 28 88v32l-28 96v24q8 11 20 72q4 0 4 4v36q0 25 84 92q30 84 96 84q47 24 76 44h32q59 8 68 16zM246 644 q8 -30 8 -44q0 -10 -4 -12q-2 -8 -2 -17q0 -31 26 -61q30 -38 49 -38q1 0 2 1h3q19 0 66 -33l12 8h8l64 -48q23 21 60 48h40q43 29 60 72q8 7 14 7q3 0 6 -1l20 -10q52 19 52 60q0 40 14 52.5t14 35.5q-12 31 -40 72q-4 21 -4 40v12q0 8 -8 8h-8l-14 11h-4q-20 1 -34 9l-7 5 q-5 3 -9 24l-8 35q-12 27 -20 32q-3 1 -8 1q-8 0 -19 -4q-20 -7 -29.5 -17t-16.5 -15q-1 -1 -2 -1q-11 0 -53 40h-4l-124 -56q-22 -56 -56 -56q-21 -28 -21 -61q0 -5 1 -10q2 -16 2 -26q0 -16 -4 -20q-6 -7 -22 -43zM240 96q-6 -13 -38 -36q-48 0 -68 -40q-20 -33 -20 -57 q0 -5 1 -10q9 -9 10 -13v-1q0 -5 -15 -15q-24 -24 -24 -40q33 -116 92 -116q116 -26 156 -72q14 -24 36 -24v20q34 32 56 32q49 -28 76 -28q25 20 48 20q0 -3 28 -28q10 0 104 44q22 -24 28 -24q18 3 48 40q70 -20 84 -20q0 48 40 48q47 18 76 48v72q28 59 28 64v16l-12 16 q0 52 -18.5 60t-21.5 8q-23 0 -100 4q-55 -4 -68 -4q-46 0 -56 32q0 4 -4 4h-36q-66 0 -120 -20q-48 32 -68 32q-38 -28 -48 -28q-34 28 -72 28q-12 -20 -28 -20h-10q-45 0 -59 16q-4 2 -8 2q-9 0 -17 -10z" />
<glyph unicode="h" horiz-adv-x="1348" d="M51 1395q8 0 52 -12h16q44 12 56 12q61 -26 100 -88v-12q0 -9 -20 -12q0 -8 20 -44l-20 -32v-4l20 -32v-12q0 -13 -12 -28l11 -56q-11 -76 -27 -124q7 -17 7 -31q0 -10 -5 -18q-10 -17 -12 -41q6 -41 10 -55v-9q0 -12 -7 -31q-8 -13 -13 -27v-44q3 -24 12 -24q19 0 24 68 q21 44 56 72q20 0 40 56l64 40q38 10 84 68l20 12h8l20 -12q53 16 92 16q12 0 32 -8q53 12 88 12q119 -62 148 -112q9 -26 40 -60q2 -5 2 -11q0 -12 -6 -29q16 -28 18 -38q1 -4 1 -10q0 -13 -3 -36q8 -33 15 -49q3 -10 3 -22q0 -10 -2 -21q-14 -25 -28 -128v-16 q11 -32 16 -48q-9 -23 -12 -36q-5 -17 -5 -36q0 -12 2 -25q4 -25 11 -34.5t12 -28.5q0 -15 -16 -36l-6 -24q12 -34 14 -64q-4 -35 -4 -44q13 -16 53 -24q24 -9 37 -9q6 0 10 2q13 5 41 11l31 -6q24 -21 24 -40q-8 -60 -48 -60q-32 32 -52 32q-28 -26 -40 -26h-32 q-23 0 -37 8q-11 5 -29 5h-10q-26 -10 -44 -10q-11 0 -19 5q-19 11 -53 12q-26 -16 -40 -16q-29 3 -45 12q-6 2 -11 2q-12 0 -24 -10q-12 -5 -23 -5q-9 0 -16 3q-19 6 -29 30q-1 9 -1 17q0 22 13 28q18 7 32 23q7 9 22 9q11 0 26 -5q27 16 39 26q6 5 16 5q7 0 17 -3 q8 -3 16 -3q15 0 33 9q23 49 23 62v8q0 16 -24 48l1 20l23 60q0 4 -8 32q-8 21 -8 40q0 18 7 34q13 33 13 46q-15 19 -15 38q0 6 2 13q19 24 19 42q0 13 -8 23q-14 15 -14 38q0 15 6 34q14 36 14 48q-10 0 -32 24v72q0 6 -12 12h-8q-7 0 -36 -12q-56 0 -56 44v24 q-21 0 -76 -20l-40 4q-23 -52 -48 -52q-63 -19 -80 -48q-40 -52 -52 -52q-15 0 -56 8v-4q8 -13 8 -24q-18 -42 -40 -76q0 -45 -32 -60q-52 -42 -52 -56q4 -34 4 -52q-8 -26 -8 -36v-12q0 -8 8 -76v-16q0 -38 -16 -56v-12q12 -15 12 -36v-92l4 -28q21 20 36 20q30 -18 54 -18 q10 0 19 3q12 4 21 4q11 0 17 -6q10 -10 20.5 -11.5t26.5 -13.5q13 -10 13 -25v-5q-3 -19 -36 -43q-9 -6 -20 -6q-18 0 -44 15q-4 1 -10 1q-15 0 -37 -5q-13 -6 -25 -6q-11 0 -22 5l-22 9q-11 0 -37 -10q-10 -4 -18 -4q-12 0 -18 10q-6 9 -15 9q-8 0 -17 -5q-24 -8 -50 -8 q-55 0 -76 54q0 12 28 32h8l14 -19q18 8 32 11h2q13 0 28 -24h4l8 28v52q12 39 12 68v40q0 16 -20 52q0 13 8 112q0 4 -16 52l16 56q0 51 -16 108v28q16 48 16 80v8q0 23 -8 37q-2 3 -2 9q0 22 22 82l-4 24v8q-12 14 -12 48v20q0 9 20 48q-18 29 -48 104q0 18 28 52v8 q0 71 -44 104h-12q-80 0 -80 40q-8 0 -11 11q-2 4 -2 9q0 12 5 32q41 48 68 48zM-4 32l12 -26q3 -7 3 -11q0 -10 -14 -10h-4l-19 1q-23 8 -24 20v2q0 10 6 17q7 8 28 14zM562 43h2q12 0 23 -9q8 -8 8 -23q0 -6 -1 -14q-11 -14 -20 -19l-24 2q-32 8 -32 21q0 12 9 23t35 19z " />
<glyph unicode="i" horiz-adv-x="1127" d="M404 1419h4q46 0 120 -52q1 -18 60 -48v-52l-32 -80q-20 -25 -96 -68q0 -5 -40 -40q-41 0 -60 64q-80 34 -80 124v56q0 15 96 48q0 15 28 48zM427 1007q5 2 12 2q15 0 36 -14q29 -20 45 -44q14 0 16 -40q4 0 4 -4v-60l-8 -12v-60q24 -28 24 -44q-5 0 -32 -32 q0 -15 16 -36v-28q0 -17 4 -44q-44 -68 -44 -76h4q28 -14 28 -20v-40l-24 -32q23 -34 24 -76q-4 -26 -4 -52v-48l16 -20v-4l-20 -20v-16q32 -21 32 -52q0 -22 40 -36q32 12 40 12h4q21 -16 36 -16q31 36 76 36q28 -16 40 -16l68 28q12 0 88 -92v-8q0 -40 -60 -56 q-30 -20 -44 -20l-36 12l-44 -12h-44q-21 16 -36 16q-55 -8 -60 -8q-41 8 -76 12q-1 -6 -40 -28h-8q-42 36 -68 40q-37 -20 -48 -20q-6 0 -52 16h-24q-17 -13 -48 -28q-44 24 -56 24h-8q-44 -12 -56 -12q-33 8 -36 16q-27 -16 -48 -16h-36q-19 0 -44 28v40q0 5 40 36 q9 0 44 4q4 -7 4 -20h4q21 0 56 36h4q60 0 60 -28h8q0 26 60 56q36 -20 48 -20h24q0 50 72 84q-4 40 -4 60v28q0 3 -28 28v4q24 36 24 48v64q0 23 16 40q-40 17 -40 24v4q0 8 32 60q-5 52 -16 64v16l12 40v4l-12 40v36q0 23 -16 44v48q-116 10 -116 20q-36 0 -56 -15 q-12 -10 -23 -10q-7 0 -13 5l-24 40l-80 -20q-44 16 -44 48v24q13 41 48 64h4q6 0 56 -20q39 24 48 24q34 0 76 -32l35 11l13 5q13 8 24 8q8 0 32 -28q32 15 46 21.5t33 14.5z" />
<glyph unicode="j" horiz-adv-x="847" d="M493 1436h36q54 -17 88 -56q20 -5 20 -12v-40l32 -32v-44q-87 -96 -152 -96q-28 -24 -36 -24q-60 30 -96 84l-44 52v40q28 28 28 36q-12 20 -12 32v4q16 28 20 28q8 0 40 -8zM465 1076q22 0 76 -60q0 -8 5 -8q3 0 7 2q12 6 24 6h32q31 -24 40 -28q-4 -50 -4 -56 q0 -46 20 -144v-20q-20 -50 -20 -88q20 -36 20 -48v-20q-20 -46 -20 -52q8 -28 8 -32v-76q-20 -47 -20 -80v-4q0 -29 12 -68v-12q-12 -15 -12 -28v-76q0 -22 12 -60v-12q-12 -43 -12 -100q0 -18 12 -36l7 -39q-35 -56 -35 -61q3 -29 12 -40v-32q-35 -124 -90 -124h-2 q-40 -85 -108 -108q-46 32 -64 32q-5 0 -40 -24q-11 0 -44 20l-64 -16q-40 0 -72 48q-112 11 -112 92l-36 32v116q-16 21 -16 48q0 35 44 64q0 30 76 76l28 8h4q44 -11 80 -28q32 0 32 -12q3 -72 8 -72q23 -12 32 -12v-44q-6 -13 -76 -60q-64 -29 -64 -84q0 -38 52 -48 q52 -29 52 -72h24q0 37 40 68l64 -28q32 0 32 60q18 46 40 52h12l24 -16h4l12 40v28q12 46 16 96q-12 20 -20 50l8 26l12 40v4q-20 51 -20 88l24 36v28q-7 33 -16 44v36q7 9 16 72q-22 86 -22 105q0 4 1 6q5 7 21 65q-18 67 -18 75t14 85l-9 35q0 16 13 41v4q0 51 -60 80 q-31 44 -36 44l-76 -28h-4q-27 24 -36 24q-31 -28 -76 -28q-8 48 -20 48q-56 -32 -68 -32q-37 25 -80 48q-12 29 -12 36q8 26 60 48l20 4h44q20 -1 20 -8l8 4q8 -4 12 -4q22 11 37 22l15 4q14 -14 24 -30h16q11 0 64 24q4 0 40 -24q24 0 24 32q22 36 28 36z" />
<glyph unicode="k" horiz-adv-x="1275" d="M-2 1448h4q9 0 68 -16h52q13 0 84 -52l28 4h12q6 -1 32 -44v-44l16 -24q0 -11 -24 -60v-40q14 -46 14 -69q0 -10 -2 -15q-20 -27 -20 -40q20 -29 20 -44l7 -38q-7 -47 -26 -94l7 -40q10 -15 24 -48q-28 -43 -28 -60t-20 -80v-8q32 -13 32 -20q-12 -36 -12 -40v-4l4 -28 q38 0 48 52q13 32 20 32h12l28 -4q28 24 42 84l12 8q42 4 66 17q19 15 24 37v21q0 9 14 19q58 26 58 39q0 6 -13 10v12l-59 1v8q-36 14 -36 20v28q0 58 23 58h2q50 22 59 28q4 3 10 3t13 -3q15 -6 29 -22q23 2 30 7q3 3 8 3q4 0 10 -2q11 -5 25 -11q49 26 70 26q8 0 12 -4 q41 -14 71 -14h11l32 9l71 -10h8l35 6q8 0 21 -22q25 -8 28 -20v-4q4 -16 4 -30q0 -33 -20 -54q-15 -28 -20 -28h-1q-21 0 -25 31l-10 17q-62 -36 -72 -36q-40 0 -60 16h-8q-3 -23 -36 -52q-34 -12 -56 -12q-33 -21 -35.5 -46t-15 -29t-29.5 -4h-24q-41 -18 -48.5 -54.5 t-29.5 -41t-22 -29.5q8 -49 64 -80q6 -41 32 -56q48 -12 48 -44q0 -10 8 -20v-36q40 -58 40 -88v-28q56 0 76 -96q12 -30 16 -33q1 -1 3 -1q5 0 15 6q14 8 26 8h36q31 -36 88 -36q0 -8 48 -8h20q25 -30 60 -56q-12 -25 -57 -36q-80 -16 -105 -22q-21 1 -47 15q-13 3 -33 3 q-10 0 -22 -1q-52 -19 -64 -19l-42 28q-49 -8 -85 -12q-11 -2 -20 -2q-22 0 -35 8q-19 11 -62 30q-16 21 -16 36v8q15 24 20 24q27 -4 44 -4q61 0 61 35q0 10 -5 23l-27 17q-19 11 -19 24q0 5 4 11l8 38q-25 32 -56 60l8 51q-13 27 -43 40q-25 5 -25 33v4q0 32 -8 32h-12 l-32 -20q-10 0 -20 32q-43 0 -86 -6q-16 -21 -22 -45l-6 -15q-26 -2 -47 -24q-8 -10 -8 -27q0 -25 15 -63q-17 -19 -17 -39q0 -10 4 -21q5 -13 5 -27q0 -21 -11 -44q3 -50 47 -53q28 4 48 4q36 -44 60 -44l8 -12q0 -45 -36 -49q-39 -11 -60 -23q-32 21 -32 24q-24 0 -76 -24 l-76 32q-38 -36 -76 -36q-44 14 -80 20v24l17 50q15 22 39 22q18 10 76 20q16 33 16 40v24q0 14 -16 32v28q28 28 28 36q-14 49 -23 58t-12 25l7 25q16 49 16 60v20q-20 29 -20 76l17 44l11 36q6 11 6 21q0 29 -38 59q-6 20 -8 40l24 80l-18 62q0 22 18 56q2 10 2 21 q0 28 -14 65v4q20 46 20 52v44q12 15 12 28q-48 35 -48 46q-1 0 -1 1q0 10 9 24q8 15 8 25h-24q-52 15 -52 32v3q1 4 1 6q0 8 -7 8q-3 0 -7 -2q-7 -3 -13 -3q-8 0 -13 7q-9 11 -17 21l-4 8q-12 48 -12 72v20q0 6 28 28z" />
<glyph unicode="l" horiz-adv-x="1083" d="M229 1417h3q20 0 43 -14q25 -16 35 -16q43 25 55 25q10 -7 32 -12q34 17 44 17q64 -24 102 -86q0 -10 -3 -60q-15 -55 -15 -68q11 -28 11 -66q0 -31 -8 -70v-17q0 -21 10 -35q5 -8 5 -19q0 -10 -4 -23q-5 -51 -5 -54v-16l18 -71l-15 -73l17 -90q-1 -19 -23 -76 q6 -57 12 -74q1 -6 1 -12q0 -13 -9 -30q-13 -25 -13 -51q1 -14 22 -112l-13 -94q-4 -24 -4 -54q0 -16 14 -45t34 -36q8 -3 15 -3q12 0 23 7l14 9q9 5 17 5q5 0 9 -1q52 -21 74 -21q6 0 10 1q18 7 35 8q24 -12 44 -12q14 0 27 6q10 4 19 4q20 0 39 -18q31 -14 34 -27v-11 q0 -11 -3 -28q-5 -25 -54 -40l-46 -2l-30 4q-32 4 -58 4q-37 0 -61 -9q-92 21 -119 21h-6q-21 -4 -49 -9q-15 -13 -40 -13h-4q-28 1 -64 11q-14 4 -30 4q-27 0 -59 -10q-24 -7 -44 -7q-24 0 -41 11q-11 7 -27 7q-32 0 -86 -26q-108 34 -109 79q11 27 45 38q47 7 130 29 q47 -13 76 -13q11 0 20 2q32 6 45 11.5t40 23.5q16 11 16 40q0 19 -7 46l15 54q-5 77 -13 149l25 83l-17 42l20 50l-22 67q-1 2 -1 6q0 21 19 93l-19 50q1 34 1 40q12 36 12 47v1q3 24 3 44q-4 16 -4 36q0 16 3 35q6 41 11 57q-16 28 -16 48l-13 52v9q0 6 15 47l-1 16h-3 q-41 0 -77 31q-38 -11 -55 -25q-15 -13 -21 -13q-1 0 -1 1q-6 1 -23 23.5t-28 22.5q-57 -29 -81 -29q-10 0 -15 5q-16 17 -16 36q-1 10 -8 10q-5 0 -14 -6q-21 -13 -21 -31v-5q0 -15 -8 -18q-2 -1 -5 -1q-7 0 -18 8q-15 11 -39 48q-32 6 -32 15v4q8 45 43 81q9 0 31 16h8 l69 -26q14 28 29 28q4 0 8 -2l34 -9q22 -3 40 -5q17 4 44 26z" />
<glyph unicode="m" horiz-adv-x="1444" d="M427 1016l12 2q49 -45 128 -56q44 -36 44 -52t10 -16t10 5t20 23q48 0 64 -20q14 6 31 38q16 29 44 29h5q4 -1 9 -1q29 0 68 14q45 16 56 18q4 1 8 1q6 0 11 -2q8 -4 40 -29h40q76 -50 76 -120q10 0 16 -92q8 0 8 -20q-12 -29 -12 -32q4 0 28 -36l-5 -22q-35 -31 -35 -50 v-4q12 -54 28 -100v-8q-28 -28 -28 -44l4 -16h-4q16 -26 16 -60v-4q-8 -58 -8 -64v-32q-16 -40 -16 -44q5 -24 12 -24l-4 -20v-8q20 -14 20 -48q15 -12 28 -12l28 16h4q64 -30 64 -68q12 -2 12 -32v-4q-17 -40 -72 -40q-59 4 -125 17l-66 -17h-4q-39 17 -75 17q-7 0 -14 -1 q-32 0 -32 40q29 67 66 67q3 0 7 -1l41 27q-8 53 -16 73q-4 9 -4 18q0 10 5 20q9 19 12 44v6q0 21 -15 38l19 34q-13 21 -13 41q0 9 2 17v28q12 15 12 28q-4 0 -20 28v16l8 12v12l-16 20v4q18 21 44 48q-11 18 -18 28l-22 24q0 9 16 36q0 13 -16 32q0 15 48 84q-27 7 -40 16 h-4q-22 -36 -64 -36h-4q-55 27 -68 36q-56 0 -56 -76q0 -25 -20.5 -30.5t-26 -12t-28.5 -38.5q-7 -21 -7 -42q0 -16 4 -31q3 -13 3 -24q0 -21 -10 -36q-16 -24 -27 -66q8 -25 20 -55l12 -45q-19 -44 -32 -76l4 -64q8 -28 8 -32v-36q-12 -14 -12 -60q4 -8 4 -12h4l40 4h40 q28 -35 28 -64v-20q-26 -40 -32 -40l-128 16q-24 -16 -36 -16q-44 16 -60 16t-72 -4q-12 4 -36 28v36q0 13 28 46q44 20 48 20q14 -10 25 -10q26 0 39 52l-16 28v4q0 23 16 40l17 75l-21 40q-13 22 -13 39q0 7 2 14q7 22 9 44q20 39 20 48q-20 12 -30 21q-4 3 -4 8 q0 11 18 35q-12 59 -12 76q17 42 20.5 51t3.5 29q-6 25 -24 25h-2q-18 0 -18 27l2 40q-11 24 -44 36q0 12 -12 12q-29 -16 -36 -16q-20 12 -32 12q-35 -15 -48 -40v-28q0 -27 -26 -27q-6 0 -14 2l-32 -11q-36 -33 -36 -56q0 -13 -16 -56v-16q0 -38 12 -52v-24 q-16 -21 -16 -36q8 -54 8 -80l-12 -20l-2 -28l-22 -36q17 -41 17 -66q-2 -23 -8 -45q-9 -31 -9 -53q9 -69 18 -69h1q2 1 5 1q11 0 36 -8q48 -6 48 -52v-8q-30 -68 -36 -68q-56 15 -97 15q-15 0 -27 -2q-15 -2 -28 -2q-31 0 -56 11q-19 -12 -52 -12l-24 42v4q13 49 36 49 q10 0 35 15q33 0 33 28q8 46 8 64q-5 0 -20 24v12q14 17 14 30q0 14 -14 23l-2 22q24 23 24 59q0 31 -18 72l-1 31q19 49 21 100q-4 17 -4 31q-22 25 -22 36q0 4 13 50q0 12 9 66q-8 36 -8 52v28q-8 38 -29 38h-4q-20 0 -27 18q-7 19 -33.5 21.5t-26.5 38.5q17 20 32 40 l34 4l25 16q20 3 36 3q42 0 57 -18q20 -26 72 -77q28 0 64 48l48 -4q73 36 92 62z" />
<glyph unicode="n" horiz-adv-x="1433" d="M628 985q47 61 73 61q5 0 9 -2q26 -13 57 -22q17 11 48 11h5q16 -15 44 -48q10 2 22 2q28 0 70 -12q38 -3 48 -78q36 -38 60 -84q1 -7 1 -14q0 -13 -5 -24q-4 -29 -4 -58l24 -44l-3 -19q-6 -21 -13 -53q0 -14 4 -84q-12 -26 -12 -36v-40q12 -15 12 -56q-16 -28 -16 -40 v-44q0 -13 -12 -28v-36q0 -17 28 -52v-4q0 -12 -12 -32q100 0 118 -55q28 0 72 -44v-32q0 -7 -44 -24h-12q-14 10 -38 10t-58 -10q-30 3 -78 7l-40 -4q-38 8 -60 8h-8q-44 -16 -48 -16h-4q-20 0 -76 32l-36 -10q-52 5 -52 32v28q2 36 12 36q68 14 72 14q22 32 88 32 q23 -8 36 -8q9 79 32 120v16q-16 50 -16 56q0 114 16 124v8l-5 23l-7 29l-3 28q-10 18 -13 30l9 18q0 26 -8 71q-2 3 -2 8q0 17 16 55q-13 33 -30 81l-26 26q-39 3 -51 9t-27 27l-40 15l-34 -16l-47 4q-44 0 -60 -47q-14 -11 -59 -25l-21 -36q-15 -33 -52 -44v-28l-69 -31 q-33 -36 -55 -93v-48l-40 -60q40 -60 40 -76q-8 -54 -8 -68v-32l-12 -40q32 -43 32 -80l14 -35l23 -15q17 3 28 3q18 0 19 -9q0 -14 16 -14q9 0 24 5l36 -35v-32q-15 -24 -20 -24h-48l-70 -14l-19 4q-43 10 -155 18q-65 -7 -111 -19l-45 3q-33 0 -80 56v8q31 52 68 52 q40 -20 64 -20q8 47 25 47h3l39 -9h21q21 24 24 74v40q0 4 4 4q-24 41 -24 48q0 10 12 28l-14 85q-1 2 -1 5q0 15 19 54q-28 59 -28 68l20 24q-8 13 -8 24v12q0 21 12 36v76q0 17 4 44l-20 32l-5 32q5 62 16 67l-9 12q-50 0 -50 25q-17 -4 -24 -4l-28 -8q-27 18 -34 64l3 42 q7 27 75 30q0 -4 16 -14q14 -5 35 -5q16 0 37 3q41 0 87 -41l17 -39q10 -10 10 -18v-15l2 -15l10 -49l22 -35q6 0 16 20l1 29v1q0 10 32 14q27 56 35 56q7 0 36 -12q26 33 64 52h72zM635 99q29 -26 29 -44v-27q0 -6 -23 -6q-14 0 -37 2q-13 26 -13 43v4q13 16 44 28zM541 74 h8q20 -12 20 -28q-20 -18 -32 -20l-4 8v32q1 8 8 8z" />
<glyph unicode="o" horiz-adv-x="1127" d="M447 1032q43 -16 72 -20q0 -4 4 -4h24l28 8l44 -24q12 8 67 11q31 -42 49 -63h8q16 0 51 -1q28 -30 41 -79q27 -20 56 -112q52 -52 52 -80q-4 -37 -4 -96q16 -23 16 -38q0 -6 -3 -11q-9 -18 -14 -29q-2 -4 -2 -12q0 -15 7 -46l13 -67l-17 -33q-16 -23 -16 -86l-23 -34 q-22 -39 -46 -39t-50 38q-1 6 -1 11q0 26 16 50q-2 27 -2 50q0 49 9 74q7 21 7 42q0 16 -4 32q-10 36 -10 46q16 28 16 40v64q-31 88 -68 88q-7 9 -16 52q-43 60 -72 60h-28q-9 25 -17 45l-7 19q-8 0 -92 -20q-33 27 -73 27q-13 0 -27 -3q-29 0 -120 -52l-27 23 q-51 -54 -57 -87h-40q-24 -28 -24 -65q0 -12 3 -26q-13 -14 -31 -41l15 -25l-13 -24q-9 -14 -9 -29q0 -4 1 -8q13 -14 22 -22.5t13 -17.5v-2q0 -9 -29 -31l-14 -25l12 -27q15 -27 15 -34t-13 -23q-11 -13 -11 -23q0 -3 1 -5q4 -12 13 -34l1 -42l60 -32l28 -88q41 0 72 -52 q12 0 56 -44h8l12 8h56q3 0 24 -24h4q17 0 37 34q25 9 62 9h7l47 34l19 3q66 0 84 44q39 20 44 20h7q39 0 49 -40q4 -7 4 -16q-23 -47 -60 -68q-37 0 -48 -28q-38 -48 -88 -48l-36 4q-63 -32 -68 -32h-24q-21 36 -48 36q-16 -28 -20 -28q-24 0 -108 40q-102 12 -144 44 q-31 17 -68 88q-72 61 -88 103q3 11 3 26q0 29 -11 74q-13 53 -28 109l11 56v12q0 56 -8 117q11 0 29 31l26 73q3 55 10 63q12 9 49 40q4 27 11 53l52 11q27 47 59 83q32 6 109 30q16 -8 44 -13q21 14 68 28z" />
<glyph unicode="p" horiz-adv-x="1242" d="M658 1043q23 -8 39 -38h16q14 0 68 8q57 -48 60 -72h20q38 -13 64 -36v-36q80 -81 80 -100v-40q0 -9 28 -88v-16l-8 -12v-20l24 -44v-52q-20 -42 -20 -112q-2 0 -20 -24v-12q12 -15 12 -28v-4q0 -10 -80 -140q0 -52 -72 -88q-81 -76 -166 -90q-21 3 -40 3q-39 0 -70 -13 q-20 16 -28 22q-6 4 -12 4h-5q-10 -3 -39 -46h-4q-38 17 -61 54q-11 14 -27 30q-15 -4 -24 -4q-17 0 -19 13q-4 21 -49 87h-16l-2 -25q-3 -9 -6 -19l-7 -24l4 -19q-1 -4 -1 -9q0 -18 9 -42l7 -26q-16 -68 -16 -92q6 -22 16 -40l4 -23q-4 -26 -12 -66q-1 -7 -1 -12 q0 -19 17 -19q6 0 16 -8q27 40 32 40h4q34 -33 56 -44h4q36 36 88 36q0 -6 44 -64v-36q-9 -10 -96 -40l-20 24q-61 -12 -72 -20h-12q-41 32 -48 32q-24 0 -84 -4l-32 16l-40 -4h-40q-12 0 -12 44q6 44 16 44q32 -19 32 -24q15 6 40 13q9 3 9 23q0 22 -10 63v8l8 12l11 47 q-22 44 -22 114q8 16 11 33.5t3 39.5q-7 23 -10.5 33t-3.5 22q0 28 4 88l-4 48q7 24 12 24q-12 25 -12 36q0 9 4 44q-13 79 -13 107q13 30 13 60q0 27 -11 55q11 64 11 74l-16 87q5 25 21 69l3 16q0 13 -67 47q-59 13 -85 13h-20q-38 22 -38 32v4q0 16 10 32q10 38 44 56 q7 4 16 4q59 -27 66 -28q8 0 54 24q37 -16 68 -40q32 12 40 12q20 -9 20 -40v-32q0 -7 28 -24h16q34 50 52 50h4q36 0 85 51q24 23 38 28q70 -9 73 -9q38 22 49 22zM584 891q-33 -16 -47 -50q-28 -23 -61 -26q-35 -17 -41 -47v-4q0 -33 -31 -43q-33 -11 -43 -52 q-11 -17 -44 -44q-4 -22 -4 -36v-32l20 -48l-32 -32q16 -21 16 -44v-4q-16 -18 -16 -20v-48q36 -47 36 -84q72 -25 72 -44q0 -56 28 -72q20 -18 20 -36l32 20q43 -60 64 -60q148 3 169 48q30 29 43 44l20 -4q28 32 28 76q0 14 20 23l52 9v32q0 27 21 63q-13 32 -13 50 q0 13 7 18l21 31l-16 54q16 63 16 68q-19 53 -20 84q-3 0 -20 20h-36q-8 0 -16 40v48q-55 6 -104 56q0 11 -44 16q-34 -8 -40 -8q-17 44 -32 46h-5q-13 0 -20 -8zM-3 -251q56 -15 56 -32q36 -9 36 -16q0 -39 -52 -48q-25 0 -48 32v56q1 8 8 8z" />
<glyph unicode="q" horiz-adv-x="1201" d="M394 1099q53 -16 76 -40q24 16 32 16l52 -24q13 -3 27 -3t29 3q32 0 64 -45q29 -40 36 -40q1 0 2 1q6 5 22 44q38 48 72 48q44 -13 44 -44q12 -56 12 -164q0 -32 -12 -48v-20l17 -37l-9 -27q-12 -15 -12 -56v-8q0 -14 20 -84v-28l-32 -40v-36q10 -29 32 -68 q-4 -38 -24 -68l-15 -25q-1 -6 -1 -14q0 -19 8 -49q10 -18 14 -35q-9 -26 -16 -52q10 -48 10 -78q0 -20 -4 -32q-7 -21 -7 -41q0 -10 2 -21l13 -17q-8 -25 -14 -56q16 -24 16 -43q0 -9 -4 -18q19 -73 38 -87q9 -7 9 -19q0 -14 -13 -35q-25 -28 -44 -28q-25 18 -36 18h-2 q-10 -2 -28 -14t-38 -12q-2 -1 -4 -1q-18 0 -28 6q-8 4 -15 4q-3 0 -6 -1q-9 -3 -35 -12h-16q-42 0 -92 28q0 -10 -40 -12q-56 0 -59 38l3 24q20 36 88 36l36 -12q49 12 64 20q19 0 70 -22q46 4 46 34q4 22 4 32l-16 44q16 17 16 32q-16 37 -16 40q13 34 18 53l-6 23 q-13 29 -13 45q0 5 1 8q4 26 4 35q-18 15 -25 22q-5 4 -5 9q0 2 2 5v4q0 7 -8 16q-44 -8 -65 -55q-19 -34 -41 -34h-3q-59 -8 -74 -11l-37 -28q-6 0 -48 4q-25 -3 -49 -8q-7 -2 -13 -2q-18 0 -33 11q-20 15 -54 15h-2q-2 -1 -3 -1q-33 0 -43 17q-11 16 -80 41 q-45 39 -96 144q-3 47 -37 51v14q0 47 -11 91q-3 38 -32 88q26 44 26 83q0 12 -3 24q-8 37 -16 48v20l32 32v36q12 24 22 24q0 5 -8 44v4q27 21 76 132q22 41 112 88q42 24 116 32q52 24 60 24zM398 891h-12q-30 14 -60 44q-25 -39 -33 -55q-3 -6 -8 -6q-9 0 -23 17h-4 q-48 -22 -60 -76q-45 -12 -52 -100q-24 -20 -24 -32q10 -69 36 -100v-4l-36 -28v-16q-12 -16 -16 -56v-8q24 -9 36 -20q0 -20 -16 -52q13 -44 48 -44q-1 -16 -1 -28q0 -58 21 -58q1 0 2 1h3q25 0 28 -34q3 -37 39 -37q32 -9 32 -48q11 -6 29 -6q11 0 23 2q28 16 40 16h4 l12 -8h16q46 13 55 26t28 32q21 0 38 -10h20q23 5 23 22v30q10 16 40 21.5t40 54.5v28q0 22 40 76q-8 21 -8 44q0 37 16 128q0 23 -44 124q4 8 4 26t-8 33.5t-47 87.5l-65 25v36h-4q-29 -40 -36 -40h-4q-23 32 -28 32l-28 16h-16q-6 0 -17 -25q-12 -18 -23 -31zM946 -237 q48 -4 48 -30v-28q-16 -24 -32 -24q-44 5 -44 16v36q18 30 28 30zM1054 -237h4q36 -7 36 -34v-3q0 -24 -13 -26q-4 -1 -7 -1q-10 0 -18 7q-10 8 -19 37q10 20 17 20z" />
<glyph unicode="r" horiz-adv-x="1271" d="M124 1026q0 -5 56 -23h12q12 0 40 16q54 -3 76 -3q10 0 60 4q38 -18 68 -63l1 -68q0 -8 20 -44h12q66 25 71 68q19 9 88 22q16 21 40 47q19 23 33 23h3q9 -1 28 -1h20q21 0 68 4q45 -15 116 -27q116 -27 117 -59l44 -39q5 -74 5 -108v-4q-9 -96 -23 -96q-16 -1 -92 -45 q-22 -4 -36 -5q-4 17 -76 36q0 4 -8 32l-1 8q0 10 -1 54l5 38v4q0 25 11 40v28q-24 24 -36 28q-80 -1 -80 -25q-14 -15 -30 -26l-22 1q-73 -39 -73 -76v-2q-23 -14 -74 -31q-54 -44 -62 -77q-45 -20 -45 -48t-11 -44v-16l12 -76l-3 -20q-13 -25 -24 -64l8 -25q17 -39 17 -55 v-4q-10 -21 -10 -36l-6 -24q1 -47 10 -128l12 -2l19 5q11 11 20 11q4 0 8 -2q11 -9 49 -31q36 27 53 32q3 1 7 1q12 0 21 -12q11 -16 39 -16h48q32 -36 32 -71q-21 -12 -77 -34q-38 -13 -70 -16q-30 10 -56 12l-21 1q-29 -8 -62 -13q-29 7 -37 7q-25 10 -38 10h-2 q-32 0 -80 -18q-29 11 -85 15q-13 6 -28 6q-13 0 -27 -5l-87 -10q-35 3 -102 46l-4 29q4 21 40 47l40 1q42 8 79 36q25 -12 65 -31q13 9 35 28l13 -1l39 -10q20 23 20 76v20q-17 78 -17 86l15 54q0 22 -15 112q0 8 22 52v16l-15 41l3 13q3 10 11 38q-12 22 -12 44l15 48 q0 4 -36 32v8q28 28 28 36q-5 11 -13 27q-4 8 -17 8q-12 0 -31 -7q-35 8 -66 52l-21 10q-36 -20 -73 -20q-11 0 -40 20q-6 3 -15 3h-29q-6 0 -21 36v4q51 59 136 85z" />
<glyph unicode="s" horiz-adv-x="1094" d="M561 868q-12 10 -104 35q-23 -2 -36 -12q-30 16 -48 16l-24 -6q-23 -6 -44 -22q-5 -6 -17 -6t-30 5q-35 -4 -44 -26t-31.5 -24t-46.5 -42l-2 -18q5 -12 15 -29v-2q0 -13 -22 -32v-4q19 0 32 -48h4l30 -20l37 5q11 -3 48 -47l17 -8q31 15 48 25q44 -29 60 -29q9 -3 18 -3 q22 0 42 17q11 0 75 -38q27 5 45 5q23 0 27 -9q32 -20 66 -20q15 0 30 4l16 -2l24 -19q24 -14 58 -15l9 -4q17 -54 62 -63l27 -52q9 -14 9 -67q12 -13 12 -26q0 -3 -1 -6q-6 -14 -8 -35q-1 -9 -1 -16q0 -14 3 -24v-5q0 -13 -15 -21q-19 -14 -36 -40q-14 -97 -91 -102 l-22 -25q-12 -5 -35 -5h-14l-64 -3q-34 -36 -71 -36q-28 15 -45 20q-37 -10 -122 -19q-42 11 -106 51l-57 3q-6 -1 -12 -1q-22 0 -32 13q-30 22 -40 31q-6 4 -12 4q-7 0 -15 -5l-17 -7q-25 -17 -29.5 -24.5t-17.5 -17.5h-12q-27 23 -39 54q-16 32 -19 45l11 26q4 9 4 21 q0 19 -10 44l-5 30l16 30l9 24q-31 38 -31 49q18 16 21 28q-21 7 -21 17q54 32 76 32q80 -23 80 -44q-32 -21 -32 -24q26 0 28 -12v-36q25 -53 52 -100l48 -22h6q41 0 45 -26q32 -35 54 -35q6 0 12 3q7 4 14 4q20 0 46 -27l22 2q16 5 50 15q18 0 54 -16q42 23 56 26 q26 -8 37 -8q28 27 45 42q9 10 19 10q8 0 17 -6h17q41 20 45 50q7 17 33 45l-6 38l-22 30l2 30q1 5 1 9q0 24 -38 24h-5l-40 36l-41 -5q-43 25 -63 27q-22 -10 -49 -18q-23 0 -59 28q-38 -12 -48 -12q-23 15 -38 15q-5 0 -9 -1q-17 -6 -33 -6q-27 40 -72 40h-4 q-70 -8 -72 -8q-11 18 -64 56l-28 -4h-12q-40 0 -44 32q0 25 -24 56q-20 26 -20 40v56q0 41 -12 56v44q31 74 80 112q55 13 104 64l28 8h8l12 -8q9 0 92 28h12q20 -8 36 -12q5 -1 10 -1q9 0 18 5q13 8 24 8q70 -17 80 -32q26 4 40 12l23 -19l43 4h40q13 -15 29 -15q5 0 11 2 q18 23 44 39l24 2l20 -17q20 -17 40 -67v-28q0 -11 -16 -51l12 -24q3 -6 3 -14q0 -18 -15 -47l4 -15q14 -35 14 -62q0 -9 -1 -17q-12 -14 -26 -41q-30 -17 -39 -17q-50 27 -68 52v16q-15 96 -45 103l-8 14v1q0 16 -47 52z" />
<glyph unicode="t" horiz-adv-x="1087" d="M363 1472q96 -6 96 -48q8 0 8 -20q-12 -22 -12 -36q1 -17 28 -60v-40q-21 -25 -21 -58q0 -17 5 -35l-16 -59q0 -4 20 -56v-20q15 6 28 6q6 0 12 -1q29 -12 49 -12q5 0 10 1l34 11q25 -9 79 -17q25 8 36 16h16q15 -12 56 -12h4q44 20 56 20q22 0 52 -64v-32 q-20 -39 -45 -39q-8 0 -16 4l-47 7q-10 -5 -50 -14h-5q-17 0 -44 5q-12 7 -26 7q-5 0 -11 -1q-1 -7 -50 -11q-18 6 -33 6q-30 0 -51 -24h-16q-32 0 -34 -6q-2 -5 -2 -20q0 -13 1 -33l-15 -29q12 -15 12 -28v-8l-12 -40l8 -48q-9 -30 -21 -50q-1 -6 -1 -12q0 -19 10 -34 l6 -25l-7 -36q-15 -55 -15 -63v-16q0 -11 22 -70q-19 -45 -19 -56q13 -25 13 -46t-6 -50q1 -23 28 -38q32 -21 40.5 -26t17.5 -34q0 -6 24 -20q31 28 43 34h52q25 49 67 55l33 48l-2 43q-4 17 -4 30q0 20 9 30l18 32l-4 48q18 40 48 40q5 4 28 4q54 0 72 -48v-8q1 -8 1 -16 q0 -22 -10 -38q-15 -22 -15 -26v-28q12 -36 12 -40q-34 -42 -36 -72q-6 0 -28 -28v-40q-19 -41 -64 -58q-16 -29 -38 -56h-15q-17 0 -39 1q-24 -15 -36 -15l-36 12q-17 0 -80 -20q-50 0 -96 40q-18 39 -68 52q-27 0 -54 57l-18 81q-1 4 -1 9q0 33 24 100l-25 50v2 q0 12 11 36q11 25 19 41l-24 52l-8 28q0 12 28 44v24q-16 40 -24 73l2 18q6 22 18 61v8q0 4 -21 41l7 55q7 12 7 21q0 18 -29 27l-12 -8h-4q-27 0 -40 40h-8l-32 -32h-44l-40 12q-40 -28 -80 -28q-49 0 -56 80v64q0 6 44 20h28q55 -24 64 -24q9 14 40 24q32 -16 44 -16 q17 0 80 24q36 7 36 32q6 0 12 56l4 28q-9 0 -16 76l8 62l-8 62l10 44q11 44 50 44z" />
<glyph unicode="u" horiz-adv-x="1260" d="M29 1042q51 0 112 -36q76 -18 76 -56q12 -4 12 -24q0 -38 -28 -116v-28q0 -38 5 -65q-16 -26 -29 -79v-56q-12 -15 -12 -36q7 0 20 -32q0 -10 -8 -40l-16 -28l10 -31q14 -22 14 -33l-7 -18q-15 -27 -29 -58l4 -31l2 -18l-6 -23l20 -24v-32q39 -9 68 -48l40 4q40 0 56 -32 h8q12 0 60 44q82 0 93 62l8 4l47 -10q20 43 52 56q9 0 32 52q64 27 64 76q15 48 28 60q11 0 52 48q-4 46 -18 64q-15 21 -21 41q10 37 38 71l-7 14q0 14 -23 40q-17 20 -17 28q0 3 2 4q7 6 32 43l-2 27q-70 23 -90 45l-56 10q-48 6 -60 39q-53 16 -73 37l-7 25q10 44 28 44 q44 0 71 -13l20 6q25 8 37 8q37 0 42 -9q40 8 52 8q23 0 76 -20h12q15 12 28 12q64 -35 64 -66v-5l-6 -68l16 -42l2 -18q-10 -38 -10 -66q0 -18 4 -32q4 -16 4 -29q0 -18 -7 -31q-13 -23 -19 -63q0 -32 15 -47q7 -7 7 -19q0 -14 -9 -33q-17 -38 -20 -87l17 -35l-10 -30 l-12 -33q2 -93 22 -130q20 -53 30 -53q2 0 3 1q10 6 29 6l60 -36q30 20 52 20q60 -44 60 -76q0 -35 -33 -48q-19 -24 -47 -24q0 11 -40 16q-28 -16 -40 -16q-39 12 -80 32q-18 -6 -32 -16h-12q-96 38 -96 132v4l20 28v8q-27 16 -44 16h-12q-33 0 -52 -32v-40q0 -8 -52 -24 l-49 -32q-28 -44 -82 -46l-37 -13l-64 -9q-32 12 -54 12l-46 -4q-5 -1 -9 -1q-17 0 -31 13q-8 16 -26 19l-59 2q-53 22 -54 52l-5 59l4 40q-47 20 -60 44q5 29 13 65q-14 24 -14 43q0 13 7 23q11 19 11 35q0 15 -8 27q-16 21 -16 30q0 1 1 3q4 6 26 34l-11 45q-1 25 -12 45 l11 30q16 21 16 36v20q-21 49 -21 74q0 14 6 21q16 26 16 56q0 6 -1 13q0 35 -80 96v40l26 41q6 47 18 47z" />
<glyph unicode="v" horiz-adv-x="1403" d="M144 1054q23 0 76 -24q7 0 27 12q13 8 23 8q6 0 11 -2q14 -7 31 -22l84 16q39 -24 44 -24q34 8 40 8q22 -6 44 -32l3 -38q-14 -33 -67 -42l-21 8l-19 -18q-26 -6 -26 -26q0 -9 6 -22v-40l-1 -25l32 -57l1 -74q20 -24 42 -45l8 -58l6 -69q28 -28 35 -52l13 -88 q56 -54 56 -72h8q28 21 28 64q26 31 54 57q2 36 12 107l16 19q21 41 30 59q6 84 11 100l40 51q-8 39 -8 60q0 10 2 15q22 30 22 45l-7 27q-22 31 -50 31q-13 0 -28 -7q-17 8 -34 8q-15 17 -32 54v28q21 48 56 48q37 -16 40 -16q30 20 80 20q9 0 36 -20h4q44 16 52 16 q57 -18 83 -18q7 0 12 1l25 15q27 -2 74 -27h4q18 9 33 9q34 0 57 -40v-32q-21 -42 -25 -42h-4q-26 -17 -32 -23q-2 -2 -8 -2q-15 0 -59 13q-14 -17 -42 -28q-29 9 -53 10l-12 -10q-12 -25 -21 -86q-4 -8 -52 -74l-14 -85q-60 -75 -66 -184q-46 -47 -64 -115 q-11 -13 -16 -92q-8 -42 -36 -76v-52q-64 -67 -72 -96q-53 -28 -88 -28q-49 46 -60 100q-12 0 -36 109l-13 52q-30 37 -41 69l-8 103q-49 78 -49 91l-3 89q-4 15 -51 68q-8 13 -10 89q-8 10 -56 82q-5 54 -13 59q-3 2 -8 2q-8 0 -21 -5q-15 0 -15 20q-20 -24 -28 -24 q-36 20 -108 20q-48 32 -50 74q32 64 70 64l25 -5q39 3 71 17z" />
<glyph unicode="w" horiz-adv-x="1461" d="M392 945q24 52 42 69l20 16q29 -12 58 -12l34 -18l18 26l8 4h20q29 -8 32 -8q15 0 49 -26q44 12 70 12q12 0 21 -2h4q44 0 44 -20q0 -17 8 -44l-28 -48l-52 -32q-2 -11 -2 -23q0 -34 16 -69q-11 -30 -11 -53q0 -22 10 -38q10 -17 10 -40q0 -22 -10 -50l31 -56 q-3 -20 -3 -36q0 -42 22 -52q30 -13 38 -103q2 -33 13 -33q19 0 62 101q0 22 16 52l-4 40q4 54 4 92q22 43 24 88q8 0 12 32q-8 26 -8 36v8q16 21 16 36v40l32 36q0 14 -52 20q-72 41 -92 84v40q14 24 36 24l24 -20h28q4 0 48 16h12q20 -1 28 -4q28 -8 32 -8h8q28 21 36 21 h4q56 -12 56 -21q28 16 40 16q27 -5 60 -52v-32q0 -60 -28 -60q0 -8 -28 -8q-60 4 -68 12q-3 -37 -52 -120q0 -109 -44 -160v-40l-8 -72q4 -65 4 -72t-60 -132v-36q0 -66 -40 -112v-24q0 -14 4 -36q-48 -81 -72 -100q-64 9 -64 24q20 22 20 24q-12 27 -56 44v64 q-40 33 -40 40q12 22 12 36q-36 14 -36 68v44q0 43 -60 76l-16 16v8q20 67 20 84q-26 31 -40 100q-6 0 -12 -12v-36q0 -3 -40 -40q6 -17 6 -32v-36q0 -5 -26 -28v-28q-36 -24 -36 -48q-11 -35 -20 -140q0 -10 -36 -92q0 -27 -24 -64q8 -26 8 -36v-8q-15 -24 -20 -24h-44 q-54 0 -120 120q4 8 4 17q0 16 -12 35v60q-12 15 -12 36v44q0 15 -36 72q0 22 16 44v32q-48 25 -48 52q-8 24 -16 108q-36 26 -36 61q0 14 6 30q-46 43 -46 57q4 35 4 42q0 6 -16 26v12l12 16v4q-22 36 -88 36q-23 12 -36 44v48q21 44 76 44q8 0 36 -16q28 16 40 16 q46 0 72 -32l68 24h4l32 -28q15 20 24 20q46 -13 46 -58l9 -26l2 -20q-5 -18 -15 -19l-23 -5l-27 -4l-20 -14l-6 -22l10 -42v-8q-8 -19 -8 -39t7 -41q7 -30 7 -62q-6 0 -11 -31q0 -6 28 -47q-5 -25 -5 -38v-28l4 -46l24 -58v-24l10 -15l11 -19l26 11q7 38 7 51l3 13l17 15 q0 13 -16 32v4q52 36 60 56q-4 27 -4 44q11 24 16 24q-12 52 -12 63q3 15 40 53q-10 60 -10 82q0 12 3 13q8 3 15 25q8 13 8 24q-37 7 -80 34l-15 18z" />
<glyph unicode="x" horiz-adv-x="1345" d="M799 1031q60 -32 72 -32q30 24 36 24q23 0 71 -15q61 8 71 8q75 -14 118 -41l-3 -34q-17 -54 -49 -54q-15 -12 -84 -28q-27 16 -46 16q-9 0 -16 -3q-6 -8 -70 -37q-17 -11 -24 -56q-30 -38 -80 -64l-76 -92q0 -10 -32 -104v-16q0 -41 12 -56q0 -4 -4 -4q40 -47 40 -56 q0 -24 32 -24q24 0 44 -48q17 -51 24 -56q64 -31 64 -104q0 -4 40 -12q34 18 44 18l20 -32l20 4h96q36 -23 36 -36q-13 -92 -48 -94h-4q-23 -11 -42 -11q-21 0 -37 13q-3 1 -6 1q-15 0 -39 -17q-10 -2 -19 -2q-32 0 -57 28q-27 -23 -57 -23h-2q-8 0 -29 19h-16 q-12 -12 -88 -12h-20q-36 28 -36 44q18 65 68 84q4 0 4 4v20q-25 75 -88 112q0 96 -40 96q-13 18 -23 18q-6 0 -11 -5q-14 -16 -42 -37q-15 -48 -31.5 -52t-28.5 -16q-32 -77 -32 -92q-53 0 -76 -44l4 -8q13 8 24 8h12q33 0 68 -36v-28q-9 -64 -40 -64q-15 -4 -32 -4 q-22 18 -30 20q-14 -20 -50 -20h-16q-26 16 -68 20q-37 -20 -44 -20q-57 12 -80 24q-37 -24 -52 -24q-43 9 -76 56q-16 33 -16 40v8q0 5 20 20q17 0 40 -8q36 20 48 20q10 0 32 -16h16q13 16 96 24q21 0 40 48q32 11 32 40q0 20 24 48v32q10 0 60 32v41q0 31 86 63l13 26 q5 7 5 19q0 10 -4 24q-44 31 -44 67q-41 148 -80 148q-21 0 -44 56q-36 0 -36 52q0 26 -50 32q-34 8 -74 8q-21 0 -44 -2q-36 0 -67 86q45 34 63 34q21 4 48 4l28 -4q37 10 44 10q40 -5 40 -16l72 24h16q44 -8 60 -24h12q22 16 40 16q32 -23 32 -28v-20q0 -44 -24 -68h-28 q-44 0 -44 -12v-24q44 -76 52 -76q37 0 68 -84l32 -40q19 -20 35 -20q14 0 26 14q26 31 63 94q68 42 68 104v24h-36q-27 0 -48 92v16q9 16 120 28q2 9 32 24z" />
<glyph unicode="y" horiz-adv-x="1378" d="M105 1049q45 -24 52 -24q53 12 64 12q44 -16 48 -16q21 0 41 8t31 8h8q44 -16 48 -16q21 0 36 12h36q21 0 44 -40v-80q-19 -28 -76 -28h-44q-3 1 -6 1q-5 0 -5 -4t7 -12q16 -19 16 -25q-8 -43 -8 -56v-4l32 -32v-8l-20 -28q0 -6 40 -20q20 -31 20 -92q14 -26 32 -44v-12 q-3 -9 -3 -17q0 -17 11 -28q16 -18 16 -27q-16 -28 -16 -40q44 -45 72 -92v-8q-3 -16 -3 -28q0 -30 19 -34q5 -2 9 -2q15 0 15 16v6q-1 2 -1 5q0 23 29 41l7 50l1 41l31 19l13 14l4 50l13 53l35 46l10 61l34 30q7 14 7 29q0 11 -3 22q26 26 26 37v2q-3 10 -21 35q0 10 18 29 q-52 8 -67 30q-15 42 -44 64v44q0 19 80 44q62 -32 76 -32q19 25 52 25h3q1 1 2 1q8 0 35 -22q69 14 80 14l28 -26q57 8 76 16l48 -72l-20 -72q-40 4 -60 4h-16q-51 -24 -56 -24q-18 6 -32 16h-4q-44 -20 -44 -64q-3 0 -28 -36v-44q-40 -29 -40 -59v-6q1 -4 1 -8 q0 -13 -5 -32l-16 -23l-9 -36l-8 -46l-35 -34v-20l8 -32l-24 -36v-32q0 -51 -48 -84q-28 -101 -68 -152q0 -49 -28 -76v-52q-18 -21 -44 -84l2 -50l-42 -18l-2 -70q-49 -38 -91 -106q-73 -26 -128 -79q-91 -14 -120 -14q-7 0 -10 1l-33 32q-13 -8 -24 -8q-41 10 -60 40 q0 20 -76 44q-7 6 -12 52q-6 0 -28 36v40q0 21 -12 36v32q26 99 99 135l41 21q82 -11 96 -36q0 -5 60 -40l20 -28v-36l-8 -12v-36q-43 -49 -81 -89q-54 -15 -76 -15h-7v-16q53 -6 92 -36q28 10 39 19q9 7 23 7h8q20 -3 47 -4l20 14q14 25 21 51q35 35 70 61q12 46 13.5 59 t15.5 24.5t47 52.5v4l-28 24v8q22 37 48 64q-27 26 -60 84q-6 0 -24 24v4q2 9 2 19q0 36 -31 82l-3 71q-13 5 -23 18l-29 34q4 27 4 44l-28 64v44q-67 92 -67 150v2l-32 45q-16 14 -16 27q0 4 1 7l10 37l-40 24l-16 20l-60 28h-4q-22 -20 -36 -20q-53 17 -68 56q-8 0 -16 40 v8q0 44 100 60z" />
<glyph unicode="z" horiz-adv-x="1061" d="M505 1023h4q37 -29 44 -29q16 0 76 29q0 -4 44 -29q9 0 72 17q104 -29 104 -65q4 0 4 -5v-4q-28 -80 -40 -85q-12 -12 -48 -74q-72 -30 -72 -49q0 -31 -48 -77l-60 -16l-24 -37v-29q-3 -53 -16 -53h-32q-11 0 -40 -20v-33q0 -49 -116 -93q-56 -115 -104 -115 q-25 -23 -30 -75q-33 -33 -33 -57q0 -4 1 -7q6 -28 38 -28q6 0 54 14h24q38 -18 38 -30h8q17 16 52 25l40 -9q30 3 60 21q31 0 56 -17h20q30 32 60 41l27 -12l17 4q0 37 56 69v37q47 43 60 71q-5 35 -5 47v4q2 6 25 27q6 16 26 37l30 6q12 0 24 -45l-2 -29l-11 -36l6 -34 q-17 -37 -22 -52l4 -45l4 -13l-17 -69l3 -36l-6 -29q-6 -28 -35 -28l-32 -23l-20 6l-44 9h-24l-76 -29q-33 16 -36 16q-22 -5 -35 -6l-25 -6l-24 12q-24 8 -44 8q-50 -12 -80 -12q-37 17 -44 17q-22 -13 -36 -13q-31 0 -76 17h-8q-28 -29 -36 -29q-51 24 -68 41h-12 q-13 -26 -49 -26q-39 14 -71 50v49q18 24 63 52q-1 9 -1 17q0 33 18 33l24 11l26 23l14 23q0 80 68 106q18 1 96 110h4l28 -4q0 24 64 139q0 18 21 18q7 0 15 -2h16q19 44 40 97q30 23 70 47l22 44v16q0 2 24 29q-11 45 -52 45q-4 0 -4 -5q-33 -19 -42 -20q-31 9 -42 29 q-39 -13 -52 -13q-55 21 -64 21q-23 -30 -44 -30q-5 0 -10 2q-25 9 -46 9q-40 -21 -81 -28q-19 -53 -37 -53v-37q0 -15 -26 -37v-4q-2 -40 -2 -45v-4l-20 -28l-14 -34v-2q0 -20 -25 -33q-10 -5 -18 -5q-14 0 -23 14l-4 26v54q0 9 2 16l10 37l-1 15l-10 48v19l5 26l12 21 l-1 20q-11 21 -11 46q0 19 7 40l10 27l13 10q12 9 42 9h32q38 0 56 21h8q16 0 84 -33l76 19q7 0 36 -17l40 25q47 -25 72 -25q0 6 32 29z" />
<glyph unicode="{" horiz-adv-x="722" d="M469 1747q68 -21 84 -56v-24q-13 -28 -68 -52q-12 -12 -32 -56q-46 -66 -68 -88q-12 0 -12 -8q20 -27 20 -40q-17 -20 -56 -20h-20q-7 -46 -72 -128q-12 -20 -12 -40v-20q12 -15 12 -28q-19 -15 -60 -36q-9 -78 -20 -120q-16 -25 -16 -48v-20q12 -15 12 -28q-6 0 -28 -28 l20 -60q-36 -9 -36 -48v-12q0 -10 20 -44q-16 -24 -16 -36q8 -13 8 -24l-16 -24q16 -24 16 -36v-48l32 -32v-28q-8 -28 -8 -32q0 -34 44 -68l4 -20v-4q-4 -30 -4 -60q28 0 40 -112q36 -15 36 -68q12 -35 88 -80v-44q0 -50 60 -76q104 -114 104 -172q4 -16 4 -28 q-8 -18 -16 -20h-28q-51 48 -64 48h-4q-13 -8 -20 -8q-9 25 -40 52q0 72 -80 88q0 43 -60 72v4q12 16 12 24q-48 54 -48 60q-9 58 -40 100q-9 4 -32 52q-11 0 -24 88q0 11 -32 104q0 7 -32 32v24q8 16 20 16q-28 63 -28 124q4 35 4 44q-28 52 -28 124q5 0 20 24v20l-16 24 v20q0 14 20 40q0 8 -12 32q32 45 32 64v32q0 6 20 16l-4 48v52q32 21 32 64q14 22 28 68q36 39 36 68q36 59 36 64l-4 36q23 8 48 84q20 16 60 32q0 76 140 172q39 8 44 8z" />
<glyph unicode="|" horiz-adv-x="354" d="M144 1587q0 -45 53 -71q-5 -31 -5 -47q0 -14 4 -16q-6 -13 -20 -30v-2q0 -6 13 -27q-26 -50 -26 -117v-5q16 -33 16 -58q0 -15 -6 -27q-9 -43 -9 -77q0 -40 13 -65q-20 -21 -22 -25l-1 -3q3 -65 24 -93q-10 -20 -10 -86q0 -31 2 -72q-11 -20 -15 -82l-24 -46 q32 -16 32 -45q0 -17 -11 -38l-9 -18q10 -38 10 -64q0 -22 -7 -36q13 -12 13 -29q0 -15 -10 -35l-15 -29q10 -41 14 -43q-12 -23 -12 -35q0 -8 6 -11q15 -52 15 -95q0 -41 -14 -72l-7 -14q30 -64 30 -106q0 -6 -1 -12l-13 -88l-7 -14q-4 -8 -22 -8q-8 0 -18 1l-3 2 q-33 49 -56 136l27 54l-7 30q-20 11 -20 29q0 10 6 23q2 4 2 12q0 26 -21 101q19 39 19 66q0 21 -13 34q22 25 26 32l5 11q-23 32 -28 68q5 10 5 19q0 19 -23 35q19 44 19 70q0 24 -16 32l2 3q5 10 18 18q-7 54 -7 106q0 20 1 41q-18 16 -18 38q0 15 9 34v12q0 92 14 120 q-13 32 -13 53q0 6 1 11q-22 38 -22 52q0 2 1 4l31 61l-23 16q-16 8 -16 25q0 16 12 39l-11 145q8 16 8 29q0 21 -22 32q6 12 6 40q0 27 -5 67q8 15 14 15h2q35 68 80 68q15 0 32 -8q2 -6 23 -35z" />
<glyph unicode="}" horiz-adv-x="704" d="M49 1730q75 0 164 -64q44 -77 56 -112q48 -37 48 -72q8 -13 44 -40q0 -32 12 -32t12 -8q-4 -22 -4 -32q48 -68 48 -100q6 -6 16 -84q12 0 20 -56q16 -6 32 -80q6 0 20 -28q-8 -25 -8 -32q5 0 20 -20v-16q-20 -69 -20 -84l8 -28v-36q16 -21 16 -36v-16q0 -2 -24 -24 q14 -40 20 -76q-20 -134 -28 -164q-8 0 -20 -136q-18 -17 -40 -76q-12 0 -24 -84q-52 -13 -52 -84q-21 -40 -52 -84q-13 -60 -56 -60q-68 -60 -68 -104q-12 0 -48 -44q-26 -24 -76 -24v-4l8 -12v-4q-17 -24 -56 -24l-4 8v52q0 19 56 76q0 40 80 92q0 13 52 44q0 4 20 28v28 q0 9 28 72q0 26 28 36q15 1 52 76v8q-1 10 -36 28q68 30 68 84q12 53 12 60q-4 50 -4 52q32 60 32 172q9 0 12 68q-15 25 -32 132q12 20 12 32v4q-8 101 -28 116l4 40q-5 23 -36 44q-8 13 -8 24q12 31 12 44v12l-36 56v28q0 44 -20 44q-84 46 -84 120q-112 83 -112 132 q-52 76 -92 76l-4 8v24q0 40 60 60z" />
<glyph unicode="~" horiz-adv-x="980" d="M356 1607l-28 28q-14 6 -26 6q-19 0 -30 -16l-62 -12l-18 -35l-55 -31l-46 -43q-32 -10 -63 -16q-5 -1 -8 -1q-21 0 -21 26v4l9 51q37 40 45 61t25.5 25t45.5 33q-2 4 -2 8q0 25 75 61q12 19 17.5 23.5t35.5 13.5q15 2 27 2q27 0 37 -12h5q55 0 63 -20q6 -19 26 -19h12 q20 0 28 -16q8 -20 80 -30q13 -33 31 -33q20 0 47 38l50 17l26 57q44 9 76 30l26 11q23 -6 23 -32q0 -12 -5 -28l-8 -37q-30 -36 -36 -62t-28 -33.5t-26 -49.5l-27 -19l-28 -14q-17 -36 -30 -36q-1 0 -3 1q-7 2 -13 2q-7 0 -12 -3q-3 -1 -8 -1q-17 0 -62 15q-35 27 -59 45 l-48 10q-14 34 -41 34q-8 0 -17 -3z" />
<glyph unicode="&#xa1;" horiz-adv-x="490" d="M180 0q-23 0 -92 24h-32q-6 0 -24 52q-6 0 -24 24v36q-8 28 -8 32q0 52 32 76v4q-24 2 -24 12v40q12 15 12 56v16q44 30 44 72q4 0 4 24v12q0 13 -12 28v8q32 40 32 60q16 88 16 152q0 23 -4 132q20 68 28 68h36q72 -13 72 -84q0 -14 16 -64v-4q-16 -69 -16 -116 q16 -22 16 -56v-24q36 -27 36 -32q-20 -11 -20 -16v-20q0 -40 -4 -96q36 -68 36 -80q0 -18 -4 -88q1 -7 20 -32v-44q-1 -61 -40 -120zM184 1152q-30 20 -52 20h-24q-64 45 -64 116q-6 0 -12 12v8q14 29 56 48q68 60 120 60h8q83 -60 104 -92q-6 -108 -32 -108 q-29 -44 -104 -64z" />
<glyph unicode="&#xa2;" horiz-adv-x="1068" d="M354 -17h-2q-7 0 -19 -8h-4q-48 0 -48 28t-56 28q-45 14 -52 36q-45 44 -84 44q-18 108 -48 136q-14 19 -32 104q-28 19 -28 68v4q16 17 16 40q0 18 -12 60v12q28 36 28 108q-3 29 -12 40v16q40 64 64 116q25 17 52 72q55 19 96 92h20l12 -8q44 45 84 48q34 0 34 19v6 q-3 11 -3 19q0 9 3 14l15 65q28 37 62 47h2q37 0 56 -106q-5 -14 -5 -26q0 -3 1 -5q1 -14 6 -18.5t13 -4.5q7 0 104 -10q29 -4 80 -48q31 0 92 -92q60 -27 80 -52v-36q10 0 32 -24v-72q-24 -58 -24 -64v-32q-24 -48 -60 -48q0 -4 -4 -4h-40q-57 -24 -92 -24l-4 8v40 q-56 92 -56 112q0 46 32 56q26 22 32 36q-32 74 -48 74q-11 0 -24 8q0 -18 -24 -32h-4q-48 27 -60 27h-2q-10 -3 -22 -24v-26q0 -27 1 -62q-11 -20 -16 -82l-25 -46q30 -16 30 -44q0 -17 -11 -39l-9 -18q9 -36 9 -62q0 -23 -8 -38q13 -11 13 -28q0 -16 -11 -36l-15 -29 q9 -41 13 -43q-13 -23 -13 -35q0 -8 6 -11q17 -62 17 -94q0 -11 -2 -18q-5 -19 -5 -28q0 -5 2 -7q4 -6 13 -10q2 -1 4 -1q9 0 25 10q21 13 42 34h36q60 34 60 96q3 0 20 20q27 -4 44 -4q28 23 28 52q0 31 88 56q40 -30 40 -36v-16q0 -93 -60 -172l-8 -4l-40 4 q-10 -43 -88 -96h-8q-9 9 -60 16q-17 -52 -76 -52q-38 0 -43 -4.5t-6.5 -15t-4.5 -29.5l-15 -68l-7 -14q-4 -8 -21 -8q-8 0 -19 2l-3 2q-32 30 -54 117q-2 21 -10 22zM341 843q-5 2 -11 2q-27 0 -93 -38q-58 -49 -76 -80v-68q-22 -72 -48 -72q-1 -7 -20 -32v-48 q20 -14 20 -24l-12 -40v-8q8 -11 20 -72q18 -6 48 -116q31 -5 76 -48v-36q14 -36 52 -36q27 20 44 20q18 -30 28 -30h1q3 1 3 9q0 20 -17 84q20 40 20 66q0 22 -13 34q23 25 27 32l5 11q-22 32 -27 68q6 10 6 20q0 19 -23 34q21 45 21 72q0 22 -16 30l2 3q5 10 18 18 q-5 46 -5 91q0 28 2 56q-18 16 -18 37q0 16 10 35q-2 15 -24 26z" />
<glyph unicode="&#xa3;" horiz-adv-x="1224" d="M713 1422l48 -28l52 12q15 -11 30 -33q63 -12 71 -61q46 -34 46 -59v-5q-3 -11 -3 -21q0 -15 5 -27q13 -12 46 -65l-15 -82l11 -47q3 -16 3 -28q0 -24 -11 -35q-18 -17 -18 -37q7 -9 7 -17q0 -22 -51 -34l-36 -5l-31 -2q-45 0 -64 39q-12 0 -16 23q-1 6 -1 11q0 16 9 29 l7 47l23 16l-1 26l35 10q-1 6 -1 12q0 20 11 42l3 24l-8 9q-4 66 -50 120q-16 1 -50 34l-86 -3q-23 -22 -55 -51l-50 -8l-36 -39q-2 -46 -3 -85l-51 -43l6 -41l-44 -83q9 -22 9 -48q0 -30 -12 -65q5 -21 25 -21q14 0 34 10l38 -10h29q7 1 13 1q33 0 33 -31q0 -23 -17 -62 q-27 -17 -52 -17q-8 0 -16 2l-30 -22l-38 10l-29 -33q6 -14 6 -27q0 -18 -12 -34l-9 -33l13 -52l-13 -36q-3 -12 -3 -22q0 -33 26 -50l24 -29l27 1l17 -19l27 -36l37 -10q20 -35 20 -82q0 -27 67 -49l6 -11q0 -17 -3 -52q10 -9 24 -9q9 0 19 4q5 1 10 1q23 0 52 -34 q60 23 84 77q4 27 20 53v7l2 31v30q14 27 26 71l46 25l25 -12q4 1 8 1q15 0 41 -16q23 -26 23 -48q0 -11 -6 -21l11 -35q-21 -34 -21 -70v-9l-24 -22l-8 -35l-28 -27q-11 -55 -31.5 -62.5t-62.5 -23.5q-7 4 -15 4q-20 0 -48 -20l-45 8q-22 -10 -42 -10q-9 0 -18 2 q-30 23 -70.5 32.5t-61.5 52.5l-32 13l-5 33q-25 7 -33 22.5t-9 55.5q-43 13 -51 45l-24 13q-7 6 -12 6q-11 0 -14 -30v-91l-23 -41q-3 -63 -77 -81q-48 -23 -58 -23q-18 3 -48 21q-17 -7 -55 -11q-14 -1 -25 -1q-16 0 -26 2l-32 21l-24 22l-5 47q-42 28 -42 75q0 16 4 33 l-18 21l23 62l-8 35l58 47q21 40 45 40q9 0 18 -5l28 34l13 12h39q3 8 17 8q17 0 52 -13q33 10 35 35v48l21 20q-21 20 -21 38q0 11 10 22l10 57q2 7 2 12q0 24 -33 24h-7q-25 -11 -40 -11q-11 0 -17 5q-12 8 -28 8q-6 0 -13 -1q-4 -1 -8 -1q-18 0 -27 18q0 33 18 65 q13 24 34 24q8 0 16 -3q12 -4 22 -4q16 0 26 12q8 10 18 10q9 0 20 -7q3 -2 7 -2q18 0 27 77v62l29 101v53q5 11 35 31q15 55 22 108q62 16 90 59q14 56 41 56l78 58q95 5 98 21zM99 256l1 -25q6 -15 6 -26q0 -17 -14 -25q10 -45 30 -45h3l17 -2q18 -19 34 -24q63 10 65 49 l24 32l-15 37q8 26 8 36v4q-2 9 -13 17t-63 8l-28 5q-30 -41 -53 -41h-2z" />
<glyph unicode="&#xa4;" horiz-adv-x="3791" d="M33 59l-4 -28v-20h4q148 329 160 372q4 0 4 4v12q-64 51 -64 84v24q0 32 32 32h12q41 -25 52 -68q13 16 60 128l16 12h20l-68 -200q18 -8 52 -8h20q62 7 128 68q42 60 52 124q0 107 -108 152q-32 4 -48 4q-142 0 -280 -160v-64l-8 -71q-1 -14 -3 -35l-1 -18 q-18 -276 -28 -344zM965 295h8q48 0 100 112l8 28v12q0 8 -8 8h-4q-45 0 -100 -132q0 -23 -4 -28zM165 511q-4 -8 -4 -12q19 -68 48 -68q0 4 4 4l-8 16l4 8q-18 52 -44 52zM53 671l-28 -92q22 0 32 84v8h-4zM745 511q24 0 72 108q12 33 12 68l-4 16q-19 0 -80 -192z M2473 603v-16h4q66 20 108 120q-7 20 -20 20q-46 -12 -92 -124zM2913 655l4 -8q-8 -25 -8 -40q6 -24 28 -24q76 0 120 168q6 0 12 32q0 15 -24 32h-8q-55 0 -124 -160zM24 83l6 52q8 102 11 140l9 123l4 91q-4 70 -13 70q-6 -16 -28 -16q-10 0 -12 16q20 57 44 164 q16 24 20 24q12 -13 12 -20v-16q-2 -20 -2 -34v-22q0 -10 2 -24q148 147 240 180q36 14 76 20q151 0 192 -104q9 0 20 -80q0 -110 -88 -196q-87 -58 -160 -68h-80q44 -95 76 -204q13 -32 56 -32q118 54 176 152q0 12 72 196q86 248 204 248q8 -15 8 -32v-4q0 -109 -136 -232 q-9 0 -36 -84h4q31 22 76 32h32q25 0 40 -40q-3 -35 -60 -188l-8 -28l8 -4h4q63 25 92 84q22 106 128 204q49 28 84 28q16 -17 16 -40v-24q0 -79 -140 -152q8 -44 44 -44h12q107 0 176 244q16 48 60 48l36 8l4 -8q-80 -202 -80 -224v-16q0 -8 24 -12q41 9 100 84 q62 196 92 196q14 0 64 12l4 -8l-4 -20q117 56 152 56q48 0 48 -40q-60 -181 -60 -192v-4q0 -9 20 -12q18 5 72 56l88 224q25 0 88 12l4 -8q-12 -28 -12 -40q97 80 160 80q31 0 52 -32q100 70 156 72h4q48 -5 48 -48q0 -30 -52 -180l4 -20h24q84 58 84 120q38 87 120 160 q58 28 68 28h28q20 -9 20 -36q0 -95 -148 -160h-4v-20q0 -24 32 -40h8q108 0 192 208q32 88 32 100l-8 4l-24 -4q-8 0 -8 8v4q0 10 60 28q10 80 76 80q12 0 28 4q4 -8 4 -12q-20 -40 -20 -60l40 8l4 -8v-4q0 -16 -60 -28q-92 -242 -92 -272q8 -4 12 -4q32 0 84 80 q88 212 228 212q7 0 32 -16q0 29 88 40q4 -8 4 -12q-44 -108 -72 -192l-4 -8q-4 -28 -16 -48l12 -8h8q31 0 120 108q132 347 144 356q26 12 80 20l4 -8q-58 -147 -76 -180l-35 -94q-41 -119 -41 -146l12 -8q96 49 136 136q64 168 104 288q0 40 96 52l4 -8q-28 -86 -144 -396 q0 -13 12 -28q57 40 64 40q8 -13 8 -24l-16 -56q0 -80 84 -80h16q6 0 16 -16q0 -14 -444 -100q-360 -84 -1216 -252l-1476 -308q-51 -8 -436 -92h-20v4q35 120 64 120q61 0 1316 240l15 2q44 14 725 134q593 108 1356 256q-32 34 -32 64v40q-71 -64 -112 -64q-20 0 -28 44 q5 6 8 40h-4q-131 -120 -172 -120h-16q-5 0 -20 20v48q-122 -112 -164 -112q-39 0 -44 48q-78 -80 -116 -80h-24q-44 17 -44 76v4q-96 -112 -144 -112h-16q-5 0 -20 20v8q0 20 4 60q-137 -132 -196 -132h-12q-50 0 -56 60h-4q-86 -78 -136 -104h-36q-15 6 -28 40 q12 64 56 204q0 28 -28 28q-52 0 -104 -100q-52 -127 -72 -196q0 -19 -96 -28l-4 8q56 147 88 248q-8 18 -16 20h-20q-120 -79 -120 -136q-62 -155 -72 -168q-44 -16 -76 -16l-4 8q0 5 16 60q-99 -88 -144 -96q-44 12 -44 36q0 16 68 212v8q-9 24 -16 24h-8q-96 -37 -96 -72 q-88 -225 -96 -236q-37 -12 -80 -20l-4 8q0 27 28 76h-4q-115 -108 -164 -108q-32 0 -32 40v24h-4q-122 -104 -176 -104q-64 20 -64 64v8q-101 -96 -128 -108q-7 -4 -16 -4h-16q-32 0 -32 36q0 38 64 204q-6 36 -16 36h-8q-55 0 -76 -92q-12 -17 -88 -216q-30 -8 -56 -8h-12 v12l36 116v12h-4q-56 -39 -196 -172q-22 -12 -36 -12q-32 0 -32 160q-8 163 -32 176q-132 -342 -148 -408q-24 -61 -36 -116h-12q-21 17 -48 68q12 74 30 155q2 15 5 41zM1337 707q8 -1 8 -8v-4q-40 -37 -40 -96h-16q-28 18 -28 40v32q0 30 52 36h24z" />
<glyph unicode="&#xa7;" horiz-adv-x="973" d="M338 1766l24 -12q30 8 40 8q17 0 56 -16q60 8 64 8q26 -8 72 -60q76 -28 76 -72q0 -65 16 -140q0 -38 -60 -92q-3 -28 -12 -28h-24q-5 0 -20 28q-49 24 -60 24l-16 -8q-52 25 -52 64v52q13 33 20 116h-4q-25 0 -32 -48h-4q-22 0 -32 40l-20 4q-68 0 -68 -56v-48 q0 -8 -8 -8q-47 44 -64 44h-4q-12 -50 -12 -64q26 -136 64 -136q45 -51 60 -108q88 0 88 -64q8 0 16 -24l36 4q30 0 48 -80q10 -25 68 -40q40 -26 40 -52q0 -23 56 -68q40 -49 40 -96q40 -32 40 -48q-8 -36 -8 -52q28 -15 28 -20q-8 -79 -24 -104q0 -15 20 -56 q-15 0 -100 -112l-24 -40q-24 -16 -32 -16q3 -48 20 -48q8 -1 8 -8q-12 -20 -12 -40v-16q8 -28 8 -32q-8 -28 -8 -32q20 -16 20 -20v-20q-24 -21 -24 -60q-40 -57 -40 -112l-24 8q-20 0 -100 -76h-12q-20 12 -32 12h-20l-28 -24q-46 24 -60 24l-20 -24l-48 4h-12 q-12 0 -12 72h-4q-51 -28 -56 -28q-56 43 -56 48q0 48 -40 76l-4 28l20 32v36q0 40 76 64q0 5 24 20q27 -13 76 -56q4 0 4 4v16h4q32 -23 32 -52q0 -31 -24 -52q8 -36 8 -52v-4q0 -9 -28 -12q-13 8 -24 8h-4v-8q12 -20 24 -20q10 0 40 8l4 -8l-4 -24q16 -23 16 -28h8 q6 0 36 60l12 8q33 0 56 -32h4q40 0 40 48q0 17 32 24q0 -6 12 -12h4q19 4 44 104v4q-44 10 -44 16v16l8 12v8q-24 0 -24 32l-48 88q-20 12 -60 20q-16 24 -20 64q-33 23 -88 40q0 6 -8 16v28q0 37 -68 68q-56 27 -68 68q-60 17 -80 56q0 76 -28 76q-11 11 -28 52 q-17 0 -20 52q-3 0 -16 20v36q-5 32 -5 55q0 47 20 60q-7 15 -7 25q20 54 68 72q38 80 92 80h28q6 0 16 16l-12 16v8q14 0 14 16q0 4 -1 9v12q-24 7 -41 7q-30 8 -40 32v12q0 14 4 84q-8 28 -8 44q25 112 40 124q16 12 20 56q13 8 24 8h40q4 28 44 60h12q22 0 56 4zM86 1085 h-19v-4l7 -11q0 -33 -11 -47v-23q31 -36 31 -54l-4 -27q65 -24 65 -30q9 -17 23 -81q7 -16 61 -50q30 -47 72 -77q0 -11 46 -39q0 -5 30 -50q0 -22 4 -27l19 4q65 -19 65 -54q0 -12 26 -17.5t43 -5.5q15 -7 27 -7v30q15 26 99 93l8 11v4q-23 17 -35 73q46 13 46 19 q-15 9 -46 74q-11 0 -19 15v4l8 27q-18 18 -96 61q0 22 -34 77h-4l-19 -15h-4q-5 0 -19 19v12l4 46q-76 51 -84 65q-15 -7 -27 -7q-23 18 -23 50q-23 14 -23 19q-29 -15 -34 -19q0 23 -30 23q-3 0 -28 -6.5t-64 -36.5q-48 0 -57 -34q0 -4 -4 -4z" />
<glyph unicode="&#xa8;" horiz-adv-x="1054" d="M646 1824q41 -4 64 -4q21 0 68 4q32 0 76 -64v-80q0 -25 -36 -56q-8 0 -56 -60q-27 -4 -44 -4q-6 0 -20 44q-17 24 -84 36l-20 24l16 44q0 13 -4 68q40 25 40 48zM90 1820h44q29 -8 32 -8h44q30 -33 48 -84v-28q-23 -72 -60 -72q-23 -15 -112 -44q0 -4 -4 -4 q-80 8 -80 80q-4 12 -4 48q0 51 72 108z" />
<glyph unicode="&#xa9;" horiz-adv-x="1172" d="M578 380l-35 -6q-23 7 -40 36q-30 -26 -93 -28q-27 29 -27 34l-33 -18q-32 1 -87 45q-77 1 -114 78q-24 33 -75 72q-37 80 -37 132q0 13 2 24q-16 20 -40 40l9 24l-17 79q0 16 8 30q12 123 13 136q6 23 53 75q21 105 109 160h5q43 0 43 17q0 9 77 59h8l12 -8h16l37 25 l80 -1q42 13 60 13q17 -12 83 -27h40q23 -41 60 -41q101 -26 156 -63q10 -43 41 -88q40 -8 40 -28q0 -4 -1 -7q3 -50 35 -101l-5 -38l10 -53l-3 -25q13 -26 13 -86q0 -15 -1 -32q1 -2 1 -6q0 -29 -49 -117q-15 -82 -21 -101q-60 -49 -89 -100q-59 -37 -103 -68q-6 0 -20 -8 q-13 -2 -24 -2h-36zM545 476q1 7 43 27h19q27 -9 71 -9q40 45 71 71q7 39 42 60q39 24 40 79q4 0 33 36l-4 8l15 59l-15 84l22 69l-35 30l-2 67l-32 44l1 47q0 28 -52 29q-21 57 -71 78h-43q-45 37 -94 38l-33 -15h-24q-13 0 -28 8q-53 -15 -159 -33q-9 -33 -72 -51h-3 q-59 0 -60 -70l-53 -50q4 -20 4 -37q0 -60 -49 -83h-5v-4q29 -15 29 -20l-1 -56q25 -70 39 -152q28 -36 28 -51v-29q62 -49 66 -70q98 -49 98 -71v-1q7 0 43 7q2 -18 52 -33l62 -1zM523 1205q18 -1 40 -18q3 0 18 12l16 -1q16 -3 54 -40h28q35 -17 35 -43q10 -22 42 -38 q0 -37 16 -37q6 -7 9 -27v-7q-15 -49 -22 -52q-8 -12 -34 -37q-20 -8 -59 -10q-31 1 -40 25q-22 34 -22 61v4q16 13 16 38v3q2 0 8 11l-17 9q-22 18 -49 40h-5q-7 0 -15 -5q-5 2 -8 2q-6 -3 -12 -3h-9q-5 0 -25 9h-4q-23 0 -35 -11q-19 -2 -29 -2l-25 3q-1 -14 -32 -29 q-21 -17 -22 -39v-19q0 -6 -54 -29q-3 0 -4 -76q22 -7 23 -13q-26 -19 -27 -26q0 -18 -7 -42q25 -5 45 -21v-12l-5 -8v-17l14 -39h21q34 -49 97 -61l5 -2q47 23 54 23l26 -20q38 24 48 24l5 -1l13 -2q-2 10 -6 17q0 6 25 12l27 28q31 21 37 21h1l18 18v22q0 4 25 20h12 q24 -38 30 -47q3 -6 3 -15q0 -5 -1 -11v-4q0 -19 -8 -38l-13 1q0 -15 -62 -75q-1 -17 -48 -29h-1q-13 0 -54 -36q-17 -2 -28 -2q-14 10 -24 10q-17 -5 -30 -21h-2q-7 0 -39 13q-21 -10 -23 -10q-22 0 -60 36l-60 26q-12 6 -22 36q-60 22 -60 53v1q-12 22 -27 39v8q0 12 5 12 q-17 17 -17 44v3q5 0 5 5v5l-16 17l1 25l-15 28v2q18 13 18 19v1q0 6 -7 16v2q27 62 27 87l1 17q34 39 70 97q1 5 68 41q0 7 23 11q18 -2 28 -2q1 19 48 19h23q2 -1 29 -11q7 0 27 12z" />
<glyph unicode="&#xad;" d="M853 727l16 -16q59 4 96 12q29 0 60 -36v-4q3 -17 3 -32q0 -57 -27 -94q-12 1 -23 1q-41 0 -57 -12q-12 -10 -30 -10q-12 0 -27 5q-19 0 -39 13l-40 -19q-87 20 -96 20q0 4 -4 4q-59 -28 -100 -28q-30 0 -44 28q-43 -20 -52 -20q-29 14 -44 24h-12l-56 -20h-12 q-32 3 -68 24l-56 -24q-7 0 -28 19q-8 0 -25 13l-39 -16l-4 -8l-72 36q-27 -16 -56 -16q-32 0 -32 44q2 43 48 80q46 0 60 -24q14 28 54 31h4q16 0 28 -6q13 -7 24 -7q27 18 57 19l29 -1q36 -12 40 -12q24 16 32 16q18 -12 56 -16q35 20 64 20q18 0 64 -20q42 20 76 20h16 l24 -20h4q18 16 28 16q15 0 64 -12q42 0 96 28z" />
<glyph unicode="&#xae;" horiz-adv-x="2192" d="M471 1534h48q301 0 465 -144q45 -52 45 -95q0 -151 -335 -227q-64 -5 -64 -12q38 -71 93 -99v-7q0 -6 -6 -6q-117 0 -256 108q-230 0 -417 112q-80 63 -80 131q0 150 335 223q82 16 172 16zM-26 1304v-12q0 -145 341 -217q42 -7 156 -16q130 -105 236 -105h3v3 q-55 24 -92 108q401 66 401 233q0 122 -274 201q-137 29 -249 29q-271 0 -446 -112q-76 -61 -76 -112zM356 1457h7q17 0 25 -15v-32q0 -29 -25 -29h-16q-20 13 -20 32q0 3 4 3q-4 6 -4 10q5 31 29 31zM509 1457q19 -4 19 -9q0 -6 -6 -6h-13l-6 3v-48l-3 -16h-4q-4 0 -9 9 q3 28 3 45q0 4 -25 13v3l6 3h25q8 0 13 3zM270 1454h42q6 -1 6 -6q0 -6 -6 -6h-32q0 -8 -4 -13q10 -3 10 -7l6 4q4 0 4 -4l6 4h3q7 -1 7 -7v-6h-32l-4 -16q4 -6 4 -10l-10 -6q-6 0 -6 9q0 4 3 10l-3 19q0 3 3 3l-3 7q0 7 3 13q-3 6 -3 9zM404 1454h3q13 -7 35 -57h3q0 3 4 9 q-4 22 -4 36v9h10v-64q0 -6 -6 -6q-4 0 -39 48v-42q0 -6 -6 -6q0 6 -6 6l3 16q0 5 -3 39h3l-3 6q1 6 6 6zM595 1454h29q22 0 22 -19l-3 -13q3 -16 3 -32l-12 -9h-39q-6 0 -6 6v61q1 6 6 6zM659 1451h10q18 -25 22 -25h3q0 9 19 25h10v-6q-27 -35 -29 -35q0 -4 3 -4 q-3 -25 -9 -25q-7 0 -7 9l4 23q-4 0 -26 32v6zM347 1445l-7 -26q0 -19 19 -29q23 3 23 29q-7 26 -13 26h-22zM602 1442v-16h28q0 6 4 6q-5 13 -10 13zM602 1413q0 -7 -3 -7q3 -5 3 -12h25q5 0 10 12q-11 7 -19 7h-16zM755 1333h13q28 -5 28 -25h-3q3 -7 3 -10q0 -45 -35 -45 q-20 0 -25 29v19q0 25 19 32zM47 1330h9l4 -32v-10q0 -3 -4 -3q0 -19 32 -19q13 0 13 -6q0 -7 -6 -7h-16q-35 0 -35 10v29q0 3 3 3l-3 6v13zM117 1330q10 -3 10 -19v-3q0 -8 -4 -13q4 -6 4 -10q-4 0 -4 -3q13 -16 16 -16h10q5 0 10 10v48q0 6 6 6l9 -13v-6q0 -3 -3 -3l3 -7 v-3l-6 -10h3q0 -35 -35 -35q-25 9 -25 26q0 3 3 9l-3 20v16q1 6 6 6zM283 1330h3q13 -6 35 -73l-6 -4q-22 23 -35 23h-7l-16 -19h-3q-6 0 -6 6q9 12 25 48q-6 0 -6 6zM353 1330h6q18 0 23 -13v-6h-3q-12 9 -23 9q-16 -2 -16 -9v-3q0 -8 39 -13l6 -10v-16q-8 -16 -26 -16h-6 q-17 0 -26 16v3q1 7 7 7q7 -16 22 -16q15 6 16 13v9q-45 6 -45 19v10q9 16 26 16zM525 1330q4 0 10 -3l22 3q19 -7 19 -26q0 -5 -19 -22q0 -3 16 -22q0 -7 -6 -7q-3 0 -29 32h-6q0 -3 -4 -9q4 -7 4 -10h-4l4 -6q0 -7 -7 -7q-6 0 -6 7v60zM618 1330h3q11 0 32 -70q0 -7 -7 -7 q-14 23 -32 23h-12q0 -17 -10 -19h-3q-6 0 -6 6q22 39 22 45q-3 6 -3 9zM819 1330q3 0 3 -3l6 3q3 0 3 -3l7 3h3q25 0 25 -26q-9 -19 -22 -19l19 -25q0 -7 -6 -7h-3q-3 0 -26 32h-6l-3 -16l3 -12l-7 -4q-6 0 -6 7v60q0 5 10 10zM908 1330h3q10 0 32 -70q0 -7 -6 -7 q-15 23 -32 23h-13q0 -2 -7 -19h-6q-6 0 -6 6q22 40 22 45q-3 6 -3 9zM184 1327q6 -1 6 -7v-19h4l35 26h3q6 -1 6 -7q-29 -20 -32 -28q32 -23 35 -32q0 -7 -6 -7h-3l-38 32h-4l4 -16v-9q0 -7 -7 -7q-6 0 -6 7v25q0 7 -3 13l3 6l-3 20zM452 1327q6 0 6 -29l38 29q7 -1 7 -7 q-29 -25 -29 -28q2 0 32 -29v-3q0 -7 -6 -7l-39 32h-3v-25q0 -7 -6 -7q-7 0 -7 7v16q0 3 4 3l-4 6v35q1 7 7 7zM669 1327q6 -1 6 -7v-19h3l35 26h4q6 -1 6 -7q-29 -20 -32 -28q32 -24 32 -29v-3q0 -7 -6 -7l-39 32h-3l3 -16v-9q0 -7 -6 -7q-7 0 -7 7v25q0 7 -3 13l3 6l-3 20 zM745 1295q0 -29 32 -29q8 10 10 29q0 25 -23 25h-6q-6 0 -13 -25zM532 1317v-19h22q6 0 6 6v10l-16 3h-12zM822 1317v-19h22q6 0 6 6v10l-22 3h-6zM276 1285h7q6 0 6 7q-3 5 -3 12q-10 -3 -10 -19zM611 1285h7q6 0 6 7q-3 5 -3 12q-10 -3 -10 -19zM898 1288v-3h10q6 0 6 7 q-3 5 -3 12q-4 0 -13 -16zM461 1209q35 0 35 -48q0 -30 -41 -32q-22 7 -22 41t28 39zM385 1206h22q4 0 16 -16v-13l-41 -35l6 -3h29q6 -1 6 -7l-6 -3h-45q-6 0 -6 6q0 17 48 45v3q-7 13 -20 13q-4 0 -19 -16h-6v10q0 4 16 16zM528 1206q5 0 10 -10v-3q0 -3 -3 -3q0 -4 3 -4 l-3 -32q0 -15 16 -15v-10h-7q-3 0 -3 3l-6 -3h-29v10q19 0 19 6v41l-16 -9l-3 6v3q0 6 22 20zM586 1202h25v-9h-12q-18 0 -23 -13v-6q18 3 26 3q14 -5 22 -19q0 -32 -29 -32h-6q-26 0 -26 32v9q0 20 23 35zM445 1183v-16q4 -24 13 -25h16q9 0 13 25q0 29 -22 29 q-13 0 -20 -13zM576 1158v-13q3 -10 19 -10h7q4 0 9 10v9q0 5 -16 13q-19 -4 -19 -9zM1026 1036h19q79 0 169 -188q170 -132 223 -178q46 0 137 -45q109 -37 109 -83q8 0 16 -32v-3l-16 -3v-3q91 -45 102 -45q242 -55 242 -112q-6 -3 -10 -3q-27 10 -41 10v-3h-3 q-11 0 -182 44q-60 13 -67 13h-3v-3q186 -134 245 -153q32 -19 32 -26l-6 -3h-6l-7 3q0 -13 -6 -13q-46 8 -61 16q0 -16 -9 -16q-8 0 -32 13q0 -9 -7 -9q-30 7 -41 22l-16 -3q-40 21 -41 25l-7 -3h-3l-54 22q-23 -3 -38 -3q-136 35 -169 35q-16 0 -42 -25q-3 0 -57 22h-16 l3 -6v-3l-3 -7q4 0 9 -9q0 -10 -9 -10l3 -51q-64 -102 -64 -150v-25q2 -20 10 -20h28q23 -12 23 -38v-3h-3q-15 26 -20 26h-12l-13 -10h-3q-6 0 -29 10q-29 -47 -41 -48q-7 3 -10 3q-10 -16 -10 -32h-6v10q0 21 26 57v3q-11 -6 -20 -6l-9 6l-19 -16h-3v3q0 19 41 32 q43 21 57 80q7 34 20 83l-10 64q3 6 3 9q0 4 -3 10l3 19v3q0 5 -25 19h-7q7 -11 7 -25q0 -3 -13 -13l6 -16q-5 -13 -9 -13l-23 19h-9l6 -15l-6 -4h-7l-12 10q3 -27 3 -42q0 -42 -80 -114v-10q1 -6 7 -6l47 12q19 0 23 -25v-3h-7q0 7 -12 16q-4 0 -20 -23l-6 -3q-33 3 -51 3 q-10 -6 -19 -6h-10l-22 6l-13 -3l-16 3q-6 -3 -9 -3q0 5 -10 10q-5 -13 -9 -13h-4l10 32h-6q-9 0 -20 -6v6q4 9 20 9l38 -12q43 0 54 19q61 45 61 70q-18 146 -67 246q-77 117 -99 130q-42 38 -42 86v7q0 7 4 13q0 12 -26 70l10 99v3h-4q0 -10 -6 -10l-3 7l3 38 q-6 64 -41 64q-112 9 -112 19q16 31 64 48q39 12 73 19q6 -3 10 -3q53 31 86 31z" />
<glyph unicode="&#xaf;" d="M857 1394l16 -16q59 4 96 12q29 0 60 -36v-4q3 -17 3 -32q0 -57 -41 -85q-44 -15 -54 -15q-20 -12 -32 -12l-20 4q-8 -2 -17 -2q-19 0 -39 13l-40 -19q-87 20 -96 20q0 4 -4 4q-59 -28 -100 -28q-30 0 -44 28q-43 -20 -52 -20q-29 14 -44 24h-12q-52 -20 -56 -20h-12 q-49 0 -68 24l-28 -24h-28q-7 0 -16 36q-8 0 -28 12l-48 -32l-4 -8l-72 36q-27 -16 -56 -16q-32 0 -32 44q2 43 48 80q46 0 60 -24q14 28 72 28q0 4 12 4q13 -8 24 -8q29 12 36 12h52q36 -12 40 -12q24 16 32 16q18 -12 56 -16q35 20 64 20q18 0 64 -20q42 20 76 20h16 l24 -20h4q18 16 28 16q15 0 64 -12q42 0 96 28z" />
<glyph unicode="&#xb1;" horiz-adv-x="1172" d="M611 993q26 0 42 -14l27 -9q48 33 76 34q36 -30 48 -30l46 21q28 0 66 -33q27 8 45 8h8q36 0 45 -56v-20q-19 -72 -56 -72l-58 -35q-21 0 -85 30q-41 -23 -63 -23q-15 0 -22 11q-16 22 -28 22q-2 0 -3 -1q-14 -4 -21.5 -10t-46.5 -6q-15 7 -26 7q-10 0 -15 -6 q-6 -8 -6 -18q0 -9 5 -20q-2 0 -19 -20l4 -20v-4l-4 -24q11 -21 11 -31q0 -3 -1 -5q-5 -26 -21 -64v-8q0 -11 8 -24q15 -19 15 -41q0 -25 -20 -55q15 -28 15 -40v-20q-31 -44 -82 -44h-11q-8 1 -32 34q-15 10 -15 42v4q0 30 15 42q-1 14 -19 42q3 51 27 70v15q-15 38 -24 67 q0 24 19 56q-4 13 -7 47t-23 38t-31 4q-19 -20 -34 -20q-7 0 -13 5q-9 6 -18 6q-11 0 -21 -8q-8 -5 -14 -5q-12 0 -20 17l-20 14q-22 -20 -40 -33l-19 -4q-40 24 -53 24q-32 -12 -39 -12q-11 -4 -21 -4q-41 0 -75 64v4q14 80 45 80q9 17 56 25q27 -17 38 -17h4q54 19 60 19 h11q42 -27 45 -27q43 24 77 24h5q20 0 46 -7q4 0 20 2t21.5 8t8.5 14v2q0 9 -13 26q12 18 19 31q2 3 2 7q0 14 -18 43q-10 15 -10 30q0 20 18 38q9 25 13 46q-18 25 -18 39q0 5 3 8q9 12 10 35q-24 26 -24 47v3q17 52 70 52q66 -5 79 -36q9 -21 9 -35q0 -12 -6 -18 q-6 -7 -6 -16q0 -12 9 -27l-9 -20q11 -21 11 -35q0 -7 -2 -12q-9 -15 -9 -17q18 -61 18 -75v-2q-3 -8 -14 -17q-7 -5 -7 -16q0 -9 4 -21q13 -14 13 -30q0 -9 -5 -18q-3 -7 -3 -11q0 -11 17 -11h16zM850 267l15 -16q58 4 94 12q29 0 59 -36v-4q3 -17 3 -31q0 -57 -40 -86 q-43 -15 -53 -15q-20 -12 -31 -12l-20 4q-8 -2 -16 -2q-19 0 -39 13l-39 -19q-85 20 -94 20q0 4 -4 4q-58 -28 -98 -28q-29 0 -43 28q-42 -20 -51 -20q-28 14 -43 24h-11q-51 -20 -55 -20h-12q-48 0 -67 24l-27 -24h-27q-7 0 -16 36q-8 0 -27 12l-47 -32l-4 -8 q-40 20 -71 36q-26 -16 -55 -16q-31 0 -31 44q2 43 47 80q45 0 59 -24q13 28 70 28q0 4 12 4q13 -8 23 -8q29 12 36 12h51q34 -12 39 -12q23 16 31 16q17 -12 55 -16q34 20 63 20q18 0 62 -20q42 20 75 20h15l24 -20h4q17 16 27 16q15 0 63 -12q41 0 94 28z" />
<glyph unicode="&#xb4;" horiz-adv-x="667" d="M329 1847q22 -6 52 -40h4q23 20 60 32q29 -40 44 -92q0 -46 -52 -112q-11 -32 -44 -32q-18 0 -68 -84q-47 -13 -116 -108q-48 -13 -48 -20q-67 -80 -140 -80q-24 24 -24 64v20q32 18 32 36q0 33 56 64q0 48 20 48q32 33 32 84q76 93 86 126.5t18 33.5q22 0 64 44 q16 16 24 16z" />
<glyph unicode="&#xb5;" horiz-adv-x="1459" d="M744 1369q36 0 52 -24v-60q12 -36 12 -40q-24 -62 -24 -96q-12 -4 -12 -24v-52l-24 -36q12 -20 12 -28q-20 -35 -20 -60q4 -22 4 -32q-12 -4 -12 -24v-20q6 -60 6 -64l-22 -60q0 -4 -16 -24v-20q0 -41 -12 -84q8 -25 8 -32q-5 0 -16 -20v-56q0 -5 -28 -20v-12 q0 -22 4 -56q-8 -16 -8 -28q12 -26 12 -36v-12q0 -12 -16 -36q4 -52 4 -84v-12q8 -28 8 -32q-4 -21 -4 -24h20q30 -5 32 -16v-4q-42 0 -48 -108q-10 -16 -44 -24q0 -28 -48 -28q-56 16 -72 40l-8 12v16q10 76 24 76l-8 12v8q52 6 52 24q-8 13 -8 24q24 18 24 28l-8 52l8 28 v12q0 10 -12 48q14 29 44 52q-4 107 -24 120v4q14 0 28 68q0 21 -4 80q20 26 20 84q16 4 16 16q-20 34 -20 48h-24q-28 -25 -28 -64l-24 -8v-4l8 -12q-15 -12 -24 -12q-52 12 -52 24v24q36 26 36 32t-44 20v8q28 0 28 44l40 92q0 55 20 76q-4 35 -4 44q0 28 40 36v56 q28 24 28 64q77 112 116 112q0 4 12 4zM103 138q10 -4 28 -4q17 0 42 4q11 17 51 27q0 14 28 56q0 31 24 64q0 13 32 36q0 35 20 64q0 35 44 76q47 -6 48 -88q0 -9 -20 -36q4 -65 4 -72q-9 -15 -20 -76q0 -13 -64 -48q0 -29 -24 -68q-10 -32 -32 -40h-4l-22 4 q-10 -16 -30 -20l-42 -17q-32 -11 -66 -11h-5q-13 -1 -24 -1q-14 0 -25 2q-22 12 -26 18t-27 9q-17 19 -17 40v21q0 32 26 33q4 24 36 27q23 4 39 4t26 -4zM374 494q1 2 6 2q8 0 27 -5l13 -3q3 -3 3 -9t-3 -14t-10 -8q-8 0 -23 11q-15 5 -15 13t2 13zM396 553l20 26l22 -12 q17 -10 17 -19q0 -2 -1 -4l-6 -27l-16 -24q-56 12 -56 20zM464 713q32 -14 32 -20v-28q-20 -16 -20 -20v-20q13 0 24 -20q-16 -28 -60 -28l-20 24l20 28l-24 40q0 28 48 40v4zM1184 1365q82 0 108 -72v-48q0 -8 -36 -72l4 -28q-6 0 -16 -16q8 -28 8 -32q0 -24 -28 -68 q-1 -34 -52 -120q0 -92 -60 -152q-8 -13 -8 -24v-72q-40 -23 -40 -32v-28q-12 -38 -12 -48v-4l2 -26l-26 -38v-56q0 -29 -24 -104v-56q0 -10 -12 -48v-64q12 -36 12 -40v-28h16q28 56 48 56l40 30q12 11 16 64l40 34q13 12 20 12q67 -4 80 -40l10 -39v-5q0 -44 -31 -48v-36 q-29 -65 -83 -84q0 -16 -56 -28q-28 -34 -43 -37q-31 0 -57 13l-24 12q-22 -4 -32 -4q-61 30 -76 64l12 20v4l-20 28v24q32 27 32 80v32q0 21 -4 68q24 5 24 12v32q0 23 -4 64q1 14 40 72q0 4 -8 32v20q0 8 8 40q-5 0 -16 20q40 35 40 100q-4 28 -4 48h-24q-12 -31 -20 -100 q-11 0 -16 -52l-24 -8v-16q0 -10 -12 -48v-32q0 -5 -20 -20q-8 10 -8 16h-8q-27 -24 -40 -24v-20q0 -43 -28 -60v-16q0 -7 16 -40q-48 -21 -48 -28q8 -16 8 -28l-28 -48l12 -20q-3 -28 -20 -28q-20 6 -20 28v36l-16 24q0 21 36 44q-20 26 -20 40v20q15 76 28 76q28 43 32 80 q36 0 36 84q9 0 16 52q32 61 48 76q0 26 32 136l16 16q20 -12 32 -12q20 59 36 80v28q0 136 48 136q12 0 16 48q28 40 28 48l24 16q33 108 80 108q6 17 20 24z" />
<glyph unicode="&#xb7;" horiz-adv-x="523" d="M156 790h44q22 0 60 -8q21 4 40 4q44 -48 44 -124q0 -4 -16 -12q16 -31 16 -52v-32q-36 -24 -36 -44q-8 -24 -40 -48h-84l-40 -28q-52 8 -52 28q0 41 -40 48q-40 0 -56 40q4 74 4 124v4q21 33 124 88q3 12 32 12z" />
<glyph unicode="&#xb8;" horiz-adv-x="582" d="M342 3q-2 -6 -3 -12h-4q0 -9 60 -84l12 -40v-20l-24 -72v-8l4 -16q0 -36 -92 -80q0 -8 -96 -20l-12 -4h-4q-64 12 -64 36l-16 4l-4 -4h-4q-100 27 -100 116q0 10 32 16q83 0 92 -28q14 4 21 4t7 -4q27 16 48 16l12 -24h4q28 0 48 44q-20 19 -20 44q-13 15 -76 36 q-17 0 -32 96l-6 4h217z" />
<glyph unicode="&#xbf;" horiz-adv-x="1205" d="M451 21q0 -4 -20 -12q-76 6 -76 20q-68 4 -108 16q-27 58 -80 92q-36 0 -88 120v48q-16 18 -16 32v8q0 12 12 32q0 3 -16 36q0 48 40 72q52 72 72 72h28q34 0 52 -8q3 0 36 16q72 -27 72 -56q67 -58 68 -72v-4q-28 -36 -40 -36q-24 -14 -24 -48q-40 -108 -100 -108v-4 q65 -44 108 -44q0 8 20 8q42 -53 68 -56q65 7 72 16h20q11 0 24 -8q40 14 40 20l-8 12v8q0 6 32 16q10 0 40 -40h4q24 11 24 16q0 35 52 40h8q5 0 24 -40q4 0 48 64q64 31 64 52q0 13 -12 32v24q24 60 24 68v32l-4 8l-8 -4h-24q-52 52 -68 52q-26 56 -56 56q-47 0 -80 60 q-68 17 -92 48q-36 38 -36 64q-64 0 -64 44q4 47 4 68q0 14 -36 96v8q36 33 36 36v24q0 3 -20 52v36q41 21 68 48q26 0 64 -52q4 -125 4 -160q0 -17 -12 -56v-76q0 -35 32 -52h28q18 0 64 -48h32l40 -12q68 -60 112 -76q6 -33 84 -96q24 -52 44 -76q0 -17 -4 -44l20 -24v-8 q0 -18 -16 -36q0 -65 -44 -144q-113 -136 -168 -136q-37 -15 -48 -44q-21 0 -36 12h-8q-44 -28 -76 -28q-53 0 -68 20q-12 -23 -44 -32h-32zM487 1193q-52 52 -68 52q0 37 -32 52q7 56 36 56q83 68 100 68h28q35 0 80 -60q39 0 48 -36v-16l-40 -32v-4l8 -12v-20 q-42 -48 -68 -48h-4q-32 0 -76 -4q-8 4 -12 4z" />
<glyph unicode="&#xc0;" horiz-adv-x="1360" d="M551 1067h-32q0 -17 -12 -32v-24q-8 -68 -8 -76v-20q0 -20 4 -60q-80 -68 -80 -120q-19 -93 -52 -168q16 -36 20 -72q7 0 56 -40h4q3 36 12 36h28l40 -28l64 40q39 -43 72 -48l36 24q5 0 44 -16q0 2 24 28q-36 25 -36 68q-40 60 -40 76q1 16 8 16l-4 8l4 8 q-60 137 -60 176q0 27 -12 64v16q16 21 16 36v36q-32 36 -36 68v36h-20zM636 1383q23 -4 23 -40q24 -22 24 -76q9 0 28 -52v-56q0 -41 40 -88q8 -28 8 -32v-92q15 -46 24 -116v-52q16 -49 16 -60v-32l44 -28q12 -26 12 -36v-12l-8 -12v-24q12 -15 12 -56v-20q60 -72 60 -84 v-12q0 -11 -24 -44q0 -10 44 -68q4 -21 4 -40l-8 -12q40 -20 40 -80q0 -51 184 -60l24 -16q4 -22 4 -36q0 -30 -36 -68q-4 0 -28 20q-16 -36 -52 -36h-8q-21 0 -88 36q-7 -18 -24 -28q-29 0 -80 24l-28 -16h-12q-50 4 -80 8q-26 -4 -52 -4q-36 2 -36 12v44q18 80 36 80 q19 -12 64 -16q44 65 44 132v8q0 32 -28 104l-28 -4q-25 0 -56 12q-13 -8 -24 -8h-4q-20 15 -28 48h-4q-22 -52 -52 -52q-24 16 -36 16l-36 -28h-4q-84 32 -120 32q-32 -10 -32 -16q3 -8 3 -16q0 -20 -19 -36l-16 -24v-60q-12 -15 -12 -86v-4l4 -8q17 6 31 6q12 0 21 -4 q44 -6 56 -28q6 0 12 -12v-44q-18 -27 -52 -52q-27 -4 -44 -4q-14 8 -20 24q-18 -8 -52 -8h-36l-36 20q-22 -12 -44 -12q-40 0 -84 17l-32 -29q-8 0 -49 25q-6 0 -19 47v44q38 28 44 28h4q30 -1 72 -16q22 5 52 68q21 0 64 64l-4 8v20q8 10 8 16q0 126 56 140q7 6 12 52 q32 22 32 28l-32 28v44q27 26 40 96q4 0 4 4v56q0 5 8 44v40q40 33 40 52q0 20 24 80v8q-8 54 -8 68q0 32 32 88v64q0 23 48 76v4l-8 12v8q0 15 45 71q-8 8 -16 17q0 7 -48 20q-69 95 -116 108q-50 84 -68 84q-33 0 -44 32q-52 66 -52 112q15 52 44 92q37 -12 60 -32h4 q30 34 52 40q8 0 24 -16q42 -44 64 -44q8 0 18 -33.5t86 -126.5q0 -51 32 -84q20 0 20 -48q56 -31 56 -64q0 -14 20 -28z" />
<glyph unicode="&#xc1;" horiz-adv-x="1360" d="M551 1067h-32q0 -17 -12 -32v-24q-8 -68 -8 -76v-20q0 -20 4 -60q-80 -68 -80 -120q-19 -93 -52 -168q16 -36 20 -72q7 0 56 -40h4q3 36 12 36h28l40 -28l64 40q39 -43 72 -48l36 24q5 0 44 -16q0 2 24 28q-36 25 -36 68q-40 60 -40 76q1 16 8 16l-4 8l4 8 q-60 137 -60 176q0 27 -12 64v16q16 21 16 36v36q-32 36 -36 68v36h-20zM658 1358q1 -6 1 -15q24 -22 24 -76q9 0 28 -52v-56q0 -41 40 -88q8 -28 8 -32v-92q15 -46 24 -116v-52q16 -49 16 -60v-32l44 -28q12 -26 12 -36v-12l-8 -12v-24q12 -15 12 -56v-20q60 -72 60 -84 v-12q0 -11 -24 -44q0 -10 44 -68q4 -21 4 -40l-8 -12q40 -20 40 -80q0 -51 184 -60l24 -16q4 -22 4 -36q0 -30 -36 -68q-4 0 -28 20q-16 -36 -52 -36h-8q-21 0 -88 36q-7 -18 -24 -28q-29 0 -80 24l-28 -16h-12q-50 4 -80 8q-26 -4 -52 -4q-36 2 -36 12v44q18 80 36 80 q19 -12 64 -16q44 65 44 132v8q0 32 -28 104l-28 -4q-25 0 -56 12q-13 -8 -24 -8h-4q-20 15 -28 48h-4q-22 -52 -52 -52q-24 16 -36 16l-36 -28h-4q-84 32 -120 32q-32 -10 -32 -16q6 -9 6 -18q0 -17 -22 -34l-16 -24v-60q-12 -15 -12 -86v-4l4 -8q17 6 31 6q12 0 21 -4 q44 -6 56 -28q6 0 12 -12v-44q-18 -27 -52 -52q-27 -4 -44 -4q-14 8 -20 24q-18 -8 -52 -8h-36l-36 20q-22 -12 -44 -12q-40 0 -80 14l-36 -26q-8 0 -49 25q-6 0 -19 47v44q38 28 44 28h4q30 -1 72 -16q22 5 52 68q21 0 64 64l-4 8v20q8 10 8 16q0 126 56 140q7 6 12 52 q32 22 32 28l-32 28v44q27 26 40 96q4 0 4 4v56q0 5 8 44v40q40 33 40 52q0 20 24 80v8q-8 54 -8 68q0 32 32 88v64q0 23 48 76v4l-8 12v8q0 19 70 101v11q32 18 32 36q0 33 56 64q0 48 20 48q32 33 32 84q76 93 86 126.5t18 33.5q22 0 64 44q16 16 24 16q22 -6 52 -40h4 q23 20 60 32q29 -40 44 -92q0 -46 -52 -112q-11 -32 -44 -32q-18 0 -68 -84q-47 -13 -116 -108q-48 -13 -48 -20q-15 -18 -31 -33z" />
<glyph unicode="&#xc2;" horiz-adv-x="1360" d="M531 1391h8q8 6 19 6q6 0 13 -2q9 2 17 2q20 0 39 -14h4q28 0 28 -40q24 -22 24 -76q9 0 28 -52v-56q0 -41 40 -88q8 -28 8 -32v-92q15 -46 24 -116v-52q16 -49 16 -60v-32l44 -28q12 -26 12 -36v-12l-8 -12v-24q12 -15 12 -56v-20q60 -72 60 -84v-12q0 -11 -24 -44 q0 -10 44 -68q4 -21 4 -40l-8 -12q40 -20 40 -80q0 -51 184 -60l24 -16q4 -22 4 -36q0 -30 -36 -68q-4 0 -28 20q-16 -36 -52 -36h-8q-21 0 -88 36q-7 -18 -24 -28q-29 0 -80 24l-28 -16h-12q-50 4 -80 8q-26 -4 -52 -4q-36 2 -36 12v44q18 80 36 80q19 -12 64 -16 q44 65 44 132v8q0 32 -28 104l-28 -4q-25 0 -56 12q-13 -8 -24 -8h-4q-20 15 -28 48h-4q-22 -52 -52 -52q-24 16 -36 16l-36 -28h-4q-84 32 -120 32q-32 -10 -32 -16q5 -10 5 -19q0 -19 -21 -33l-16 -24v-60q-12 -15 -12 -86v-4l4 -8q17 6 31 6q12 0 21 -4q44 -6 56 -28 q6 0 12 -12v-44q-18 -27 -52 -52q-27 -4 -44 -4q-14 8 -20 24q-18 -8 -52 -8h-36l-36 20q-22 -12 -44 -12q-40 0 -76 13l-40 -25q-8 0 -49 25q-6 0 -19 47v44q38 28 44 28h4q30 -1 72 -16q22 5 52 68q21 0 64 64l-4 8v20q8 10 8 16q0 126 56 140q7 6 12 52q32 22 32 28 l-32 28v44q27 26 40 96q4 0 4 4v56q0 5 8 44v40q40 33 40 52q0 20 24 80v8q-8 54 -8 68q0 32 32 88v64q0 23 48 76v4l-8 12v8q0 20 76 108zM551 1067h-32q0 -17 -12 -32v-24q-8 -68 -8 -76v-20q0 -20 4 -60q-80 -68 -80 -120q-19 -93 -52 -168q16 -36 20 -72q7 0 56 -40h4 q3 36 12 36h28l40 -28l64 40q39 -43 72 -48l36 24q5 0 44 -16q0 2 24 28q-36 25 -36 68q-40 60 -40 76q1 16 8 16l-4 8l4 8q-60 137 -60 176q0 27 -12 64v16q16 21 16 36v36q-32 36 -36 68v36h-20zM258 1413q-9 25 -9 87l21 67q51 53 60.5 73t20.5 25q8 4 18 4h5q13 0 36 31 q24 33 67 33q41 60 65 73q49 0 94 16l20 -13l42 -54q44 -7 58 -16q19 -32 32 -38q0 -35 17 -51q2 -58 24 -58l37 -19q11 -25 11 -38v-3q21 -26 21 -38v-13l-7 -32q0 -34 -48 -41q-17 0 -31 28q-45 35 -45 51l-66 23q-39 58 -69 70q-38 20 -61 20q-28 0 -33 -31 q-55 -44 -55 -51q-71 -23 -71 -38q-27 -17 -43.5 -41.5t-43.5 -31.5q-10 -3 -21 -3q-21 0 -46 9z" />
<glyph unicode="&#xc4;" horiz-adv-x="1360" d="M279 1759q25 -6 92 -64q25 -8 72 -52v-12q-28 -36 -28 -80q-74 -32 -96 -88q-15 -28 -20 -28q-8 0 -8 8v28q-76 37 -128 52l-4 40q0 5 4 40q-20 11 -20 16q0 39 84 84l36 48zM863 1735h24q68 0 92 -80q28 -17 28 -24v-44q-36 -21 -36 -72q-19 -44 -84 -44h-16 q-77 0 -140 52v20q0 4 4 4q-28 40 -28 52q55 100 120 120q18 16 36 16zM531 1391h8q8 6 19 6q6 0 13 -2q9 2 17 2q20 0 39 -14h4q28 0 28 -40q24 -22 24 -76q9 0 28 -52v-56q0 -41 40 -88q8 -28 8 -32v-92q15 -46 24 -116v-52q16 -49 16 -60v-32l44 -28q12 -26 12 -36v-12 l-8 -12v-24q12 -15 12 -56v-20q60 -72 60 -84v-12q0 -11 -24 -44q0 -10 44 -68q4 -21 4 -40l-8 -12q40 -20 40 -80q0 -51 184 -60l24 -16q4 -22 4 -36q0 -30 -36 -68q-4 0 -28 20q-16 -36 -52 -36h-8q-21 0 -88 36q-7 -18 -24 -28q-29 0 -80 24l-28 -16h-12q-50 4 -80 8 q-26 -4 -52 -4q-36 2 -36 12v44q18 80 36 80q19 -12 64 -16q44 65 44 132v8q0 32 -28 104l-28 -4q-25 0 -56 12q-13 -8 -24 -8h-4q-20 15 -28 48h-4q-22 -52 -52 -52q-24 16 -36 16l-36 -28h-4q-84 32 -120 32q-32 -10 -32 -16q6 -12 6 -22q0 -19 -22 -30l-16 -24v-60 q-12 -15 -12 -86v-4l4 -8q17 6 31 6q12 0 21 -4q44 -6 56 -28q6 0 12 -12v-44q-18 -27 -52 -52q-27 -4 -44 -4q-14 8 -20 24q-18 -8 -52 -8h-36l-36 20q-22 -12 -44 -12q-40 0 -76 13l-40 -25q-8 0 -49 25q-6 0 -19 47v44q38 28 44 28h4q30 -1 72 -16q22 5 52 68q21 0 64 64 l-4 8v20q8 10 8 16q0 126 56 140q7 6 12 52q32 22 32 28l-32 28v44q27 26 40 96q4 0 4 4v56q0 5 8 44v40q40 33 40 52q0 20 24 80v8q-8 54 -8 68q0 32 32 88v64q0 23 48 76v4l-8 12v8q0 20 76 108zM551 1067h-32q0 -17 -12 -32v-24q-8 -68 -8 -76v-20q0 -20 4 -60 q-80 -68 -80 -120q-19 -93 -52 -168q16 -36 20 -72q7 0 56 -40h4q3 36 12 36h28l40 -28l64 40q39 -43 72 -48l36 24q5 0 44 -16q0 2 24 28q-36 25 -36 68q-40 60 -40 76q1 16 8 16l-4 8l4 8q-60 137 -60 176q0 27 -12 64v16q16 21 16 36v36q-32 36 -36 68v36h-20z" />
<glyph unicode="&#xc5;" horiz-adv-x="1360" d="M551 1067h-32q0 -17 -12 -32v-24q-8 -68 -8 -76v-20q0 -20 4 -60q-80 -68 -80 -120q-19 -93 -52 -168q16 -36 20 -72q7 0 56 -40h4q3 36 12 36h28l40 -28l64 40q39 -43 72 -48l36 24q5 0 44 -16q0 2 24 28q-36 25 -36 68q-40 60 -40 76q1 16 8 16l-4 8l4 8 q-60 137 -60 176q0 27 -12 64v16q16 21 16 36v36q-32 36 -36 68v36h-20zM596 1409l55 22l34 46l-1 24l-2 26v4q0 36 -18 67l-22 3q-21 15 -44 15q-19 0 -39 -10q-44 -28 -44 -37l-4 -12q-7 -21 -7 -40q0 -56 53 -102zM683 1270v-3q9 0 28 -52v-56q0 -41 40 -88q8 -28 8 -32 v-92q15 -46 24 -116v-52q16 -49 16 -60v-32l44 -28q12 -26 12 -36v-12l-8 -12v-24q12 -15 12 -56v-20q60 -72 60 -84v-12q0 -11 -24 -44q0 -10 44 -68q4 -21 4 -40l-8 -12q40 -20 40 -80q0 -51 184 -60l24 -16q4 -22 4 -36q0 -30 -36 -68q-4 0 -28 20q-16 -36 -52 -36h-8 q-21 0 -88 36q-7 -18 -24 -28q-29 0 -80 24l-28 -16h-12q-50 4 -80 8q-26 -4 -52 -4q-36 2 -36 12v44q18 80 36 80q19 -12 64 -16q44 65 44 132v8q0 32 -28 104l-28 -4q-25 0 -56 12q-13 -8 -24 -8h-4q-20 15 -28 48h-4q-22 -52 -52 -52q-24 16 -36 16l-36 -28h-4 q-84 32 -120 32q-32 -10 -32 -16q1 -7 1 -12q0 -25 -17 -40l-16 -24v-60q-12 -15 -12 -86v-4l4 -8q17 6 31 6q12 0 21 -4q44 -6 56 -28q6 0 12 -12v-44q-18 -27 -52 -52q-27 -4 -44 -4q-14 8 -20 24q-18 -8 -52 -8h-36l-36 20q-22 -12 -44 -12q-40 0 -81 15l-35 -27 q-8 0 -49 25q-6 0 -19 47v44q38 28 44 28h4q30 -1 72 -16q22 5 52 68q21 0 64 64l-4 8v20q8 10 8 16q0 126 56 140q7 6 12 52q32 22 32 28l-32 28v44q27 26 40 96q4 0 4 4v56q0 5 8 44v40q40 33 40 52q0 20 24 80v8q-8 54 -8 68q0 32 32 88v64q0 23 48 76v4l-8 12v8 q0 7 11 24q-9 9 -19 18q-37 10 -88 76v4l4 44l-20 64l4 32l-8 36v12q52 56 52 84q25 27 80 52q0 14 72 40q139 -11 156 -36q96 -12 96 -68q22 -29 36 -36l10 3l9 -4l8 -10l2 -11l-4 -18v-3q0 -12 -17 -37q18 -52 48 -52v-16q0 -19 -48 -24q-16 -14 -16 -28l12 -40v-16 q0 -12 -72 -36z" />
<glyph unicode="&#xc6;" horiz-adv-x="2176" d="M597 1169q-16 -48 -24 -128q-40 -21 -40 -56q0 -8 -28 -48q12 0 12 -40q-13 -20 -56 -28q0 -4 -4 -4l4 -40v-32q0 -15 -24 -44v-4q0 -13 12 -28v-44q-24 -55 -24 -92q-16 -16 -16 -40q24 -14 24 -24q-16 -29 -16 -36q16 -4 28 -12h8q11 9 40 12q23 -2 36 -12h4q8 0 68 44 q19 8 36 8q20 -28 32 -28q5 0 40 4q29 -16 36 -16q12 21 12 40v104q-48 31 -48 36v56q0 86 -20 176v44q-19 20 -44 20l-4 40l28 28v12q-8 10 -8 20h-28q-8 0 -8 8q0 13 12 28v8q-18 59 -36 68h-4zM1086 124l55 52q-4 44 -4 76l20 28v4q0 13 -12 28q0 15 -4 100l12 40v20 l-8 12v64q12 44 12 56q0 13 -16 32v12q16 40 16 64q0 4 -16 52q0 7 4 48q-8 15 -8 32v8q40 61 40 128l-20 28v12q0 13 12 28v24l-8 12v12q0 22 16 28q-4 47 -4 68v24q-25 29 -68 48h-36l-40 -28h-12q-42 8 -76 20q-18 -8 -52 -8q-40 11 -40 52v8q0 74 52 92h32l36 -4 q42 24 80 24q20 -16 20 -20l48 4h32q23 0 44 -16h4q15 11 56 24h20q29 -8 32 -8h12l32 24h24q13 -10 32 -16q22 4 36 4q13 0 28 -12h12q0 16 8 16h8l28 -32h20q44 12 56 12q35 -4 40 -4l80 24h4q36 -36 56 -36h16q23 20 44 20q128 -34 128 -48q32 -42 32 -100v-80 q0 -34 -12 -48q0 -4 32 -32v-4q0 -21 -32 -60q12 -20 12 -32v-8l-20 -32v-8l20 -28v-12q0 -52 -20 -52q-48 16 -64 56q0 56 -32 56q-24 15 -24 52q52 29 52 56q-38 0 -60 88v24l8 12v4q-8 0 -8 4q-32 -16 -44 -16q-24 36 -48 36q-80 0 -120 32h-4q-26 0 -52 -36h-8l-36 40 h-28q-4 0 -52 -16h-8l-28 8q-82 -28 -100 -28v-60q0 -36 -32 -100v-12q24 -28 24 -44l-24 -36v-28l16 -84v-36l52 -28l12 -16l28 4h56l24 -20q52 68 88 80q0 10 16 28q-12 20 -12 52v20q0 8 52 28q96 -14 96 -60v-92l-24 -32v-28q-8 -28 -8 -32q32 -15 32 -28 q-10 -35 -40 -64v-48q32 -51 32 -56q-32 -33 -32 -56q0 -47 -52 -76q-39 0 -64 60v32q0 13 -32 56q12 20 12 32q-28 17 -28 24v40q-12 0 -32 16q-31 -12 -40 -12h-44l-40 12q-27 -52 -68 -52h-12l-8 4v-48q0 -50 4 -124q-20 -27 -20 -48v-8q0 -31 32 -88v-4q-28 -26 -28 -28 v-64q16 -12 20 -56q49 -32 96 -32l64 -20q17 28 24 28h40q8 0 16 -44h4q0 35 52 40h16q31 -11 44 -56q8 0 8 -32q45 64 52 64q104 68 104 88q0 42 76 96v36l4 40q-36 0 -36 28q0 4 40 32q15 80 20 80q10 0 20 8h32q38 -13 64 -36v-28q0 -11 -16 -60v-52q0 -44 -24 -76 q-18 -63 -32 -92q0 -13 16 -32v-8q0 -2 -28 -40v-36q-37 -20 -72 -60h-88q-14 0 -36 4q-29 -16 -36 -16q-30 0 -64 52q0 -40 -100 -40q-12 13 -12 20h-8q-20 -32 -72 -32l-32 16q-75 -6 -88 -6q-19 32 -24 32q-20 -20 -64 -28h-4l-40 12h-4q-22 -20 -36 -20q-10 0 -19 2 q-12 -5 -25 -9h-4q-20 12 -32 12q-4 0 -48 -16q-17 11 -31 19h-1q-9 7 -32 12q-19 -3 -33 -4l-23 -11q-44 20 -44 24q-8 -4 -12 -4q-13 8 -20 8q-29 -26 -36 -26q-75 0 -104 64v12q30 49 108 80h28v4q-16 17 -16 52q20 27 20 48v24q-40 25 -64 100v4l-28 -4h-36q-26 0 -56 8 q-6 -72 -20 -72q-84 40 -84 52q0 16 -8 16q-16 -20 -64 -20h-4l-36 32q-7 0 -36 -44q-80 -29 -80 -88q0 -16 4 -16q36 0 36 -52q-3 -28 -20 -28v-8q40 -14 64 -48v-12l-52 -72q-64 0 -64 36h-8q0 -45 -68 -48q-53 0 -68 28q0 -5 -32 -28h-4q-26 20 -40 60l-8 4h-8 q-25 -36 -52 -36h-20q-20 25 -20 48v32q24 28 48 28q17 0 40 -16l72 28q29 -4 36 -8q15 16 48 60v20l-8 12v20q23 39 60 76v104q0 11 68 136v4q-40 0 -40 40q35 0 48 64q24 22 24 100v20q19 44 48 44v36l8 12v120q40 40 40 92q7 17 20 104q28 61 28 80v24q15 47 24 60 q24 24 32 24q17 14 38 14q5 0 10 -1q17 -13 34 -13h4l21 -10q47 -63 69 -162v-56l8 -12v-48q40 -48 40 -72q0 -3 -4 -32q36 -15 36 -68q24 -22 24 -36q-24 -23 -24 -44v-24q12 -15 12 -56v-64q0 -9 32 -64q0 -17 52 -156v-60q16 -21 16 -36q-11 -20 -24 -20v-8 q28 -33 28 -80q35 -24 36 -32q0 -4 -4 -4q12 -19 12 -60l15 -56q34 -19 75 -19q13 0 27 2zM457 93q12 -15 12 -28v-4q-14 -24 -20 -24h-4q-20 16 -20 36q10 20 32 20z" />
<glyph unicode="&#xc7;" horiz-adv-x="1157" d="M301 20q-60 16 -60 28q0 7 -48 32v36q-80 15 -80 36q0 27 -44 100q0 51 -56 176v64q-24 57 -24 60v108q11 26 11 77q0 31 -4 72l9 75q18 20 18 50q0 10 -2 21l8 37q0 44 32 100q0 62 44 72q16 0 48 88q62 26 92 80q32 44 60 44l12 -8h20l76 48h36q17 -32 40 -32h4 q0 4 36 28q60 -17 60 -48h4l40 16q22 -46 72 -56q20 -24 32 -24l20 12q40 -34 52 -36q0 62 40 108h32q30 0 60 -36q-4 -67 -4 -104v-16q-7 -6 -12 -52q-20 -12 -32 -12v-48q16 -45 16 -56v-24q0 -10 -12 -48v-44q9 -33 36 -44q18 -8 20 -16v-32q-31 -60 -68 -60 q-27 34 -64 72v40q-64 66 -64 72v40q-12 20 -68 152q-28 1 -92 96q-27 4 -44 4h-28l-36 20q-32 0 -42 -23l-17 -22q-22 3 -41 9q-50 -16 -76 -52q-28 -13 -28 -36q-18 -67 -36 -88q-20 -40 -44 -40v-60l-28 -68q4 -70 4 -88q-20 -11 -20 -24q9 -21 9 -42v-24q-25 -8 -25 -46 q0 -17 4 -38l3 -20l-27 -26q20 -27 20 -40q0 -14 -12 -36q20 -41 20 -52v-36q0 -9 -4 -16l76 -132q0 -45 26 -78q0 -32 36 -32q15 -16 112 -64q16 -26 56 -56q11 4 38 22q23 0 60 -20q22 49 52 68l56 -4q83 82 128 152q0 39 28 52q6 5 12 48q0 3 64 80q68 -14 68 -68v-20 q-66 -116 -92 -200q-26 -46 -84 -76q0 -24 -38 -88h-72q-23 -48 -53 -67h-14q-4 0 -7 -7v-2q0 -10 29 -39l12 -40v-20l-24 -72v-8l4 -16q0 -36 -92 -80q0 -8 -96 -20l-12 -4h-4q-64 12 -64 36l-16 4l-4 -4h-4q-100 27 -100 116q0 10 32 16q83 0 92 -28q14 4 21 4t7 -4 q27 16 48 16l12 -24h4q28 0 48 44q-11 11 -11 30q0 14 6 32q-13 15 -52 67q-17 0 -61 24t-75 62z" />
<glyph unicode="&#xc8;" horiz-adv-x="1337" d="M731 998h8q50 0 76 -36v-4q0 -19 -24 -40q-4 0 -32 8h-36q-12 4 -12 24v4q6 44 20 44zM685 1397q20 5 46 5q4 0 24 -16h8l88 36q42 -36 76 -36q29 4 32 4q66 -4 100 -4q50 -38 72 -76v-24q0 -26 -21 -63q25 -54 25 -105v-8l-16 -46q0 -14 20 -58v-64q-4 -31 -28 -56h-48 q-48 17 -48 36q0 7 -8 24q12 21 12 40l-16 28v44q0 8 -24 48v40l-48 48l-16 -12h-12q-15 64 -20 64q-7 4 -16 4q-12 0 -40 -16l-60 28q-37 -28 -44 -28q-40 0 -76 24h-4q-51 -40 -68 -40q-7 20 -48 44q-48 0 -48 -40l8 -12v-4q-64 -34 -64 -40v-40q0 -6 -32 -28v-36 q8 -28 8 -32v-12l-20 -28v-8q16 -17 16 -40q0 -9 -12 -32q12 -20 12 -40v-4q-20 -19 -20 -44v-16q84 -20 116 -40q27 11 40 20h44l36 -32h8q48 25 48 68v60q3 14 52 32h16q7 -10 60 -40v-36q-28 -18 -28 -24q34 0 56 -48v-4l-32 -36v-24q0 -24 16 -68v-20q-21 -24 -40 -24 h-40q-23 24 -88 44q-16 23 -44 36h-8q-28 -28 -44 -28h-12q-3 0 -20 28q-55 -36 -72 -36q-10 0 -76 28v-20q32 -10 32 -20l-32 -28q17 -22 68 -44v-12q-48 -30 -48 -52v-12q16 -52 16 -56v-16q0 -8 -24 -8v-8q24 0 24 -8v-4l-20 -24v-40q13 -17 28 -72v-20q0 -12 -16 -12 q24 -92 48 -92q2 -8 20 -16q4 0 52 16h44l24 -4q34 20 44 20q60 0 60 -32q8 0 20 24q26 12 36 12h4q29 -25 60 -28q0 -4 4 -4h4q9 6 80 28l76 108l4 20v4l-16 16v4q11 37 40 84q4 50 4 60q-12 20 -12 32v8q30 23 48 52h4q68 0 84 -52q13 0 24 -80v-24l-32 -48v-40 q0 -4 8 -32v-8q0 -30 -48 -52v-4q12 -15 12 -24q0 -18 -4 -52l4 -40q0 -33 -48 -68h-28q-45 -16 -56 -16l-36 32q-18 -32 -72 -32q-40 18 -40 48h-4l-20 -32q-26 -16 -44 -16l-40 8q-36 -20 -48 -20h-4q-55 18 -80 36q0 -28 -48 -28q-88 4 -88 16q-28 -16 -52 -16 q-36 16 -52 32h-4q-10 -28 -24 -28q-44 0 -76 28q-37 -28 -52 -28q-27 0 -76 20q-38 -20 -92 -20q-20 34 -20 44q8 80 20 80q26 12 40 12q27 -19 40 -40q0 53 64 56l48 -16h12q23 0 48 28v24q7 76 16 76v12q-9 11 -16 44v32l40 24v24q0 25 -48 96l28 40v40q0 7 16 44 q-28 32 -28 40q28 35 28 68q-20 33 -20 44v36q24 24 24 32q-8 26 -8 36v48q-8 14 -24 60v16q18 20 28 20v80l-28 44v8q12 40 12 64h-4q-7 -4 -16 -4h-48q-8 0 -12 48q-3 0 -20 20q-21 -17 -64 -32h-20q-47 52 -96 52q-28 13 -28 16v36q48 34 48 40q0 13 92 36q48 -8 52 -8 q17 0 68 24q30 -25 76 -36q34 16 44 16h44q20 -24 24 -24q30 15 62 15l29 -5q6 0 25 -10l55 14q0 2 -1 4q0 18 -76 28q-28 19 -36 44q-21 0 -24 12v20q-25 -8 -32 -8q-20 15 -52 88q-3 9 -68 28q-56 25 -56 88q-36 23 -36 60q9 24 72 80q90 -32 100 -32l28 4q76 -49 76 -112 q28 0 72 -72q10 0 64 -76q44 0 52 -116q16 -6 16 -28v-7zM699 582q100 -17 100 -28q-8 -28 -8 -32q8 -38 16 -48v-16q-24 -28 -36 -28q-60 0 -60 32q-25 56 -60 56q-4 8 -4 12q0 52 52 52z" />
<glyph unicode="&#xc9;" horiz-adv-x="1337" d="M731 998h8q50 0 76 -36v-4q0 -19 -24 -40q-4 0 -32 8h-36q-12 4 -12 24v4q6 44 20 44zM705 1401q12 1 26 1q4 0 24 -16h8l88 36q42 -36 76 -36q29 4 32 4q66 -4 100 -4q50 -38 72 -76v-24q0 -26 -22 -67q26 -50 26 -101v-8q-18 -44 -18 -62l22 -42v-64q-4 -31 -28 -56 h-48q-48 17 -48 36q0 7 -8 24q12 21 12 40l-16 28v44q0 8 -24 48v40l-48 48l-16 -12h-12q-15 64 -20 64q-7 4 -16 4q-12 0 -40 -16l-60 28q-37 -28 -44 -28q-40 0 -76 24h-4q-51 -40 -68 -40q-7 20 -48 44q-48 0 -48 -40l8 -12v-4q-64 -34 -64 -40v-40q0 -6 -32 -28v-36 q8 -28 8 -32v-12l-20 -28v-8q16 -17 16 -40q0 -9 -12 -32q12 -20 12 -40v-4q-20 -19 -20 -44v-16q84 -20 116 -40q27 11 40 20h44l36 -32h8q48 25 48 68v60q3 14 52 32h16q7 -10 60 -40v-36q-28 -18 -28 -24q34 0 56 -48v-4l-32 -36v-24q0 -24 16 -68v-20q-21 -24 -40 -24 h-40q-23 24 -88 44q-16 23 -44 36h-8q-28 -28 -44 -28h-12q-3 0 -20 28q-55 -36 -72 -36q-10 0 -76 28v-20q32 -10 32 -20l-32 -28q17 -22 68 -44v-12q-48 -30 -48 -52v-12q16 -52 16 -56v-16q0 -8 -24 -8v-8q24 0 24 -8v-4l-20 -24v-40q13 -17 28 -72v-20q0 -12 -16 -12 q24 -92 48 -92q2 -8 20 -16q4 0 52 16h44l24 -4q34 20 44 20q60 0 60 -32q8 0 20 24q26 12 36 12h4q29 -25 60 -28q0 -4 4 -4h4q9 6 80 28l76 108l4 20v4l-16 16v4q11 37 40 84q4 50 4 60q-12 20 -12 32v8q30 23 48 52h4q68 0 84 -52q13 0 24 -80v-24l-32 -48v-40 q0 -4 8 -32v-8q0 -30 -48 -52v-4q12 -15 12 -24q0 -18 -4 -52l4 -40q0 -33 -48 -68h-28q-45 -16 -56 -16l-36 32q-18 -32 -72 -32q-40 18 -40 48h-4l-20 -32q-26 -16 -44 -16l-40 8q-36 -20 -48 -20h-4q-55 18 -80 36q0 -28 -48 -28q-88 4 -88 16q-28 -16 -52 -16 q-36 16 -52 32h-4q-10 -28 -24 -28q-44 0 -76 28q-37 -28 -52 -28q-27 0 -76 20q-38 -20 -92 -20q-20 34 -20 44q8 80 20 80q26 12 40 12q27 -19 40 -40q0 53 64 56l48 -16h12q23 0 48 28v24q7 76 16 76v12q-9 11 -16 44v32l40 24v24q0 25 -48 96l28 40v40q0 7 16 44 q-28 32 -28 40q28 35 28 68q-20 33 -20 44v36q24 24 24 32q-8 26 -8 36v48q-8 14 -24 60v16q18 20 28 20v80l-28 44v8q12 40 12 64h-4q-7 -4 -16 -4h-48q-8 0 -12 48q-3 0 -20 20q-21 -17 -64 -32h-20q-47 52 -96 52q-28 13 -28 16v36q48 34 48 40q0 13 92 36q48 -8 52 -8 q17 0 68 24q30 -25 76 -36q34 16 44 16h44q20 -24 24 -24q30 15 60 40h4q12 -2 12 -32l28 4q6 0 12 -12l73 18v9q0 22 16 28q8 116 52 116q54 76 64 76q44 72 72 72q0 63 76 112l28 -4q10 0 100 32q63 -56 72 -80q0 -37 -36 -60q0 -63 -56 -88q-65 -19 -68 -28 q-32 -73 -52 -88q-6 0 -32 8v-20q-3 -12 -24 -12q-8 -25 -36 -44q-68 -9 -75 -24zM699 582q100 -17 100 -28q-8 -28 -8 -32q8 -38 16 -48v-16q-24 -28 -36 -28q-60 0 -60 32q-25 56 -60 56q-4 8 -4 12q0 52 52 52z" />
<glyph unicode="&#xca;" horiz-adv-x="1337" d="M227 1422q30 -25 76 -36q34 16 44 16h44q20 -24 24 -24q30 15 60 40h4q12 -2 12 -32l28 4q6 0 12 -12l80 20q19 -10 40 -16q29 20 80 20q4 0 24 -16h8l88 36q42 -36 76 -36q29 4 32 4q66 -4 100 -4q50 -38 72 -76v-24q0 -26 -22 -56q26 -61 26 -112v-8q-21 -40 -21 -58 l25 -46v-64q-4 -31 -28 -56h-48q-48 17 -48 36q0 7 -8 24q12 21 12 40l-16 28v44q0 8 -24 48v40l-48 48l-16 -12h-12q-15 64 -20 64q-7 4 -16 4q-12 0 -40 -16l-60 28q-37 -28 -44 -28q-40 0 -76 24h-4q-51 -40 -68 -40q-7 20 -48 44q-48 0 -48 -40l8 -12v-4 q-64 -34 -64 -40v-40q0 -6 -32 -28v-36q8 -28 8 -32v-12l-20 -28v-8q16 -17 16 -40q0 -9 -12 -32q12 -20 12 -40v-4q-20 -19 -20 -44v-16q84 -20 116 -40q27 11 40 20h44l36 -32h8q48 25 48 68v60q3 14 52 32h16q7 -10 60 -40v-36q-28 -18 -28 -24q34 0 56 -48v-4l-32 -36 v-24q0 -24 16 -68v-20q-21 -24 -40 -24h-40q-23 24 -88 44q-16 23 -44 36h-8q-28 -28 -44 -28h-12q-3 0 -20 28q-55 -36 -72 -36q-10 0 -76 28v-20q32 -10 32 -20l-32 -28q17 -22 68 -44v-12q-48 -30 -48 -52v-12q16 -52 16 -56v-16q0 -8 -24 -8v-8q24 0 24 -8v-4l-20 -24 v-40q13 -17 28 -72v-20q0 -12 -16 -12q24 -92 48 -92q2 -8 20 -16q4 0 52 16h44l24 -4q34 20 44 20q60 0 60 -32q8 0 20 24q26 12 36 12h4q29 -25 60 -28q0 -4 4 -4h4q9 6 80 28l76 108l4 20v4l-16 16v4q11 37 40 84q4 50 4 60q-12 20 -12 32v8q30 23 48 52h4q68 0 84 -52 q13 0 24 -80v-24l-32 -48v-40q0 -4 8 -32v-8q0 -30 -48 -52v-4q12 -15 12 -24q0 -18 -4 -52l4 -40q0 -33 -48 -68h-28q-45 -16 -56 -16l-36 32q-18 -32 -72 -32q-40 18 -40 48h-4l-20 -32q-26 -16 -44 -16l-40 8q-36 -20 -48 -20h-4q-55 18 -80 36q0 -28 -48 -28 q-88 4 -88 16q-28 -16 -52 -16q-36 16 -52 32h-4q-10 -28 -24 -28q-44 0 -76 28q-37 -28 -52 -28q-27 0 -76 20q-38 -20 -92 -20q-20 34 -20 44q8 80 20 80q26 12 40 12q27 -19 40 -40q0 53 64 56l48 -16h12q23 0 48 28v24q7 76 16 76v12q-9 11 -16 44v32l40 24v24 q0 25 -48 96l28 40v40q0 7 16 44q-28 32 -28 40q28 35 28 68q-20 33 -20 44v36q24 24 24 32q-8 26 -8 36v48q-8 14 -24 60v16q18 20 28 20v80l-28 44v8q12 40 12 64h-4q-7 -4 -16 -4h-48q-8 0 -12 48q-3 0 -20 20q-21 -17 -64 -32h-20q-47 52 -96 52q-28 13 -28 16v36 q48 34 48 40q0 13 92 36q48 -8 52 -8q17 0 68 24zM731 998h8q50 0 76 -36v-4q0 -19 -24 -40q-4 0 -32 8h-36q-12 4 -12 24v4q6 44 20 44zM699 582q100 -17 100 -28q-8 -28 -8 -32q8 -38 16 -48v-16q-24 -28 -36 -28q-60 0 -60 32q-25 56 -60 56q-4 8 -4 12q0 52 52 52z M338 1433q-9 25 -9 87l21 67q51 53 60.5 73t20.5 25q8 4 18 4h5q13 0 36 31q24 33 67 33q41 60 65 73q49 0 94 16l20 -13l42 -54q44 -7 58 -16q19 -32 32 -38q0 -35 17 -51q2 -58 24 -58l37 -19q11 -25 11 -38v-3q21 -26 21 -38v-13l-7 -32q0 -34 -48 -41q-17 0 -31 28 q-45 35 -45 51l-66 23q-39 58 -69 70q-38 20 -61 20q-28 0 -33 -31q-55 -44 -55 -51q-71 -23 -71 -38q-27 -17 -43.5 -41.5t-43.5 -31.5q-10 -3 -21 -3q-21 0 -46 9z" />
<glyph unicode="&#xcb;" horiz-adv-x="1326" d="M90 1410q36 -17 36 -20l30 9h12q21 -6 42 -6q23 0 46 7q18 -8 30 -8q22 12 44 12q29 0 64 -24q26 12 48 12q28 -16 40 -16h28q26 16 36 16q20 0 80 -20q17 0 72 20h4q32 -18 32 -60q5 0 32 56q13 0 28 12h44l24 -28q43 32 60 32h4q28 -21 52 -44q0 16 24 24h28 q42 0 60 -56q52 -40 52 -80q0 -19 -12 -28l4 -20v-4q0 -14 -4 -36q11 -15 16 -96q24 -37 24 -52q-20 -20 -32 -20v-8q16 -21 16 -36v-24q0 -9 -44 -84q-23 7 -72 60q-36 0 -36 12q0 6 -8 16v4q0 8 40 12v36q-24 32 -24 48v36q-16 0 -48 44v16q32 4 32 12v4q-5 38 -52 84h-28 q-17 0 -52 24l-8 -4h-16q-4 0 -4 4q-19 -12 -60 -12h-28q-14 0 -32 16h-8q-22 -16 -40 -16q-5 0 -28 16h-8q-62 -40 -80 -40l-76 16v-28q-22 -52 -56 -52l-4 -8q2 -23 12 -36v-64q-6 -16 -28 -16q-8 4 -12 4q-8 -13 -8 -24v-16q52 -34 52 -72v-16q-16 -55 -16 -60v-32 q27 -32 40 -32q24 16 40 16q42 0 76 -28v-28l-4 -8l8 -4q4 0 20 40q18 0 56 44q26 10 28 20q-12 0 -12 44q20 10 20 32v32q34 52 76 52q52 0 72 -56q0 -13 -12 -32v-16l8 -12v-24l-16 -24v-12q16 -21 16 -36v-4q-12 -11 -16 -80q-3 0 -16 -24q24 -77 24 -84v-4 q0 -20 -32 -64v-24q0 -62 -36 -72q-7 -4 -16 -4q-14 0 -40 28v64l-28 88v44q-42 0 -100 32h-8q-17 -32 -28 -32q-27 0 -52 24q-100 -21 -100 -72q23 -16 36 -44v-4q0 -18 -20 -36q0 -58 20 -124v-4q0 -66 -36 -100v-4q21 0 24 -56q4 0 4 -4v-32q-16 -24 -16 -48 q20 -27 20 -36h12q26 0 80 4l16 -32q12 0 64 32q49 0 56 -64l32 56l48 4q44 -20 44 -28v-24q-11 -76 -52 -76q0 -8 -28 -8h-12q-28 20 -28 52v12h-4q-32 -20 -44 -64h-8q-34 17 -64 56q-14 -30 -52 -56q-41 4 -64 4l-12 8h-20l-12 -8h-16q-10 0 -48 20q-30 -28 -80 -28 q-44 12 -44 40q0 8 -8 8q-6 -20 -48 -40h-4q-112 33 -112 52q-6 13 -6 26q0 11 4 22l10 26q47 14 104 14q16 12 32 12l28 -24h4q25 63 72 92l28 28v60q-11 0 -36 32v4q0 4 8 32v64q10 75 28 92q-4 47 -4 68v20q0 52 32 76v44l16 16v4q-56 20 -56 52v16q0 16 24 40l-16 24v16 l8 28q-4 35 -4 44l12 20v24q-32 81 -32 144v68l-28 44l-8 -4l-34 15q-4 0 -4 4l-53 -5q-4 0 -4 4q-3 -2 -6 -2q-13 0 -35 24h-12q-13 -6 -19 -6q-5 0 -5 4l-8 -4q-56 30 -56 58q36 50 52 50q1 6 48 24zM1050 532h44q56 -41 56 -96q-8 -13 -8 -24v-124q-16 -42 -24 -124h-4 l4 -8v-20q0 -7 -36 -20v-4l24 -32q0 -40 -88 -72q-49 -40 -52 -40h-8q-76 24 -76 44l-8 4q0 -21 -24 -32h-16q-48 7 -48 28q-8 48 -8 56q0 24 88 40q0 8 16 8v36q23 44 44 44q64 14 64 56q4 0 4 20h-24q-12 4 -12 24v8q27 29 48 92l32 44v8l-12 16v24q13 36 24 44zM884 1768 q156 -29 156 -64q24 -58 24 -64v-4q-20 -94 -52 -120v-45q0 -8 -8 -8q-41 0 -64 29q-35 16 -104 32q-28 19 -40 32v84q60 128 88 128zM304 1752h4q4 0 40 -44h4q0 23 28 44h16q60 0 60 -24q0 -13 16 -68l-4 -36q4 -34 4 -56q-26 -31 -96 -60q-19 12 -52 12q-34 0 -48 -12h-4 q-7 0 -24 56q-28 20 -28 76q8 25 84 112z" />
<glyph unicode="&#xcc;" horiz-adv-x="1138" d="M367 1401q10 2 21 2q-17 23 -19 23q-17 0 -48 44q-26 0 -76 60q-65 38 -88 88q-76 21 -76 68l4 28q-20 8 -28 8v-1q-2 0 -28 58q15 62 48 63h16q20 7 43 7q44 0 101 -27q32 -10 32 -56q10 -15 16 -60q12 -9 12 -20h8l20 12q37 0 56 -72q18 -6 44 -72q34 -34 40 -72 q4 0 24 -28v-16q0 -17 -8 -35q5 0 10 -1v-1q41 -5 57 -20q30 18 51 34h8q3 0 28 -32l76 24l56 -16h16q2 0 24 24h8q115 -56 128 -68q16 -17 16 -32v-32q0 -6 -36 -32h-4l-40 4q-29 -14 -56 -23q-4 -2 -10 -2q-19 0 -58 17q-13 0 -30 -4l-35 -18l-71 21l-28 1q-48 -8 -48 -60 q-4 -16 -12.5 -30t-15.5 -42q20 -39 20 -64q-9 -17 -14 -49q15 -49 15 -71v-4q-2 -21 -29 -88q17 -29 32 -49l-2 -18q-6 -25 -15 -74l5 -19q16 -31 16 -60q-5 0 -18 -42l-3 -17q23 -64 23 -73v-4q-30 -48 -30 -68q0 -3 33 -90l-1 -22q-2 -22 -23 -90q7 -22 11 -50l-4 -24 q10 -30 45 -32l24 4l52 -16q9 1 36 11q2 1 5 1q14 0 50 -20q10 8 80 16q76 0 120 -72v-36q0 -14 -44 -20q-10 0 -32 4q-53 -16 -92 -16q-82 20 -84 20q-18 -8 -40 -8q-10 20 -32 20q0 -14 -44 -20h-24q-19 0 -40 12q-19 -11 -64 -20h-8q-8 0 -56 21q0 -5 -35 -5h-13l-13 -1 q-28 13 -52 13q-5 0 -11 -1h-2q-14 0 -54 -11h-20l-12 8q-46 -16 -52 -16q-18 0 -88 24q-32 8 -32 16v28q46 56 120 56q13 0 36 -16l67 13q16 -4 53 -21q15 8 44 36q8 -1 50 -11q18 15 18 27q0 32 16 84l-2 13l-16 44l22 35v20l-20 53v11q14 26 32 60q0 4 -8 32l-10 28 q-1 3 -1 8q0 13 8 38q7 7 7 18q0 19 -22 52l-3 12q21 49 21 74q-27 57 -27 77v4q3 19 19 45q2 8 2 17q0 34 -23 80q2 18 7 36q11 19 11 40q0 25 -17 54l8 17l11 27q5 6 5 17q0 24 -24 73q1 8 1 14q0 33 -20 33h-9q-22 0 -36 20q-39 -7 -54 -18q-7 -5 -13 -5q-8 0 -14 9 q-12 14 -31 14h-12q-8 -8 -76 -16q-56 4 -76 12q-32 -8 -52 -8l-24 36q5 86 48 96l24 4q28 -16 40 -16q40 20 84 20q28 -7 28 -12q67 24 92 24q0 -5 32 -32q19 23 52 30z" />
<glyph unicode="&#xcd;" horiz-adv-x="1138" d="M528 1393q12 -5 20 -12q30 18 51 34h8q3 0 28 -32l76 24l56 -16h16q2 0 24 24h8q115 -56 128 -68q16 -17 16 -32v-32q0 -6 -36 -32h-4l-40 4q-29 -14 -56 -23q-4 -2 -10 -2q-19 0 -58 17q-13 0 -30 -4l-35 -18l-71 21l-28 1q-48 -8 -48 -60q-4 -16 -12.5 -30t-15.5 -42 q20 -39 20 -64q-9 -17 -14 -49q15 -49 15 -71v-4q-2 -21 -29 -88q17 -29 32 -49l-2 -18q-6 -25 -15 -74l5 -19q16 -31 16 -60q-5 0 -18 -42l-3 -17q23 -64 23 -73v-4q-30 -48 -30 -68q0 -3 33 -90l-1 -22q-2 -22 -23 -90q7 -22 11 -50l-4 -24q10 -30 45 -32l24 4l52 -16 q9 1 36 11q2 1 5 1q14 0 50 -20q10 8 80 16q76 0 120 -72v-36q0 -14 -44 -20q-10 0 -32 4q-53 -16 -92 -16q-82 20 -84 20q-18 -8 -40 -8q-10 20 -32 20q0 -14 -44 -20h-24q-19 0 -40 12q-19 -11 -64 -20h-8q-8 0 -56 21q0 -5 -35 -5h-13l-13 -1q-28 13 -52 13q-5 0 -11 -1 h-2q-14 0 -54 -11h-20l-12 8q-46 -16 -52 -16q-18 0 -88 24q-32 8 -32 16v28q46 56 120 56q13 0 36 -16l67 13q16 -4 53 -21q15 8 44 36q8 -1 50 -11q18 15 18 27q0 32 16 84l-2 13l-16 44l22 35v20l-20 53v11q14 26 32 60q0 4 -8 32l-10 28q-1 3 -1 8q0 13 8 38q7 7 7 18 q0 19 -22 52l-3 12q21 49 21 74q-27 57 -27 77v4q3 19 19 45q2 8 2 17q0 34 -23 80q2 18 7 36q11 19 11 40q0 25 -17 54l8 17l11 27q5 6 5 17q0 24 -24 73q1 8 1 14q0 33 -20 33h-9q-22 0 -36 20q-39 -7 -54 -18q-7 -5 -13 -5q-8 0 -14 9q-12 14 -31 14h-12q-8 -8 -76 -16 q-56 4 -76 12q-32 -8 -52 -8l-24 36q5 86 48 96l24 4q28 -16 40 -16q40 20 84 20q28 -7 28 -12q67 24 92 24q0 -5 32 -32q26 32 80 32q19 -10 29 -15l-1 15q-8 18 -8 35v16q20 28 24 28q6 38 40 72q26 66 44 72q19 72 56 72l20 -12h8q0 11 12 20q6 45 16 60q0 46 32 56 q44 22 106 22q18 0 38 -2h16q33 -1 56 -67q-33 -54 -36 -54v1q-8 0 -28 -8l4 -28q0 -47 -76 -68q-23 -50 -88 -88q-50 -60 -76 -60q-31 -44 -48 -44q-2 0 -19 -23z" />
<glyph unicode="&#xcf;" horiz-adv-x="1125" d="M599 1415h8q3 0 28 -32l76 24l56 -16h16q2 0 24 24h8q115 -56 128 -68q16 -17 16 -32v-32q0 -6 -36 -32h-4l-40 4q-29 -14 -56 -23q-4 -2 -10 -2q-19 0 -58 17q-13 0 -30 -4l-35 -18l-71 21l-28 1q-48 -8 -48 -60q-4 -16 -12.5 -30t-15.5 -42q20 -39 20 -64 q-9 -17 -14 -49q15 -49 15 -71v-4q-2 -21 -29 -88q17 -29 32 -49l-2 -18q-6 -25 -15 -74l5 -19q16 -31 16 -60q-5 0 -18 -42l-3 -17q23 -64 23 -73v-4q-30 -48 -30 -68q0 -3 33 -90l-1 -22q-2 -22 -23 -90q7 -22 11 -50l-4 -24q10 -30 45 -32l24 4l52 -16q9 1 36 11q2 1 5 1 q14 0 50 -20q10 8 80 16q76 0 120 -72v-36q0 -14 -44 -20q-10 0 -32 4q-53 -16 -92 -16q-82 20 -84 20q-18 -8 -40 -8q-10 20 -32 20q0 -14 -44 -20h-24q-19 0 -40 12q-19 -11 -64 -20h-8q-8 0 -56 21q0 -5 -35 -5h-13l-13 -1q-28 13 -52 13q-5 0 -11 -1h-2q-14 0 -54 -11 h-20l-12 8q-46 -16 -52 -16q-18 0 -88 24q-32 8 -32 16v28q46 56 120 56q13 0 36 -16l67 13q16 -4 53 -21q15 8 44 36q8 -1 50 -11q18 15 18 27q0 32 16 84l-2 13l-16 44l22 35v20l-20 53v11q14 26 32 60q0 4 -8 32l-10 28q-1 3 -1 8q0 13 8 38q7 7 7 18q0 19 -22 52l-3 12 q21 49 21 74q-27 57 -27 77v4q3 19 19 45q2 8 2 17q0 34 -23 80q2 18 7 36q11 19 11 40q0 25 -17 54l8 17l11 27q5 6 5 17q0 24 -24 73q1 8 1 14q0 33 -20 33h-9q-22 0 -36 20q-39 -7 -54 -18q-7 -5 -13 -5q-8 0 -14 9q-12 14 -31 14h-12q-8 -8 -76 -16q-56 4 -76 12 q-32 -8 -52 -8l-24 36q5 86 48 96l24 4q28 -16 40 -16q40 20 84 20q28 -7 28 -12q67 24 92 24q0 -5 32 -32q26 32 80 32q31 -16 36 -20h4q13 0 40 20q54 -4 73 -22q30 18 51 34zM672 1779q41 -4 64 -4q21 0 68 4q32 0 76 -64v-80q0 -25 -36 -56q-8 0 -56 -60q-27 -4 -44 -4 q-6 0 -20 44q-17 24 -84 36l-20 24l16 44q0 13 -4 68q40 25 40 48zM116 1775h44q29 -8 32 -8h44q30 -33 48 -84v-28q-23 -72 -60 -72q-23 -15 -112 -44q0 -4 -4 -4q-80 8 -80 80q-4 12 -4 48q0 51 72 108z" />
<glyph unicode="&#xd1;" horiz-adv-x="1378" d="M1092 1414q124 -53 124 -100q0 -32 -24 -32q-25 0 -108 -28q-80 -11 -80 -72l16 -36v-32l-8 -64v-36l2 -22q10 -34 17 -90q-7 -50 -25 -87q9 -11 9 -20q0 -5 -3 -9l10 -26q1 -3 1 -8q0 -12 -5 -33q-8 -24 -8 -46q0 -12 2 -23v-8q8 -28 8 -32v-24q-12 -15 -12 -56l2 -61 q0 -11 10 -47v-8q-8 -64 -8 -68l11 -65l-31 -95q0 -28 12 -44v-24q0 -18 -12 -105l-12 -23q0 -10 -40 -20h-8q-35 24 -36 32l-14 36q0 7 -34 32q-2 36 -2 43q-3 35 -42 57q-28 24 -28 60q4 50 4 60q-7 28 -56 84v44l-28 40v36q0 5 -36 28v96q0 10 48 52q52 -21 52 -72 q12 -27 12 -68v-24q20 -34 20 -80q8 0 8 -4l8 4q56 -24 56 -40q4 -31 4 -68l-4 -36q21 -16 36 -16h4q-1 7 -1 15q0 23 11 52q-6 38 -19 85l3 30q18 58 18 96q0 11 -2 21q-10 51 -10 77v4q28 15 28 20l-20 32l-11 27q-6 13 -6 29q0 13 4 27q9 32 9 45q0 4 -8 43l-11 28 q3 21 31 89v16l-11 63l-13 71v15l5 30q1 17 3 37v4q0 19 -16 32l-32 -16q-18 20 -20 32q-67 -8 -88 -8q-56 9 -56 52v8q15 64 64 64q8 0 28 -12q19 0 84 24q9 0 48 -20q25 4 72 32l40 -16q38 20 64 20zM84 1402q20 0 48 -16q0 8 44 16h28l48 -20h8q13 0 28 12h16 q10 -6 32 -12q23 2 36 12h28q44 -17 44 -44q3 -27 22 -43q16 -15 16 -47v-7q-2 -20 -2 -41v-14l11 -16q57 -20 57 -108q44 -68 44 -116q28 -19 52 -80q28 -20 28 -76v-24q0 -12 24 -48v-4q-20 -21 -32 -76h-8q-48 0 -48 28q0 20 -40 44q-13 96 -56 109l-2 35l-1 13 q-6 21 -39 40q-16 30 -22 51l-4 48q0 36 -48 67q-7 26 -9 42l1 51q-22 30 -44 44l-8 -8q-8 -28 -8 -32q20 -39 20 -48q0 -28 -12 -44l-1 -23l9 -57v-24l-26 -41l-2 -19q0 -22 5 -45q7 -37 23 -111v-24l-28 -68q16 -38 16 -48q0 -25 8 -57q-37 -113 -37 -119l25 -28 q4 -34 4 -52q-16 -43 -16 -68v-6q0 -10 4 -26q4 -22 19 -61l-1 -11l-18 -48q21 -64 168 -68q36 0 36 -52v-28q0 -13 -52 -16q-28 16 -40 16q-20 -16 -76 -28q-33 32 -78 34q-26 -18 -34 -18q-3 0 -40 28q-59 -28 -68 -28q-5 0 -32 32v36q0 22 24 36h40q15 0 24 -17l12 8 q14 18 27 39l-3 29q-9 33 -9 51q0 9 2 14l11 60q-7 18 -13 42q-11 19 -14 50l11 19v17l21 42q0 4 -9 80l-7 69q6 39 39 73v4q-39 43 -48 120v4q0 17 28 92v56q-9 11 -16 44q0 20 4 48q-4 34 -4 56q20 88 20 100l-12 51q-8 24 -36 24q-15 0 -35 -6q-28 10 -49 15 q-22 -4 -36 -4h-8q-41 0 -68 44v44q0 11 84 36zM40 82h4q44 0 44 -12v-36q0 -8 -44 -24l-28 36v12q0 6 24 24zM614 1602l-28 28q-14 6 -26 6q-19 0 -30 -16l-62 -12l-18 -35l-55 -31l-46 -43q-32 -10 -63 -16q-5 -1 -8 -1q-21 0 -21 26v4l9 51q37 40 45 61t25.5 25t45.5 33 q-2 4 -2 8q0 25 75 61q12 19 17.5 23.5t35.5 13.5q15 2 27 2q27 0 37 -12h5q55 0 63 -20q6 -19 26 -19h12q20 0 28 -16q8 -20 80 -30q13 -33 31 -33q20 0 47 38l50 17l26 57q44 9 76 30l26 11q23 -6 23 -32q0 -12 -5 -28l-8 -37q-30 -36 -36 -62t-28 -33.5t-26 -49.5 l-27 -19l-28 -14q-17 -36 -30 -36q-1 0 -3 1q-7 2 -13 2q-7 0 -12 -3q-3 -1 -8 -1q-17 0 -62 15q-35 27 -59 45l-48 10q-14 34 -41 34q-8 0 -17 -3z" />
<glyph unicode="&#xd2;" horiz-adv-x="1231" d="M490 1290q-12 -35 -52 -64h-12q-27 36 -60 36l-64 -68l-20 4h-12q0 -9 -20 -36v-44q-17 -50 -60 -68q-36 -42 -36 -76v-4l16 -24q0 -12 -24 -48v-24q0 -24 -20 -52v-48l12 -40v-20l-8 -12v-56l-20 -24v-28l32 -44v-76q-36 -47 -36 -72q30 0 64 -56q0 -19 48 -60 q0 -48 36 -48q46 -45 56 -88q17 -12 32 -12q13 8 20 8q0 -45 28 -56q0 -5 40 -28q19 10 40 16q11 0 64 -24q45 24 52 24h44q32 0 68 48q39 7 72 40q7 120 84 120h8v40l28 32v4q-9 0 -16 76l24 36v28q-8 68 -8 76v16q0 17 16 52q0 7 4 72q-40 17 -44 28v16l44 36v8 q0 60 -40 72q-19 0 -36 40v12q-16 117 -32 152v24q-84 15 -84 60q0 18 -84 60q-30 20 -32 20q-31 0 -56 -20q-24 9 -24 16v36q-13 0 -28 12h-4zM558 1413q6 1 12 1q41 0 84 -28h4l12 8h20q69 -76 104 -76q33 -18 88 -116q57 -93 68 -100q24 -14 24 -20v-24q0 -19 24 -56 q0 -10 8 -20v-52q0 -13 32 -56v-36q0 -4 -4 -4q12 -19 12 -52v-32q0 -44 -12 -48l4 -8q0 -4 -4 -4q12 -20 12 -32v-12q-20 -47 -20 -124q12 -29 12 -32q-68 -124 -116 -124l36 -28v-12q-56 -123 -56 -140q0 -27 -64 -104q0 -36 -56 -48q-15 -40 -108 -76q-24 16 -36 16 q-31 -32 -76 -44q-37 20 -44 20l-84 -20q-5 0 -32 32l-40 -4q-56 19 -56 48q-2 0 -52 -4q-21 17 -60 72q-75 30 -96 48v32q-16 44 -16 48v36l-8 12v36q-52 39 -52 60q0 37 -20 56v44q0 7 -32 84q0 15 16 40v80l-12 40v4q0 12 16 40q-16 28 -16 40q20 42 20 168q9 0 12 36v40 q0 39 56 52q0 40 40 72v32q41 30 60 88q18 14 84 48q5 27 56 60h80q36 48 60 48h4q1 0 7 -2q-4 8 -7 18q-56 0 -84 48q-7 0 -64 68q-41 0 -52 24q-54 45 -71 75q-26 27 -73 52l-20 45q-1 4 -1 9q0 44 105 84q29 -4 52 -16q19 8 36 8q60 -23 76 -64q9 0 36 -69q52 -26 52 -68 q27 0 40 -48q24 0 40 -72q44 -41 44 -84q-2 -7 -4 -13z" />
<glyph unicode="&#xd3;" horiz-adv-x="1231" d="M490 1290q-12 -35 -52 -64h-12q-27 36 -60 36l-64 -68l-20 4h-12q0 -9 -20 -36v-44q-17 -50 -60 -68q-36 -42 -36 -76v-4l16 -24q0 -12 -24 -48v-24q0 -24 -20 -52v-48l12 -40v-20l-8 -12v-56l-20 -24v-28l32 -44v-76q-36 -47 -36 -72q30 0 64 -56q0 -19 48 -60 q0 -48 36 -48q46 -45 56 -88q17 -12 32 -12q13 8 20 8q0 -45 28 -56q0 -5 40 -28q19 10 40 16q11 0 64 -24q45 24 52 24h44q32 0 68 48q39 7 72 40q7 120 84 120h8v40l28 32v4q-9 0 -16 76l24 36v28q-8 68 -8 76v16q0 17 16 52q0 7 4 72q-40 17 -44 28v16l44 36v8 q0 60 -40 72q-19 0 -36 40v12q-16 117 -32 152v24q-84 15 -84 60q0 18 -84 60q-30 20 -32 20q-31 0 -56 -20q-24 9 -24 16v36q-13 0 -28 12h-4zM565 1414h5q41 0 84 -28h4l12 8h20q69 -76 104 -76q33 -18 88 -116q57 -93 68 -100q24 -14 24 -20v-24q0 -19 24 -56 q0 -10 8 -20v-52q0 -13 32 -56v-36q0 -4 -4 -4q12 -19 12 -52v-32q0 -44 -12 -48l4 -8q0 -4 -4 -4q12 -20 12 -32v-12q-20 -47 -20 -124q12 -29 12 -32q-68 -124 -116 -124l36 -28v-12q-56 -123 -56 -140q0 -27 -64 -104q0 -36 -56 -48q-15 -40 -108 -76q-24 16 -36 16 q-31 -32 -76 -44q-37 20 -44 20l-84 -20q-5 0 -32 32l-40 -4q-56 19 -56 48q-2 0 -52 -4q-21 17 -60 72q-75 30 -96 48v32q-16 44 -16 48v36l-8 12v36q-52 39 -52 60q0 37 -20 56v44q0 7 -32 84q0 15 16 40v80l-12 40v4q0 12 16 40q-16 28 -16 40q20 42 20 168q9 0 12 36v40 q0 39 56 52q0 40 40 72v32q41 30 60 88q18 14 84 48q5 27 56 60h80q36 48 60 48h4q2 0 16 -5q-2 6 -4 13q0 43 44 84q16 72 40 72q13 48 40 48q0 42 52 68q47 60 58 93q40 28 67 46q12 6 23 6q9 0 17 -4q19 2 48 6q86 -12 111 -113q-25 -45 -77 -74q-19 -11 -36 -11 q-5 0 -10 1q-24 -20 -61 -74q-11 -24 -52 -24q-57 -68 -64 -68q-28 -48 -84 -48q-3 -11 -9 -20z" />
</font>
</defs>
</svg>
